<mxfile host="Electron" agent="Mozilla/5.0 (X11; Linux x86_64) AppleWebKit/537.36 (KHTML, like Gecko) draw.io/27.0.9 Chrome/134.0.6998.205 Electron/35.4.0 Safari/537.36" version="27.0.9">
  <diagram name="Page-1" id="7e0a89b8-554c-2b80-1dc8-d5c74ca68de4">
    <mxGraphModel dx="1106" dy="1923" grid="1" gridSize="10" guides="1" tooltips="1" connect="1" arrows="1" fold="1" page="1" pageScale="1" pageWidth="1100" pageHeight="850" background="none" math="0" shadow="0">
      <root>
        <mxCell id="0" />
        <mxCell id="1" parent="0" />
        <mxCell id="yX-5LMSQblR2VoUcHVor-2" value="" style="shape=image;aspect=fixed;image=data:image/png,iVBORw0KGgoAAAANSUhEUgAAAnsAAAJRCAMAAAAK3YH1AAAAwFBMVEUAAADz8/P6+/vy8vLs7Ozm5ubf39/X2NjR0dLizabLy8vFxcW+v7+4uLixsbLKq4OpqqqioqKbm5uUlZWPjo6JiYmFhISBgYF+fX16enp3d3ZycnJvb29sbGxqampoaGhmZmZlZGRiYmJgYGBeXl5cXFxbW1taWlpYWFhWVlZTU1NQUFBOTk5MTExKSkpHR0dERERAQEA6Ojo1NTUwMDAsLCwnJycjIyMfHx8bGxsWFhYSEhINDQ0JCQkFBQUBAQFdhjWZAAAAC3RSTlMAaP////////7//ijEtOQAAYaySURBVHja7JRLryRHEYW/E5lZ3fc1AwYWIMTTBo+N7f//T1ggsbEADXjsedzprqrMOKiq78isLFsy8sL3UyteeSIqS4pqHnnkkUceeeSRRx555JFHHnnkR8PHf/nw95+9//Gfn/3po0/+/NH7v/31hx/84Y98/3z68bNPP+GRHxf6hrNnZqqeybg/l5sY8+Fm5HJ9/9WhDaUh5vt6FRWXGD7PlKvDakYfFBs6WKW0q8PMJOea7W/AZ8txmTm8fEMtx+uYXUp78Samn/BXvneeOZRztHWtql2HVMQrlHfLvZ6kl2O+OtYYMa5PpzG7XE/T6S6zv5zP5b16nWSO9Jej3N61PHP894p0dRhE7WN1/INH/g+797sr55cJoWVZuZrECJXs69t2LCld19Prk453Ya3uI89Wi8RFUiklE1MPrbwyQpgoPie6NofFV6+/sMptIadr3rw+x+EqchTJ9z11fErCVfFpedpSQK9v5rXqvShjy1+YnzhLL9My7tfaot2urG28rCNuarYzeZ8jpzatvQzW06jt5/W1Ld2voMOTXNc0fck4VmVY63mV65O7Kc/99LY77o4qjeV09/K1ff3EqxmnjvL210tGu39xlvT0vRyHOOX6dj3+/OD5xAr9OT8Uv6klgudgAaVTMwHxBRs//ZJv4pfrf9j5YXfvg4Ken1YU7hCSjSRnEggrau9JVNsgnBCBVSX3KoMJBWfLigFFzCkdpu5eo88QhTYyiudEtWXIcB7Q7hgepSyznrTjmNPK8zoU10+msi5x/1JM17f0cxtvTxllurHLmutJwVVJm+yLXVo1Cb3LUaYYeB2gjFLGprJBERi2RNRWyFydQBzLyBxK29FyKEiD41oOzWfA9abYNebzgtrVGGnGpqpTIDXGaeF4+1Nc8vB8bn1uLc5gc3aNAlBdeh6vtEwLn3Ph947jeYYv5+NNlOsys77NLIfrqCXnt6qvdXivnu/vdFpOHKMta2htuIs2ZFIjSOUozvqkLban3pX8k3f8rEixvmU6GEcesi/lMHoME6HRjmv7O9+BXz2tvInSSl+Btq6qOR/Opxffdffe13T/6hyZGH+tMzLvkK39yJJtS3tqbDnAQmQAhWEZIywuHkslzc4+yMjCNqG95NzCRqZ1yaNJZA5HOva92vWoQpp9mmQbsRFlGEUaStjar4GbNBJb2ntr4qSTUgkzKLGtaEw20ug20ZDEkmAdbArO1eEabkmumVIrI4vTVipaQR7ZE00HETmWQbqU/vBuuFQSg+3SECA8WH2spB3plYgaSdTlbFOPJTzGmUjVg4dxsiIVBr68OKU4DZA4qjw0JT1pYaQ064hDFHD1snTqTUUux/nlGrfHens6kf18otXJUOSynFyvNBId1jfloKJMRTAGqmVtLZc+n6bbiGPzOfT63KebY97d90kv3hxunn+H3ftgefrqdYsh2+EBMiiMYTeSrHTIYWN5PyASHAJSJkxExxK7RliJLJMEoIftBdNVLsW0IokMGRLYYvYezIa2yiXT3sGmlAy7MeKyyXtsxT4nYOxlb/Fes4y8FwFvkS5zSUv7D+wBrgT2LlRcHpIDKNobcqDyTi872CI93Doj5GSoZkkTxmlLBZPsLcoq9S1sHlTl3rov1cbm91x2klGcFmAsA9p/ey0iqWSmUQU5g27hKMnWl0TDjIiewK4yomOihB3K2UQtWDI5UlPV/sV3BgEyJZ0QKrLwSLscSu2jkiebQ0PZ0WLf3vR/fcvd+8O4Hae8vQnLSbPfySTbjocwh6ucVrEySIfDBpfwmpM3iWQsHOkYioyVlqY4Q4BG7CKZubRMj1fH61GKXbu+uqOQ5bLbuJoLMsrN8vU/qMm4zBzBKKAMtpqlJAuZEriXVIFzK7bWmJx9itwbYZ5vMpWF/VJhbfIYjT4kQ1lptlLRNdnk/TGGBGEqVncOMylHS9Q9spS61pEMJRYaWaKkMwa+7PgomYEgCdlAMCRdVg8No4xdLfLhjZOANLHJNi7X7VkKRnDRhxPl/36Elwwc2Gtsnotau928FYl3TxJhby5hM36QCmFsWSBfEmLzKvvVpX3QLtKxVD7/Nrv3bJS8v72TLUIGR8oCkmJ2NFxNOvYHcqlaGZeZRlumNQJTVtXcx8lJ2U9k5WhGZMiyiX1MV92c0PnlLxy+bJqDd1hK6yJXCri0I6wHBful5bG3pRBpZIFGRkDItoUlHroCCyWISzkNkpExCUGkIKx0CFsj2AqbNKlgjODdREHMJfbQIre2LUO2LCN5lESOvSn10CWzYWs3xlASBsXqboMIsIswMsokrD7HNe4V7FEcMn0zIh3IvWWvdm/KNnwe8abdFebabOV8eKUrT0rZaChSGhQJfPovYW/6I0uyLHGZmXtkVp+Z+9h3EEIgBAgQ6///kR2xI/GBRez7492Z010Z4WZIMEcD3AFC3dWd2VWemZG/cHOPiIyuwjSNZBp0EiWe+rP+1nNQLnxRXHy+/4l2h3Ezuyevd5r765n7/Pf//+z9I7X49VdXQJBMwCAECCAhAYRDMggYMqaQyMn/8ndWgEA/lI8wCNLAb2gwSCICGZEGOVSACAHIJAIDKGGA0FCIAAQQmERqouRHWwgAEj/uWMhEABIAIPQbaAAT/GgvIQEwBgOIkzqNKf5m8wfM+wp+XDkiACaU/N/q0CLyYyPRD+kWADgFIAERED/8NRFmRDDg78E0QwBhQgYg/DuQ4Y8XIQATIQx/OyYwBQRgfjMDQ44pwhGRRGSAIwDQRAKDMCBAAklcAJipkECAiD8uYIoIQhjh+r0aAsX6sU3uYsgQAfZn/vz+H///2PvHXsnzp04R/g0ahrCAH64j0ZA0GZrgZgf2QiLkN6v5gQJoMvxtO2SQH/UOhvRz0akICfGj8PeNANFv+/Bj/2n8uBsmEZAIwABxA1ZCmECU3+yFZPAb4vjxCoSJF7/rZeX/WTsBwB969LtTZxDgz986+N3j/oDth1X8OEQYFxBiqN8A+oHg7+9H8BtkYX5UA/Hbr0oC/lCZ3z9J5PfaphUwNAmEiWggJAIEZEwqCJgIiMXgN5ug+ePWhGB+oxpMAMUkk1E0gIhJMSQSmoNKIvBHZSMkAcAkgv3Lefj+n/8/2PunUM/zV9+2lARkCIT8DSv+aJMAAbsQ/rBgEL//DQEB/F6FJn73CT/QDAg6+tGC/ft9SeSEYkYuAAx/VBSTZxWCRGGIICDtAn6YDfMDePpcIUyQyG+UhiFDAAydKZkCAoS/Afc7e+D/LcfPbwTQ/+vfqnAEQ/yNJmIg5ge0BAHzh1WGARHwUD+Y4e+uCoRDBYbwe0kI/g40wvxmJvyNVeJH3QDA736Swe8lvx9PgEkzIZEfMBgAf+MmAIH87tUAIIChQGEQ/d6ETOL3APJHs+GPDX9nZj7+l+9//f/G3j+h/mR/CPSIIBAK0UAJwAQGYCoSA8S0bFIaCwnLcgRywkRgdjMKAdAgEFOhQYJBBDCc/+37PxiYyL6B8FAG0nAqoKHgR8scImQY1w/pggEmpE0CwGg3XAQJCwl/R+l3t/PjLiRkAgI/0Phxi4EQIQEYREwBQH4wGAbkkMAPPn4XR8Jk8NvnE/4GH377/vGC/N/4ZgiTPzBh8DtODBKaoZiQ+AEUfjeh4PcSMEgCRgQIAgAyYECFQPTjgkHjd2sBgh97fj+V36+QARGGCAMw0Q+3pB9Vi4BEMi7C+7/5+uWP2funbiLNAIAh80eDc34cIy6PxKgY0IFpo6iYSCDQJAgjDAmM8OM4sQgajAIwv4tzIga/a1oY4nd5/N2fEgh+7CR+V5wAv4sQf9/BH6IY0KkA/L9rVhjkd1x+O1RCKCDzO2gIzB+nSeY38zFAAviBOIEAP9AlETIxCfB3D4jQ0I8zcRiWzfA3AvFDBYwAgQAq+Z2FAGSY0D8qEWAgMvlxJQaRAMSPayBDBg4DhD/ON3GRMWmEP9oYYxdhhIDg32kfOckuAgDoHgugGWic2AzDoBTmSv4kwvs//vpD9v6ZGwBEEIQJABF+pxwm83srTRD+XusRkXGJQML/W9RGJCERw6JgEgknKwkYkPmhxfnxkd/99u8tOD8k5jcCgx+Fv7dKwgJjADSBHyUIRIZJYDEBf1jGD7MkfFRISP7AMAFJ5jcWQiEkGIAhYggMxirALiQjUjNFMSGCZAKIRCNJHLaP5kBs4QH3asCQYyUeANcZoyZiGUdCOXpWfAwEjNlDjYsmTKd+QyEByQRgHPyfhbAYkAgxQABAMBjQIJQAIEBowiQBwcgBQv4QOwFlm4gM/sBBNPi7lgVWQsQMrL/j1r3m/e/9EXvf/ml45qQrgAiDDEgSCcAIRgICMQnQQaI8L1PzzAd4WERwWHIICAgQxHXI30gmjZppGTJgTSpBQDkKCB4qAeqHhnBMZBJUgvTIKAFvl4HQWBkiCMLKNtcOmollGkhEW4iUjKFJERAQg0EhIMYRJP/wx2EMAbFg0mQIMxCBgAGSHzKJIABpJgBIgoDA7FTCREmI9O9N8zcgKhtlOSKAIMSQSXGACAD5QxBA0QPBcn4zQzBRwN8gYIgEJH60fCbIb0ZAhCAMICKShFRoKjHEgPw9pWECIBRS0CEQMkGoVMwCEYYX4AEM9lPUwCA3u5PJ81w3/5aftP+tP2LvX9I8f7PfJgGADIsagNV8NgmaDKKYBGmFQBC3N5mIYcIAAAMhHYiIQSaDzgAh6CAQkTIAEAj9f8tNwkT07wEYEP5f3ejvYbQCWr0JBCGY35WcNAD5BylMICSEQQIFJABAIqQDmgFBEGAIA2QC/n5yGsoISCQmGNIgyMAoICgMmQApEyYBpoikEDgEggEhgil6pyAQsWDZFSCcKEUWh+YkKqyNPjAVwlYAAoEwdktJEIBEAko/9IZgRglJNU5SMQB8NLy+dgJIuKQnGkDeoRgOSA7NUkJQUeN59G1gIn7h1FMmC1XWFI7nW3a5Ksf79T0/nU9e/fwiCX/ndf6Drz9g71+er1/sNwiAP74Mpgo74bqfMENoooChiMoRg/xGTAZKUFHAGoZw1RmBIeQTIRSwbIMBQIeAwTKKiWLRoKc5opKQKJcNJ5ENgZBo8wckQAQkEUBYQUBMgIAFMmbEOjHI/B72APyhxyHBwgkJxqbAUDSCEGiL4AwK/gF4CBMhKBSGPKo+o0A0YTmxyGGiKajBE4OAzJh1SkHnIVgzuV+Pn5DNeLavpNJlhxpTioiNaw4YjlImAgVwlsYIWJoD/uCPaB+h9AZjdVBnNIbAfFu4/XmSQYXRB/wmmHqmKvREBTgKFU+R95rvXrRFJ3eeigBxPgoIYKtzANRYKRL7KNjPaxN/yyvf/4O/ZO/v/Ie//mb194e1KnMueQwQVbY+Pv3T0jnbR0JKdXabxkuHGGqSxypUxIwShCXuGIyCFmQDCM05fW3wLLmEzTrAbyAIrLePrsUnXDueuGUdKS5yN5AQTF14j0k61EGFnR0WPFiIDNiFKG5pj4x75b0R/FCxkIZqEARXDDZsSzEF+iELbgxAC7VKJ19gxGEQtPwYLMBFKqBs6EBEokC0BxBQIBCLMcVJmBEQLyUBAek41zr1xOjOmZEA6sApwQNCBULs9wkxuBAfrs0fjiIELh3Tak9kAaEgLH+xCB+zwV0ylUK98ukhgNEK+iyYZ8elAGX1JCMEHImK20Z2aulQHSWcwl4XIm9JdQY900hFZ8yer2v5zfzVjfe/85fs/XP4/jfPR1jdD3Pc13ioFHKyhL8F71+luMOQnlLhkQonI1VOpgJd9BnK0bgCsJ56nVHMCokdZlYZCcSAtHZSUCLZZTOgikdWMOZRxcNSkN/oXRCGiYwARhEQJ1HIyihnacxBAYQjGsSrzs7UbjvkAkI4BMSzcU/QDA1e7ELyhOUpEJgNaCFhzmkPKQ6rclIdzhwuDIiAZWbQPcVscgYSGAOKBRcjwGbAkRjGZGkHIybSiHEAEZQN1tgbgLpcYBpvJEYBdtERQgOwybrqIQBTxLYpDG7ZY0aCBIAGEFg/za6vEcPezWrYyiflBmGGSkZBYLKAIMcBqnTSF5jn9ruZIgHEqierHTLGPoqoTus7fvIHn3/7L9n75/PX+93f/OG80cdYGJSGyohZ9/urBj/RbzEEYhKJYIS8sEtn2lX0QSzWQArGJDZkkFXjUDKYBmeMECQaJ1CqNuhoAgpXDWcjzHqyPs9azDgSUjKpSRU3AjkkwxBxbm0bwITFLYlHBJTT67GGQ5c8aBLIgKDFU42scWyJLJCy2ydohyBAAB7GFHxIAioXM8VDzaDGk6gYViWRNpmAySEABSzTMsAw6ByGYAVDECubcgw6IKPR0UUPGY21FB/C93tWHIBANGFVhGEChDFQQMjKjsDDbjg7UEKwpW22gfmGL+AQJIhobXf7iDFmQLAmwsJ2MX0R8KNzlBSwFjWmHnVAGATIgD2OaARBRKaCIl/5kWygfmfvHzj/a/8tdAKCSdEKc1BgsGr23NkxxhnPOCUj8JA0JyzBGNEcZBOosQeOZbTAJDMZZ2isq4ByGILwOcOlgGMPsFaXaMyZIRgj3TNjGhJImAugcgTCiGeiqIn4HFXCVSpGxKECNKKAuPqkpaEyB2cgAFSqUlCJASaMU3vPOx4mYSo0dsguNgOxnMzznO049mQOUgzVZGbmDIFEMmYAHjszg4lNZSdAnEx4BVVgXMl4kDHDShAW7ApNBXPONnhOQ5pcQlXTKp85xyNn4hBQKeOJgTKv0tsGQRTN8YartED3sAUyIUCg2IYpkOqugqtiQVV9kUsq8ZYaYCKCjINhazVIBYiOCQIlgMIsgPzzvfBjPhUav5ec+en+HgE6gcNNUYCrH55DMqp9VJNaUwjlgYijPCjtmaoSonXwOsPHBJITq3SSTFfY9smlA+yyGWtyAVV+oIkBhQfSHBaMTCo2URoUi0IOgGwJdh8igV0331NKGMmBBsw55iJm2k4xWrDAMWFSSgTAkMZlDYYewgJKyiYdQSIiuGInxeA4RsgDmhHtRBAFpiEOjXYinEaO5NfnCgoYVBSEfOo+kVAxMWeFKQboKSRAUlaPMItAXAPJodfCFNfjZQnCiK/ICG0CURSRABVRi3Y1GlfCBQwNbsLKtKAcDoKF5g4U0oBJKpdsFD1eYbMPNNyhBxaMGtFhcRa4QAZMgSOw/RQJh+WZPOvCfCsI+APN1X+Nnz2iaA3CEzoACpBAaEcwYAJkDlfPaafXeQbiQlGUndRzQnZxF7YjAcODZawBr0h1PAMRRW+XjHLSp+RStmbYNQaixiOEZKYwCMcFyenChJMIEqQ54sDocUqEGwdlI6CyW7auz7UehJPADRSREAigdgAs0FamyeeAJitNQH5+Q1oZXQnoAYHBUhKQhyEx1mANKmSljxGQ/eePO4mTCSyETqHLQAfEENMKEYA23DAEDoSRhQqQiYx0FKV9oEER3OUNGa8A4wMFbDnSsWmAbFnnlCwHZGJYgtjICQmJhkUfYeVsLQGmMMQoRQq2aBIJkZzFEFAoIC4FIxIhGCAHGhiSJ+KLVqr1/rf+kr1/Af/r83E9K2+ZTHiQQNLGfb0rQZDDBMJIOupmZhTBGKBqT5dmCg4cFtXr8/uf5EEcouqrH7oK6oL3bh2RqExmQt5lEmSQZFgi7RmKR3yWkUoHAUxEVbv2kCcXW8MAB8fCorMQ9nmsxBFRAhs74g7PXAQsjTAE3B42Q9J2hTEUlXZoVnkEZJMgAwGw4IAIyaErEGAeN6UhisegkHBAcp77pWy4eTrACJ5aMapyBmhsySLD4v6/jT1HPs0QQHGsHWnMy8CgEpnGyOJZBwSCgDBJmtuSRCWG0YAFxOxDkZEMp4gMOoqIgD5uc7yUUAmZUKFJQCSMhCCBwFkBQzKwABOJSXhAAR7I/+vfee/crzx/EO/9fQmUPAwDuKHWAAKFvM/hNs0ZZELVBRSQqMvDOEQgqDKeQ6MpOsfLEcReambVxRJFJuSFU4xTKpHIVeNCkH3G9pnwzAFBGFcPWFiagdWlhTOFIcP7bkQ03hRaObAOil9jCqoagELrTN4pmahavTqyLUJSN1IKEtQySAB2Ujcd1mBi4xznjBNjIB4GyiAHYKwTAuyKnNYqSUuCwnQNIqZIjkpiNSkiE0q9VNWSuihWKRQoJkgVCADqREVRhTfunQumxxgqnatMoKoAMYjaDC9mQaJEs4SutcSqxe4qElOiIDYbEhMkjhpxt4gQqpKKQEEswERKBEQkgRCRYBInIZAEANkxQ1b+rJsPV/H8t3/k95458fNTnYfRFBzBCZiEXHbLBsDTpXnINVAkGkZYoNnOjiQmhMJYp3UOVEKmFAAhnrqG7QmYw5pAOSkpkRNKwBg0QYpMag6IZmyT0eLbKk14pheZHOik2EiMIOt90KKDtpBVnM9oWDKQFauRY8PqsOs9qKAGTAjHAA6XiwERPiJtOWAFIQ0kVeAENC7lFPuglMgAqxxnWDQ3LDROBRQohJhMEZ6W0QAkHxYmJFFhwCRWJSR8mggggDNW0DrexTBsfLGCHBYJK5vFg2ZcOSICBWQAaQoYUpgklEswGJsESMNuIOIpALLJUKabIY8lYIqADztRRgUhDokIJhEEBE5AAAa+/7RYi8+/9Ufx3q9/81ezV2UfJRZAgpYdi7q4RSeiY2MVoM72bzApkJ6qyRx2kSzbF3EaRxtXJRiSW3QFYgI+qRTBMYwWsztIdq6VwByQiQoRS3NQE+usuJD1TCZunW7MDlXuxBTAUwVmk+SkpzwiDDg0S/h9QoRBaFH7q+NSjJiZZSwjpcrEENbnVQbHQeIydLjMAiELIbMvQnHgyoTNB32GqD5hHbBgVhArQkAAmJBGMURAQgNxMrdDagCDACBH9BQCiQOTPe8QYdQ4JosZGIrcJx0BcPGkc4hmyDlNckQmnkaIYVHIhEQok7SSAscQCZswLYEQgzATqwhMOocOuxLFAs3EMIiDrj1EEl74898J1OL73/5Lzf37+T/zdTiCCmCs0ggnMGDo2ZEnZNEJF05IREzCGsA2igAqFwBTPhQJgyjJG2dQDTYABFRKEkGQYCKgGaLg9Jw9JrloJNwpHuQ5c7ws8pgKpDnHDVtgy2yiGIeeJwDTOMf0JONSIQnJlAChurtqQaIPASJjgZVSKQBl70xAzhfukkMRRRVUGN0MsBTShzRoW7ClWqWDt9dysZrsotUF4rlCEVUI2c3SKkmVqUqqpLCqRLIYtVDyXh1xrYJgMQAWQ3AljWkubdMuPWRVSQIwTlQgJIJCSbJPBNBuTjwRMWBIAojtSfYGPYw9I1gkAAc+c76AoXfiZHvbTYwTerzHCebExz7e5/iM3mvqOl6i/1Bz/9df/o7r/G/fAnhe+L52eoDUsFE+XpgIVVgZ72Cxj8kYJIO4FhGFkJNBuehphIPSSWO3oJgJ6RSRgAkwA4QX90WDgb9KAaJG2zXZ08AiYxfh8EA6WLT9zNVBwKyQGOCYFQ1EzGFRdUyYFwaZMqEEEOBBWQ5JoY8xmarqOOkYIiIcA3BWEcG0zEAmkBAhaBds1LEQijarABkJBlCFgWUICBN4quOUQg7MKDbBASCDiymEhCMEmFgxRdC1sTLn9Ee9B6gciN5lIBQYQIyIADFjUSAAcYejGiCi4vAAkhKxjoEQ4FiMyT5Bxf10sYYqhABigBQGIGLVUAkNIRxG5TDOBKo3YKaB5nm5P7j/zT9i73/7X7+t97c+2k8ESwMCoKFVe4MxBYHkEJ3RDMiQIJCWA083mQwrI4Wq5DlWBVwxi4eNERiImRldZ1jueSiwuREtnK+qhdPEKWAOadEqhXgTRpTdNaS1pyphxCkR9HEXIc0kEUOOTPCq2VEY2aToxGocQAUIj7VZHLUMThGqsXzQQQapdKZsRULIHFOKPaXGEXcUQDwEQIs9E4ILZ1CoDcGp4k6oMESBm42CD0OdYPn7T9GcC4MCCMZDMEO33y8UJ9lQ7hmQyqhsAuAuHiVB1ogkWfGQXggIZAKpcCDAoxosh0PSOiAWohwDZB8TRCNkzCIQBgEImQAPWMwEAocsD6UBXDECwgPC9PC1vxV544/y3F/+ti/8LS/PoEqIGiUWkkhgIFAFc9FAeC3UTJe6lElHmBmAAOzQrtVTJHJIlaoAy4dJnKBIIO6uVFWJLGpZrBqKLGnxUVFQk2pKoigiaLqEKkIsdamLr5/bfVeWQlAlRwXoRDGjbMOwzPKIiJGqAAPXWpGoyrVqdYEEDZBG+f9kk1KS+AR05qHOWExYjDEyzMqwdFALEI4Sg8nNSC2CSwgRCWKKB6CrMmwqXqWLpK4L+FHbKXUrLFVDLX1rsIoqMUtXg7q+pbqKYC+ySl1XE91URaq4BAUIqGYBosbVpcSkJioNusUcER0uIepWATMnXEQECBCGAEpRdxFCSbVIskoSV5PG6oCrZAk8+siUsvnf/iV719/2np+4CWYckKEdRmFNiEkTlZ4xkOQYTiCwQKYU9iV2cQ4DZN6Pn5nMkTAobwuHGA6VhEIgcY4V8CAivLcqpibhbFo4YQLQR/G2cwLHtkBaNBKeYI5T2UlYMY2iE8iIMB6qwsIgSCwhkE9oiIKBeMdFIgAGNqjMbB/n7DmCKR+tqjhKksQCbYBNpjITMZRIMXWVJAJ7P7opuMtwIyQBBAIHp+pt2lJKDsGCJ0X6aOETskl1FYm6aYieLhZKghMDb3Aw4KDAjqW1BMY8g24mAKSUThJSxKpWmBa5REKtYq4ljtcVsltUi6V+NbuKhSRVWSJJSoSBIigQVARAPCaEBAT3YDu414Pn9ef367/5S839J7/9N+dv3X+anLlOEofcaMZFxCIERtpIAIIcHhJEShhFa2U/IJ4qnKpMurlNXAQEz0ZDDinC08UYoJLOAZGQGSVySBxAxJrf/HqdIRwWC4qXtgmOITHHESBtQxE5kMhBMEFxFmeYMtZ4Ih42HZctwuGtYfG4dKIAK4MMWJCjI0zIhROmjCCGCgNExSCIauoZsGCAFaIUVwhA51HcF46LY6SQEKcNAcj48kSsDJWAgGgic1J9f6bInqk6IVgq5IAADBdiGEik4nZEUkFgoBHXsZpAJRpjWu8lA4Qq3AAAFmLQlRA1ZiA6Rc6pYAFAogiJQwuMxmJIh0RCQkhCgolrUJOMhkwyhv/275e65T+I9/7F/Jf1t72/fWIiVB+MzarLX5MyUxxAawL8PkezYPRA5Ym4dJJAw2tGZlBFH6tEbPcB0S7SBgoljE2ADAAIg1jThSShjawc1lZbHJeywdNtnvIERIIW8YiQS2+dFEFk8TlwC0+wAKk8AxCqJ6AyEUCQFWzd2xeJU3iTDGOTQyBiFNKoSSdGkECACqapbswXpH5i4vYhQizNiE4uxkd0QABDGlUnZYAsDBpnKBQO2OsEpoMGg3OEaRqAwrWBwNBisskhmT5ZyklgdPGYNe0s1D7NADLxibUIwjlEgUGGFSJBZFMQgBFBJASUAAwJBTQU2k4F1R4AnfNciBCQqJhBZVcdIMFlJ8eEB0CE47/7z/f+9hP2v/kH4xoEU3pa8fM+MnDNeJ/CGH0xRRUz0kYcMQwYD5XJgM8+Sa9SxQlAwbMT+szZgaWpmow4hwUy8ZzI8bHNAoKBz/gpnjFO3HMWnjOPs0/YSnSOj5UJgtieATuAuyFwBTWOqlY2wiCxDYdAaUSEIpJB5bRWDZ1DxCQzIGsARSw6IEERA61Bgd1gY1iTJPKJiQlKXC9sCpl5ymmz4SFYDXQQFx2jAqgaMRwIXUUDBt7QKbOBikUIq64C1IsoogGAJA6IQ4QRdzpMzj5Azjk1X49TAAajY2veJ3uyNLaFs+UTOqlUmRxho5Jku4nkOMHxeOBJ6CwkEmwQKVICCALIUQ6QKDAINWswKTIYBEG+5k/r7qL/QHP/eX29WeNrjJxTgDUhxKItsEo4B1SMAS9sDlieajpEgIwWptoTAfWmEMC1hhyIgfBONYgTlY8IifZDhZRwgAjUuEzBxytRYqNstQbkJKBqEsYVljaJWD0T0WRMgOJEJ4ERpZJGSjiF8FhIHLYilnMoYuUIOYOFhwAFJMhynFXnqQ6ikNmQQFuGoAQJNVRpjshJUTYpBK5jgCLCH2fWPHZ5pHQZLiYx6JSkARsTQBmQzIFT2VeZb6ELeyLCaVsVNHhGsos84TqHMsnmNtuT6xyIVCy5OacyFYaAlwci4BowXFxPxip6pgoEwYCQyqblmapCSFimwSARGZATBjoJQ2YmRgC7fs5SXdz/xh/1sXy+D4GP41DReIeqTCBB3r2wuB8UDtxKkjJJLzazhwSSCBEFJbIPFYWkf18qjYQbM0W0gDgMSO/ic6mFmEAI8yAOqw62lww0jshTzHvRK2+CvPMwQKiagyaB2ChTNsNDOKl7T4kGNwlyQgSgfyhLhUUjQSYiw1BumsdiEmh8hQcyKwdVdBBH3/abrRMwkKAjalSTIUQAsd0yiuJgBEGDIRxqKEJ2d06CsEpGGUHMBG0XBxmZS9i+5HG6AgMGI9JGdM1ukGEiersQouQTsRTrKDNaklMJg4QBTpMBEQuQYYaFDMclCIaooctoxCsGIQIGgJxCRCAGAAawCfnQ3BSOWD/xkLq1/40/0Fxkox/3kAiBkaBMBMdOA7Fd7iJWDjRUXAqIJz4e6C7o6paKJIckBwUigoASORcpZBUuSUAXrSXWXVFXJ2HGtWcmTAMioVrouwOQKa3qMjKEs+QYKREcUkkiGkimtMdI6PopVuLAZhKz3CJTCFw1LBQeNAVWsxeBiI0MVACKtCCBzWa/pGtVoL4Wol5ddS+BsgkRENh0oYNFtqi6CEMgFbsbbKmXlACMtFFgMDsanBAeIBmgta0hPJOrAekCjmdOlgtx4ARjxCSzbRU4sCqzyjHGRbpXhcCSAhK0CP0gJ0SQQxYNKBTNRQZACyHDYefQSmDPeDaShBibIULaIEEM+GrnoF5mUqw6/81fsvf38nk61SuUBwatVbFKle71UUgDknJ1SWI1KHqB1aOGF4PsfTgBocohezVRuzowuVQAPaYnpHCIRpFEMgBEnEkYmjTqGhd2DjTjc2I78Mw0zszE4vsLHRCFMTzjGYwuBAGihrp19YkoBwaZAKgagwmT9bO0DFedpwkSyMQmMcmUYuznEqpyVVmKOF08w14Lzn3NsFSc7XuFgIKWGp5BBSsotU9KUi5G2k5lqUUFUhxTZCVUg5JL3YV024CrqSGidkZ6P5lQddE0AZAS20sUkImKbFWRCqowpDW+eSqgMXGOz8QBOf/nL0FlUCLhTPH0IhZVsTcU0OyIA9sHMkiYi8WjtSSVSiwSARNifGJ1+3mAi38c7/365zVc99fWoOLiRAwtApuNqG2e1JptNZfnYNgPCBABEMjqIwHdD3WmSWGsw+KBogzhSCaLNOCga48clDqcORheXV9nJS6NxeHJAoiRzEGvBHtA1iCEI2pLmFDSoDRILBWd7HU/ZgIjUBIQVZ6AEtLXXvnVkPBo6YQMEILQ4gYIzJe6lWmzOEMercBCwRmsMaDYLyAFR6ChYJcyurPdIJKQOgCgLzXYRmbguNegcc6rtzwVBm4kE0SIxOM7h8BUvOhCD+B1jpUQjamY5KAvf156vCYMzFhOEwgW5R0GVh+LJ7hJPlgAohBh8H9+YeSOBSIoJBFhqGHYiikRtlk0CQEGkRA2gpzYgRX96frCQl2af+0P2OOff/2Wc2VCh0zoPqCDFe2w6hrU8VAYS4GAIBwHIXuAANSlwxg6eDn2rRz3cPXkMRWiTkaFNWYp7xFGEOdew+xjA2HpoEDGzCiDWk4ZDhkhwgyWwZph0HGghPqNLgUWDNBYmhSCDAGALmGg7gNOXjnSRuDQ5BomYZQElBy1OV94xVbhFB0kwVVJSNRgwNDmRxQDinVyikI5pxSYpIYYg4yAkGI4XIpjEYrX0drglxFoEQDmoCpksO/ayGn6NKdm1STCuDBltE8ueMgCwOIkD1ViPINQHNaCkRE3G2R8sBgkBeQ0QhAhAhgpJUxiX2EZnYHZGwLGqCkFGcwlACIBwAZ6NEiQxwlcf1vt89d/d606//ofsIc/Ty3+UiQ8qsQJgEJKM0y0FghPpraeEIkUMCImRciBIV7nLIExAjY9kGdYxUdkAAoZ4nRFLm8QAHNlKAyYiUnyoAluwAyFMD31oFpH2WCqHwO/r/xTNB32QGOIMEizMK50BvjhzohTDvtEWnlHCo4u7wpVxjhVxnUGbjnkgwpRQEKeBFU1rDG5zhbLBoXTMKwawmEok+CKkzFZNXZpoK4YBMzFYyAFhTXRYfPUEIKLtgFQw3WoR3DBBY87JOSE8TT2IiAjRMiyieSE7IxZ9uJJch034liRYAynBIQECCPQTZ2MUZoAGivqcIoZAdWfqmAIAqTBWA0QFBCGNoMxAZMA3vrTnsKNrj/Mc/X115c+cxXBKT7px5AkNr0HLmelMVf88LRSNseqfPB9AkIEcFztC6ePkaNK9MoBOK6dGlOArAQg7SILOCalIBDAMYTEBijEbFsTEEFQjgSHIR2QCYiQRQSDMCCshZkClQlAkDGBECGVwGSsVXsYSnjPi4Udkv6NnOUnbATEjCqqEOm8idqs093nUU9IHXROlUE4MCDFQNgB2/Sb5RIGYs/RwoQGZGTABppnoEKqBgHe4sJjgk0iCXGwhvYiEGRosnmGIYzqHSJWIo+QBQNwBRgSAVHXl+/hAYSIATO8cAB2aFhgacLj//N0phJpdBFQYlO1D7rBJEl7QgZFETQiBoB5ToMub+25Pmg0sfr5gzz378fXV19fewk4Dou8O4ST5xkEQuIrA3C613XVJpL1uj9wcF0i+mqh7OMBJgBQBKqoASnuKi6hGRiIEFeGzApQpuc45+zIRAwFSBKYQCoAJRJERKABsMBabaiXeBwKJOpaYA6qMgB/X03QLAFJEgDqximBNV20G0MlKFqk4y6EFbsYUyEzOUMBouFzdgFheVQycZy4MUUqWgGUGOraoJloHG14b4wnxKhX36s7UwQjLb+Hzx4Ck5JrYZPnOFkdDSUCOGFI7LOEilUNgY3IGLAkNWe42IDApiJVPFi9qsQ0E3YmZEVztoOA58wTekJSWZ3UKrAIg+FzSsCJEtD5AlwVlWISkyhAukAw8J5I2m8fNfFf/0GeK7+7pI6Z7DMzcxzHIdAwu0R0n7Ptfd7PwEkh+nzjmYTiDkgWggZYsb4gIDkTB0dQRBNj0OiwiiJKEEeZgoWQEyQUQ4UKEbMAgImIMhKIAoSw+vCusUOwrzJb4lgBMqglCmBSSC1WW1WqXutac5cBgSTOomWIJRCUalGs8IXSCXNVQh4sqcI4ChJPsrmQgSSSQoQRkSC1lNBig+R0YZcHEkiWpEB75A3msOTJ40ANpMSCXkRho7qG9Lil7fBEJmM8GmPMjJOMjRQjGrEn4nmqSyEE028IOCk4MncILQeAE5fYkRTU1eyrVCWwO5mjmIkyakLcliQGCFN0SDgOyQAIAIeorrsK+mbWov/rP8pzf3mvM7ted954+/dFJVl1iiYHYHCsFauGOqGwl8KDWI4YQp3AQniQd98arLxXxzGAICISp6xWkEFQOiMQ9OWDlE4UmCwPTTGFwwCE1jMAikHZMUs1vjBz2GKsuIkDAkHKLPuAMoGhAEIZBSDOdb3PghMSBxLEDGHVKeoIxF4c67jNSSeuTpAwBdgQQLlI65A0AxXHGsLt6c4ARg/CChDGULtsmMyij+xGShlDGULMIaoG4JGQks+QjIkwKc7QbEMcyqgDAmH3hBkYYCBkUQc0FpF5csXiw7oIz1SRyDkUOQpVO0QELATZSurDX4mwNOBMAxArMJJmxiHgHN6eRQaAOBvtiRqGs15+1+ql86/9keZ+Hr4G9cHosGUSK1yrhKnXqi/cAWwViW+hKa0OQZrdSas5kVJi6FSRV5Wbk0J3xjZRZauIInhMn66E49UJqheREmSIS6UAWM4qKViloSdFw6AzZhIJM4ShmqdXa4adc6BYmjEYkIaKBoSMCNhi7VFJqhNhAFuYhKAYhBakx3CuYnAgthiQYoxSqTUpTYFwWHchAkETEzoTBtAZ4bKZXo3DCqJEjGysqggMUb3g12q2SEoSVqAADKuRukiK4JVqvRZbbIEgWAQwBgKxXqW6ml0rvJhLT63RVeF1FVmG1CWMVIFOCqhCYjJxhKiLIkCwBAJgkxIFoMgCqe6+Vte1qroXoqUEl0rsEmlbNzXo4vyB5v59zFQwf2puTxVQqhobExYvZqNKJRSB+FD1Wt7TTTsni7jEa5VKG4p6TAbbtAw8x4YKIWyPCQgEEJBjA5ninD0Qx2E5MmYMmjVDjjLD3gECAEEHBOIkMAq2G/GejCfyUAacOA0oRBY8g4QJtK44BGxTMqxLAEwwhW6K5+TAHKjJVKzKKCgVIIXKqcYoJx7I21J7DJIN0T0mpKs6JsKF8FqcGXUlMmt1AuoSxCauPBx7MRz3BYFqULUEoRChr6C7ryQyrhYXAikUImIVIIKElFgYIJ/PgHY0T5Ln7ZmzbcQGjBaKHkHlBMiBLZVAiidVRRBpoBKUCBNgjMGMNftg4me8t4EJg8RV01YOu5A/0Nx/EfvP13v5b5n9PqCbCYhjogrOFmUMQ0aKRUaiN0obCAsOCENyzADBkk/VzPKgMGmYoIgkpkyAjFcmTAEMD0LCrCTFCMamghoAZkiThhBr1AelDGMAFw8AApyQxAhDSSdkCBAuTuGBygag0iMOCgGBbAttRrJZiK4nQA9lnDsOuT9f5WgNGSUXdwGJBJza6wDDFXIGJR4TiJKspAhgs6TBdHs7AI/Xap1k5gowTFv1vMtVc8elwDmNcuAOtQmAcuJhklqEk/RxIlRnArDwf/6YYSLaFdawzpCA2jzsA/yY0JWjZRBePIUJEwVskJYpHC5kJyKjOFXAkIHGZGQQAQgECCcdIcXDwubfXD+fvhfnX/vDuQR/0zpzfyRPcgQDBssQI5ygx2SEQpk+fUoTmLUbYE1GZUMBHBDSgIARkAEYkEE3nWA0BkCwgLDDOijNGZCgYmDB5eSYvHgmKzxh4U1IE5AFwiTpYaF85Z1CQHacAelCmCBiTESiKb4B0LuaJwIHFbhhn3kxFGOM4FTF375mEQE5qfVmHWlvwasBVg6b+zBlIEWgHNSuAYelUQUzKCGJwxq1AmACa9EuHDMBV3hOMQDbVCmbPuiDSOagCj5iHB5WSAmTuCaFCESfhMeNQFzHzNoxhVuD4JlhUyyERORzIFlNMJNUJe9zK1HlELbCqkM0ziw4qJCnQSYFGDVk5wREgNQwTjqA29Nn44N/vs63b13/7q9/qbl/j/aQjvrKOAANBjAWplWsq14FXPcpIQFLjUKlSCHMRDCEoRASrBhJCC1gXQ10QMBJWrZUxUAkgENAgBIYRYlaGvs5ghgOAc0ATEiAICXqFkFWUuvqQXsIh0JGdgkTeoZBwkmS1Iw70ahUsRRT2NmQAPZVQghaVawGiZPltJ1Jec/BbCCTnDPHgzonSUEKyGtSpnlqZRCUCITJYzgeJHiceZ4MO/v5SnDRi3Xm66ESE/AZz/MdxbIZGgHGz4FDH0glA64DOAkIWhwiE05ABKOemXBIentsrILl43N8kh1QSOgB54T72KnMc+wDjIsip24qqpKqmKtXC4JTjJg0qCAsggaeqczAJO3Eur7N6ur9P+4/ynPP/7bOh2/kvAfmgEaJZh2VnZXUnI9tRgQOl1mPMkIOwQ7tZGGXgGjIE3AZjnvq8kMYBYBteFRBaAqOGygw4JTNqHzIgYzjRQKdKQ+yYAE5AVUEmDmFpLvOhoAYihXCJEPsqMpxI+VTTsIuA738S3jPkHDHLTquDJ2CrUIh5Xl8FyfyMEZxgJIxtnolNlvlYBEOMTGTDsbdx8DotulHyyFDnybbPBCbc4DN8mri7L3vF+NrJ2IyoOs+UvDMO69ygLIJFQuToQIGrJnW0EICTMhklXXYn6wE1045pSS0D6q5FYxUGNRigIPmGahPQpoLGTYBSBYmihijUswxiQ5hJUSCUYcDT9QZADAz0l6sX56/u2v+41/+IM/l+9QzuYVTTOQQiMExcULFnkOAUrhqDmR7x3YkSkGgGlcFsYeoglBZqnDsRIXCQHFIGqSKNIJrEQMiIiDObAs8IdIO2PYeNKbIBFaByrEnkGZ1js1OAgQMRaAqIoFLYRASKgBRIQcaIwWzEILpytDhRA0DaoFjNngXjTRBdQOLq1n3qkK4ruwUQZAnKjoEqXLYPao5iwLE16Umq53rrvB1kQThhVkXEOIkay2idCCbYinA+wA03VldV6nL1cRM5nTMgIEPMXTQ6mCJtdOm7RnEScZAiSNVcTXvaoZUhAK7kEHbCKioW76IDSAAPR4PEhPBGHFSABibCZyEnowTVeAEsOJWhDrXX9Fcf/35l+zpT/B+PuYXFN4WkOBaplwYFIkIIFi584y/hk4fZIjr6vbsOAkdOmq5CbI8nNIeUwhYAtisUFUUp6+bhDnYUIo3T4TFSUrp5ZClxhSEtdwiRFa1ikATsUJOEhGSVGqQhCoACAlCadBJpEVeDavUa1gqVcJr2JZSNwSpiSqBPt2AFEBCs4iFQKyOJrwpkdcCUqX3LpODLrQOA6BvuVYzRLpICkZljjRJ6G0GABq8ErN4YhBBaaDG9LqF5RnWQubsPeDYk3KKpMnAIRPQMU6wwbC8J0LQDFfXiyCrQhfVyvFFx1QAMMg06SlVKD3OPm8JdojnRFMEAoKgx8DI4zB0jGJoJBVDhgSimiQATGmIi//1/kv2/vE8zM/c365kDHhYAq5CyCj2pDDFPl1XK+pgwQDA2aBqAeqkgSWnKJITiEeoFkNDjRQGAf1UAcfnFLBk0WFOQKyhqi2UKUFkmSRjkhUIQvlgbBREloqHhSQUlKICgGgECgRLI4IH1w5QS1Su9eYVAGC9CzEGAAGzD+SYwOAAhwZlkBk2EeJYWoXKuKlqEBIzACRkhFSRX+olOIZmBmJUFBagbYoZJ5nD1IS1OhaPySD0DHiGux2irnNYmRCJAZsxALzKh6sIV6psdVMCjC4UVLo1FUpuAPYKhn6Cg6hCjQsxPXYSokjMMOliQtvddCsJaac1abLK1QkgCYxDtlJiRACDQgRl137i3M3/5vzBmrf5/MVLUAEVM1LZXhDhQljJUNDD9gqWhzi47g9iQNyrDj6IdBGMApiwBXVM1JXgEses6+oQVRVcYLxTMwS47taw2sH4dWFQ0oWhOcNEtu2MJz6YUA5TQiVKFIgIYiqupSm5OBJwCJdQky9Ux8ee7Rmfc5DSVy3JLg8EybqKxJM2vDwgIQ4noLKCLqKS42RoXxd9EsJ1rvXeAXPSOMZ4zgASJ3Mynwdn7zmnEKQIiSDTjTMcU94qBIoicQJ0z6AqEDzoCICUkCoiQ0SYIEGFwQxhJ3RqQNi4wBzTzZl1hsnBFUZkoZ0dZIIAjM3zDkAICTtj9BiwFCr6giz//lgbAYcKgsb5IkjGSdlW9jPV+JNztf+7P2Dvr/+uP79//j5VV+NtshooKIYDhAqAJvax/PXOWGgQoBZEUZlgDzoqh7ovDQiUDACRqnAmwhzEk24HIKwqki+wPC5mbIYkMYWsGLapuOnYUZwAJ/3SkGMSOUI4bCDHwEwwO99mCFNkigHNuzuOj5tZ3KS6oMt1T4ZqeWrMDW3WsKnsKCvCZBCLQewdFDEoRj328z6G9hP1JAAoVizYM7BPznaSmdUgGxbqOpBBp1eY+axy2AlMT0yTTjeGc+BsKEldbEFK1o1DgAW4yGJIGwE8UzVBiDjbPMEZ15nojD1OhtxpZc+ZPaAdJkSgAOTVFRKATImxXi0CTAyQANsjEJNMHsIGYO82FYMJAOCMgvVtfFP5n5+/ZO+fwdX48H4hM4XomiVCGUmsNAPNxLWsuRttq5jxpM5bMKRSfWhIk5KHDBdQrKrlTAgImBEwg/FkItbSznIaXHk/fK0EOeBJxExkG1zXzb5YxVKRJMpmpUiKJMkxQglgxBS9GKG1ydjMTj9bVbYs6oprEQT31ICUeNCecsW2Wo111GpoCXXVHbAY9F2omm6baywktwZRZ0IZZKyOQPVHs6oxXMR6dXetkimMaPDiTfTqKyXS3SoZH+rrushiqcFndYS7UFVSrSXVglMCWRwCrCa5CdeqCEZKAJFaQlEiQZ9qCWYTw0kJTYkssarARkHkGlNSM2TWaiwBCYgh1xLUHiISLQ1LjKAGLnZHErvFKmopi5WvX7+1/vvnj8bU5ovdZ2NLJjyxgeazJD1BYl0aXnomly2EcSV7J8g5Q8CQyQDxe6IDHnucg2d8xqSwPop8KZZMkMrzZRpKEIPIMTQZ3QFgUsYHuqIzSdaCQN83ncUsNo4ycFiVpAKVq7v7xvQc3US4VNdL3ZhTVWS4zwXNQI11nxMYRPoKQFyLhbFn0oCOPVjxYREWVwj4+5TJUgHoSw0JBRJglUGlxrbQrURd71Tha/dWD9VI7nVaUGR0CXSdAYhVAchmg+K6SMt0WgI9nnCBfVUVcAK4OAl0X2aDgNVLQxbWDYimTAXXZdRqgkfXVRFxs5ZwLRMQpGpNWRRVAATFApDA5IgZI8pQhWIUFQAyDAsQIO7DOEIqlvg3b/68Gv/DH7D3y99hfqLOeoVAYmCqfTCTjAtCBETfrkt11ypLx5PRR1IlZJLAATAuaQ4uqYko1sRcklTt6qdW1FRYHhJM3zsMiGZ3DC0oRJIQKqFTOQCYIR40VZv22l7NGF06IzFO1bUCuLANvrQR1Krp7SpNAMHEOUUwxBGOWSxMJAoGJtdyCKJ5Xt2qWnwuRppayfGQJcAo4Uh+Bmj7ROmRJ5gNr1I5hsa5a708uxdYWVWs1LAzj/dOsrRAk+q5ijObQIYnMboqYCBbNqkDTXaSHYJC1aiIGRMKAQSttaqAsBahYndfLVVDXcALVaA8q6QyKmRVHMWsFMwhXSLAEVJNlVRdBIMKKwRNJoVQABEkTlAEAMLJ21rXN6b13+y/ZO/5B8737397vX+ifazEAWWhdFwE1R1foiLPoK6iT1WKRJVZAcOMz0HNGRhz9ol0HZOla7HEbbvoEw0h6qZLr/ACoteYVaMGV4ahnUCHlWOK4ehV6KTueqwesm4Ppap+1YhpVjUn2zOTIjQxEA8zyBxx7DTr/qlVV6cY1d0WQbC20ZRjqUfhx2pGcqFe46UNaOcShpiZ5Dhd0EXE4Gsd3EscSXetriKkWCs1u6uDmQWfciwp5C7yfSzNYDsJg/0wk3jPzNe4Ko0xk9pb6m1wzz6mQSAwQ1VSTAc0uyi7CCO2RxjyAPEA3vtggniSU/BzAIkuzaAwz+ZAPgcFDDAVEyAQ0Y4cxgEPEM2GKQ5EZOJJMGqHQRhY1CKni//9H7CHv+/Pc7/Ovs5+7yEVaFFadHNQ9LC7PqMMBG/urW6y6piYKSVVq0M1SViLIjz24u1t6uBMOQ0ItojGUYKYaoD2aqk/cgrmy1mo4MMQWYAOoyu8H/aCzRw1wNhg7JOoZDDOgKGTFA2QkCk2SabWuoKr44RwFRrFSA6KxxBZ17x1UZuvJwSet514sDeL59gscwPsmr2KiiSCIk/h3SV1gx0TahrNGleBhVVz5gKobc3xSLlaQGbAkrqkrr6U5FWdENiPkxDQXQr6KigNrIMOqAsJbLBNJEiMnLNRASPWCa0WSRBssJfYVatYXQym/s9CSiyxAWYNilUNR7oScIgALlajBBEh2AWApAl1Z8QVxzNEKBOfW+ryH7P3C39+Pnn5a0BSQXcys2ddIUGNeaj9pME5dVU1Blcdj1S8mG9VRJIDoKqAQgTw0un4iZpJBKgSJZHMVUsVE8V0iCCAjqvgUoFo+mrQCGYOEoBxMHE6BAbI3TkMVi9xVXWt67qbyGp1larkaVW11CzMTIgCTioFRBg3uAQMamvRQGTQ3Blp6fvVmVoIL/QqbdQdrA8TYjhaqoxVMCiQMAImVZdY1bzLaLKbwoZMHEUD1EuOhe7m3uFoRNSZk3m9CApk3eNUCGLKlat1C9LIh0Xhkkshe1W61N0rBVZzoZaK2gQJYVQCH4MIaQGjkvchAaoLImlRJMCABAYqBKikiQpFESTVFapIxqtFdVdI1MVkRJW4htX1R+Ma+PvXaBacW60jARrvY9SDO2CxooAl7e3r9uzheebcrhKywVr7+xmkwkqL3rNgkD5ii4tM1mKQIU0iTacJUSyJIA5zIl53SuNWBYgmNikK9qnm02KtqxUqLV1wjpYIjiMAAhG1zHgkxvGF9+6Q+2QAVBeO92QpIcFVEpVupC/pzMmiVAfrFpXr1+i+QGl112FLczfJ4TCsQk+DclcIORwC20DnwA4SH27PNLeTttXV3xh5ZwgUklWFZlVculskcraBrsPsnVCcEpNMsRVS3SnKUGyWSAfwkGUInnEB2UPENhGSsFUMQpLWbTjFEAMARCgKNAOSBRWF6ZqqgksQSZCCAIhkKBBIkICCxLjnZPX2erH53z5/xN6gzsbrwhlUXXNqLUHVTjd6ktcI/SLKRPuIHrVgFz390SmcasgSa1DgxavXl3+yAPXCOdUtMAOtdruqCwYBEv7Vd0upCnKOScaJ2XEwGRuXpBPDJQIqOkblEbtLBaevpvIIqKVgfEOCCC2k4QIYBosqvgqLX6xOAk8sujolIcGqtE5JLVLgUSCRVV60Bd7vN8v0ljxl5oSK40NsIXWIhOUv8gQEYLZ0zKybBJpkcMlYVVJOImEsvqviXk6Q5lqaCZrLibuI3RVNzBMR8dnjbbPgM0A0Lnk7SVAId9giR4C7sE8BIUEkKNkQiWRmhgzl2IEZ0gASO4muEAEiBgiCQsAYSGx7qLEHmCeR6OSl9y2p9N/+geb+c9jPc/dtVsinrs4A4+t6+6dJm8JV74akysK5vKX0IpIwXHq7SMZNwxStWjY1aFepSvFqnHRQtYjqUpfUpTn7/UyVkwcAmbNmqtSsJq+r19UgxHFfriUE3UgGmiOVEhpkMZONRRqeM6sLRLirZ6NlUWJmuMQgzVl8du0zByWdWtuseLMN4RmT2HvmbILSPj7QeU+Yc3iOEYsH63N3ZKuWBKh4nsMZ8N1igVUscrqqVpH7iGqP8jZzzoGLHkXwpSMnxWxXkYD2hhHk7UUFhYKCWspMJTZUtC5UjTgco2CqWRQWollFEFJRxHE3JURgqGRUwNk4p1sCGZAqXRQRQcRSClJsE6aJLXIXkTDmRAYBkrHCYlBAtT6fElR/OKb2tylfXPf/NveMErZH5KC0P/z+KDVPOLNdr67iruJdlTphSN6egDCFcNlXqOCkWHchcyxPNdBIfHZrT2EmOSV/T7DrYwnEWSoDrUpEJoxIUbr66rVauMkCjZkRAFyqQe2NM6HPQVWAwLNt7E0yp7Kj4ylkb1WHMOnvR1VJoKJaFZnC2WYCayZsAOhaLVWzSqpU0QFHfV3FmASqBEgEqBYQNNY+dSnWTpwzM6RDYsASEtQxCKq4OpNLqjDQrAI4RjAH9BFElLZv8ZDjcSnAEGZUWjx68eCwFIANCyQtYpEqBMcSQVpEBRnQnHGUEtkS+7pKJAGRAgkUhFQXQnUOq6ShkllCmkiIiF1USxQDkBUGBqT5n/ztua35X/5Ac79VHey9iZlMZnxeq6gr/umsXvLXMxvrT91TqKpg5ewYAUKmdFiZLOmqugtM+lqLlOrWxqqyqGapX5f49sz15++NW1+57/n4KDxTw9G8eYm1Kp0zZDwPbCaOCS8PArtUJW5coa7NG74C1AXE1pzuW2KWWFHth1zjRda1WBcFVqsLWIU5tbREogifdalK92I3JS4RhMjxFAn46GbS4JyWKlyUoplGFxMWpH6tV7WaD8wPslQGGf/GegRgohZg4p2oEOAcpFYFhVoxpKrurqL0czPN3rMUBYhTDGrViQo5J6ywoB/mmxKJvAfpWgBINpGBnJzJUrXQsokoQ8QAAJADJwHCscmMRIFkoSTmCMlEA5shHRcRE4gDAbbIj/qYFv5oPPdPL5ZefLwPVUu4SnyOdNWZswDrWiHftZ+n6l0FDUkAha+WUatLpAqgtxSkmo19pOG9IDIiGc5ZwfVx3cfzRj29QMmohqf8ucNVzsQbnjWsBOEJQOK0UAmOWsvncHlnHzTU2EkqabptMF3EFByhVk/WBeynrB6Tg3EhyA5ortiQZ0ZdEODMFAOY+6sEJBkspPPmYsgqEBDTxGcLjxELYGQI2MMkkUVdBiONJzz04c7ewxGDM+JA1Nle43YxD4yQQGQXz2TvY098ZgJvnzf77ExYlgbxgc0x98Q5IxzQ8nB/7YmkwGEV9tgoiCOmL89JzsyePdM5FsQifSQgghRLDCQgAGERBEEgRCSKMUHlYIwJz44yk8nfcj/vvkp/5Pf+0Wu/52B/KKQcnDFFfsBf22j8qp9Erev05xnVI0Xpl+Y8aHXQYM9mPMc5GyCDM2mSolScd0TZC2f2yPn8Sq8slTNugMNq5nr5Dr5/UjvN/jIypJBocyA8apCoCcZXU9EaFncVc6hpIKyWKyn+uFRprVJXYUgDCNvPxIV01yIilQpqiSUgJFGLKRgXAy51y4AkMMRIXQR4DvrOc13SPJ9VtJGYTCmDLgEIvLkAooucsVRdq5wqVFdXsTpRBdw2dxSedVULi4f3WglANql1XQvpxZasmA1qdJUG1QDXyvTNsvRi3feqqERJAal1VRaqqjEzq6FL6qsX3F2X5KhYYIklqkqJJAESUQLFlFCyKAokEyJBx0VWFy1xlSZdKvxR/94/gAyyeX+0GPpMvENKnzUJlj9Hl3bVeX3gpbPXTMPM4PVToRaBagXP6YNV6gLKqezMM2+XHKSYAI5Q86vX6+5I2c9cOzj0VtJfZ97P5Lq0SNYqbKKS3o9dioJkGqOcYgI5hMRkqsrISAEkFG2IRYOE8pDnSAAghUDTBa8FXhdBSy4JBkWHrGic93RrTyNgXHlmQKNAFINzYBHhDT/n8tRNUlUAmahFwHMkmMKcxQRCLdWJgEAj5hjknk012V0z0OKuchGT1SSKHSiQSRVBFkFUMwFVlS7RfJXFboRFF1xioJYNjJMInjpvYAC46QAiJSDYBAJEZRYYzEQeOwTHDHLA2LYnxwSYMGQCE4gAFgzP+FrZbFbXH+W5f580RxuvEA6NCyxNHieqcjpvSK3oJXCSrOxaul8FUDQFTop9rQ5VgYvo4y519dpGFgwDrKtq+/rTI7DmfN/7Z7NY8LqvmpMWgX3K2LuFmmoIz8FZfdwFUlKiQoL5ChiYrIaU1hElsRSACBKKaYU8Z6JGRANQqdrvTF3xFMrnechwIhtAshlUAVABZIbF5EIwIE/R7IRl1bmWOOlVph0gec72zJwzqDaZxmFjpzgAZyxycq/qtML1f2rVeDxV5MgtQ6FZwbaQ4lWqxRNA4gxrkaxSSbtRS6WMMOmT8qpw3gGLPlHRlkSwyrVaKFYDaqkKCUy1JyBiygENAAm7JAAUbfJk0iK5VKIEKCQLboaqAbj9XhyXhl34H58/el4jv75w1vepoZOSIyLzBNI5AILxOlWJyfe4+j0CLBCA5U182bNOAPHrKQDnFEhyNWAf87BhzNce8vOdZ6UqWEFBelBA+HF/3LWunZ6vPcoR2vWjmxyiN4HLIAtxqLX6Wt1xCNVCiRQsTKo6pW6KIST0qgiUxI6IFotAYiagA8khHZAVuLV987mK5C52D1pa4B2rHYVdt0A7CMtTcQVdEq/r1WKz7xuAvthEF6vAUlob6PZ0UpjTtO/XVVqdtY67akZ4crIYlkqiWIMQbHrXtjpKEDDYwxA+yQRmzlXpKeQEaj67iIpEwSQIMmHAkyrCiA27BBIsppgQRQECWxRBlhiG1UWRKkhAAgAYI5CDgCD+N/6pcY5u+uuF//nrD/wez6x5PfOTPRCTZVMsFbXuuydVwnDDh1BFvb69RnkgBLaIBZ83kjsWouHK1c+XScnCgRnHZ/P79FpxCntUpUWfYlzwBFUzJK/+mqtmoqSQWuUUwNKoQXetAotEYw8q0GyIFRTjMCMBiAAZ2ifwVMPiWUUK7U/N85kSMgMIw7UKYiFSNd1XBUiO379cFUKYBKAaq1Qlk95JNQsW6+7sBfaQYBVRvWRCKqwO2mxBnOpRM4e+YQFKYbsrFLEWgq1v92XnIuG83+9TRQXrPEmAblhNBmB49iaXYaNYDDsCOTFSReHL6qVUgRjSthNTCQhmkglIimIIFEsTESHSJAHECKHEoIAggEczjEPDKKikEEo4/cHHr8b4Ws0/nL8H+3Sf07ksDTmGeLVZtrscwWgVJsFyteBTqy7JQAniKncLTIxamm28k3MtzzNngykJ3L1KBhBUp3xsWHXO+76QdxTuXVWDm+C9iDpf2t9nDrD3z9/Ou359bkQkQK6uHA4yURd5LJDOe3dVYAdiGFILJll/DhgeGOoyu8C+6qoYvknoMCGq5mwiRuCs68ajLruh92opEUO5q5KaFnsZZHW3UrQBTyKCrmOEiKRqAkal4ulaBzqPvi7SZHugBBhTqwVS6lWHVAcz8HtTLRv7OFcFACtk8XXxJMFdxHjVLIZAqZSW0RWD4E4gg0WLVaYQJgEMMoIAqmKCMiMmgTAQiQSwZRmwSRFnBFMIVAkJxjNBDEtZ3Ue3xP/6/FGuMf/ba/11n65XP0EACQFwtngbL5g9UqHvDpEc2DYsLrjWRcRbq6uqbghcSv106y4upIOuqgC/3vesXmQepD6urnm2w0eLmedy6eute95234qHZ3/7qdf5mm+1W1ev9Znk83M+p8BQUnev3sAjPGcGkJoPcnbQK48RERwf2sha3kDTCNiFEx5E+aU0kyFDIcgYparqe92lJikVp12tPIaPYxFYDZmMZxwxBIHATiaZdzJPZO+OIR+pwGac/bqvspdKjt99FdPBXVTlF+i0hJlzBKJEdt8MKMlSCkgiBUMtsVhII8gpTSmZdXVUYlK0GvGoopBENaKgBKpIlEiJMRAOg1gkC4SaohgQQEBEOYoxjFBKCpGDJH6Y46DpVYMqHSyw+D/sP4r35teXT29yv2G4VK3IqXXX+80kbzyvywRUUHOJ9X8SLwFkyGQKiOUMyIouCGZpDu/scTqvb0iGQpWKfd4UuoobOObyIiCumVaMfmbdqpYa9XxP5Gno49v9mkg5uyphBqGAsXLmdcxJdYlVvaIuxAKdVRuqghZoR9xajJjBMdeiAQrqckkCFVP92/zOi9tLFDsTAFBIWLDHqoTqw4w8EROhMADBoCpiCdBhy93JBtUVgdLqE6KJJe2gGJeq+/wKdsvdaGFdoqq7qxtaSw1yPDz7nONsH6oINVMDkCKTgThoEpKBxamwI4SRkgLFILAYJASosJsUSiIFYkIRZBgWSbCiBhCDAQzSUBKQYFUY0i4aZxqt/I/7D9bEKO/0pRcUkGGSiT1mulSZX56uQ0pDBkQrmLRSdcgTEawKpLAIjUSeea5V72cN1tm83gxfHGBSOLnmJBa/XVW8eKilYnzFp1/1KtLbe4tfM4fX1YJfCyRRrq4WkoshwEDCx4Ve67pY2CJYzydRElHZxNfptThJGpTApXAsGq8KxXAVOZ6hqH0YGOMzInWe5734fi4pLHZPZRVZJMWUE7VYAQYYBW5llQiwEFDNUiAGSaKqr6/2tJQ5D4ics3nGkznnoJoUckxWumIJ8/U8lf1WiCBAZDDViRfhFkoxagBAW7BpTDQO4ASOkiSAgwSe2JMkBOjQAJUAJCYzMwcwMBSFkZJAtqqKlEiSAskSqSKK5AFZPKvGynRRf9i/9/fh/et6pnHtAQEhA2GZ9JmYS+Pf+vT8SIAzUMEgHamQoBC2gKWpftq+zjAmqoU2Sx7Fax+J06KQn8tjThVVmkbJpKdsYU/Dr29XaXFag0uvAs8Xw+0Bd+C3aWEOGlGOu0O4rSICqYq2SWJxFXyiJjmOxKjKU/4yWxgQECXKkbu7pZKAJa10z5tX1f5FB23B5NCGBagFrkoq5xSsPVycRYGCiiNECuAo0dlJoFqL37/Ibuhi6XCekwfreR8rE3ajCYA6m3ZXLwmJK+NDhE0B+THYDAkJHVEgAoITHRzrCKiCCYMSqAIEKURF1asICSWwigQpja6qukpdKuI3vCRWUwAlSaQoRiQJkSVQJRKk6lriedfC//L+I83VQOv7nRMA3AFgRzRJ41rrujurx3WwPDUzjwoEVDOeyVfVSYNGJEPBy2++f5mfL1XXECM1RD8zWdMd86PXVbPHJCb6AsMAO3DnyEoXW0g1YqG630MdN3L3Qq6bQ7/z3j35CmOchGFCYyD40HEQlaockBOHxRAngEqv1n6rO6whPYFy6TcUTbKUYPUttXFdX2eVzwAU9hcJKGEUx0h6uFZgFrlB2DzoAPgMmFEGJp8TqNBVcwy5SmGj1n28uvvtdOaLyQMKRW9he76ewkF1SQDBNSkB9HATsQ9jDBK0aC2yiSILBAQElWoaGjAUq4pQi3QQJhIm5gwNAQgAAEyAhPlt68SEwwQOEmQAz4BzoCTZJO9Aqj8/3/q/2X/AHubPytXXJ1WhXxjUcoo61Sgz4+5QRRU2kblvkUvBcVhB92E0Q5Kcw/OqB+dafr+tzNvuJovl4q7nZPHpMoOr+yJUvfKkMRB0X/h6WJKbgRtJ0ILU9+WnVy8nSgSe4bouyse6mWzfxxIKdUlQGXRUZVMyfQLZE1pJUgUInUhM6AGrMD46IEI4OFNjlt7O5+6XCFL5qsm6OpmMCG81S6ASFBN4MEHorCg+EVEEBGreY25HjSoKVLbIT4SL98e1Vq/Vqqod1ed+cahqzFpIL4wBNqiEVSlKKQi8llRQLV0tsUh0o1sQwwhEytvmLh4KIyaiE5AugABJgU2CDCkQEVzKMewgMaAYW3IqQSCGTMgASLYDyN//nL/xt2998T/DH/1Pq/O5vj2nSuMxx6zW+ibf+/R6pmx/T+mo/P51HCF4G8CYeFICJeGw7PfJQa4FKOe1ju1seHRVP55mXqgMuZbxfvIMA4FVXatw9uejwtXen1/EZuMA97qvmi+brSqOMc/bhWib7aLAcmesvs7gWoIwxgR4TFRPZjAtXuzqhuRhsoqOyDSH4gCogvKJpscAIbJRjrNmvcoQOIJefVAB5R3pGMqeNDF7Nkhid7OkKDH7fV6CVSxRda08VZV94Dkhumygrkxw9pQcsoS1mi0cgEypC02IMKSZMoQWRYokfBwYouEBqDgMmA0jKKdoRqSWQgKZuAbIWFRJYEs4XWCGBMkBgZBUiBJLDAASIikAhBiGlDRyOAYrm/u9e4ls/Vf4I83dtzC9sA1C1YmJMQ/0+qjrpfSd6KJoxccCGb8PPM2hDzNxguwpMUtf9q7aedXke9rKl3IOGnqtIz4fSxo3rwqzjzxoYN2dypw3OlxrKfOlV+OwUNc8nygQaaScAri41GM9+0h4ZvaomHjOcwwpvoUCMlsnXZjMe7yR2CS5Qcwg8CYpVcVMtf1+HoSIShkBBE1y3s8cAUbxC40HNYZV8xBcQq3GlCiIwlQT3n3UzPwf6cKhe/XqVldXY5f4524WW7uua+mcUIM8B4wRiKaSSQ4zMFnwAwQIgv32IBhOqxG2mBLSJYgTQxKYAIDZGRBjgCHAeDyGj+ckyGTAmQlC+pAIguxDGhkqjnhYMYsISCBjT4KEiRCF76n1J+xrd0X/9R+w93fzfN+v0poZDwE4LB+bbIc4b0MzfQVRXR8sBBCL5NeGPNPAlqzu6q7X2kCw9FqAya61w/m8XqdF7e/9sTwasAvFLpDvfbN43nfrdV91Dut14XMXqn3+5ntlBrXk81mBSiVucTVzdL776JvQwWpdkgeju0mFXVU8eYoX7PEZRlXDq5g8sxQvYSCEoIFkGLT6boQxhUG1Qxhd7I3QuzyipsgrvciCAI4JtBWATqIdlQrsiwHVWSSe728SBsjUVVIrtkAVQ3QXuPwFr0KJbuBiCWgpUEtGebobOVpR6Udn+3DBBSoRAoghmQT7i8qZiCARHGGIkAaoVSoyFKNiIJGqAlUASbh6UKxCAAqMRMIWSZAg5YSIKIiJZFR/FKDhf/sH7P2DtA/q+cCOQTuhbJUuZT5n9jWpvrKl6P2s++p+nqrZXK+eTFJyKsDXNN5pil3IW/JFl5xxS9QKY4jwKMQ1IRRV1+rkBJ87330ihRkdpddSRsrZ0g7Zz57Hex+fVEk2nL7vFdlqaAUxoGIHmkfcnndWd5ExZ60GBHVVQTpoPm+xKkwk8zyLBZokpaqhmkUUuRqTrKvBzglLhIm7YIer8H3npEE1DtAiugLhK0sP+pKE8KEyIoL9hBnAKmgSRwKgk0XiRhjmFKEYaUmiAWgSFlegq5GWrCrxeTZtm3UG4sF5co7isBgfLK4LSEisZgi1SlkXSUpQiuAsUWKJpEhS5S5IqKZAMoAAChABhhQLRSWoGmBEk5nXr37x+xf/xz9g77/9B/juge85w4QEZKTqOAYwlcJBiSLY2PJEF0f1vOU3WvMdwMCzL3I+fz0EJnjdBLBunNz36Zf+xv3pT64+xxe6t/IcH1Op7l6ee+WuGT8KG/NO/H6A1ULKo5luZz8DGU3FE1UTexiqsZUHCokwgWdEAFdFdRQTTdaQKD+ZCAcOCqXYAz8JXDEiPiSLIzzvUzBgxVpBLWUVbjgACARd1RFqFdldp0ggAUEyp1TzBD5WdzzrWuTS15CLKgXF4dKUMAFqUlhVpWK6Iu9CQIIsElMlMW8js2cQxw6JXoEIwex5K491LXSpiavviwkmIoBMQHYpwhCZ8XAOVWe8U2cMOiFsAEKIIA6cCJEhJGQSAiHDiVEyQKJCzY29mLr5+YfPqeGv+9uRjiOAAJDiPmN5VACYM88sYfbBtX/N7KkG+uvwdVcCvuS39Sqm+06Ct19NNiHl0pNL4sGZ0F/Pifhc+8+Zq94RSxhBYDZK4NX36otGlNje1RCCeq+G+r4vv72gOu/HnhOjszPP4fPcSsHv4JwMI0PgHIxDBud5P4U5yeQIKXXCIkOzwaMu1CoUGAJ0/ADvYZTzTqrsPSkpzamswEMgPifFrgkcTmmAAVDAqCmdGNWhgpJmUewODexUyCaInmAmz7YMJEhxRNOBua1AgEgEAYj3qSuVL4N5Ngk+v+qagG/fOz85NJLEkK22iaIBBaVpAUZAVamqKi2hSkBRBKSAMewTi4gxNOIoIRMGBiFhQPhg4hzLKF6rXhrslT/9T3+53jL+5f/1+Xnsn/begKEhzAQMsOuCyGHP+XmNn0r1kTP8Cc48oxcmifA65s5aJxCPoiT7JV94owbPrIK+dHk/nZ/4FKbn6QDIlTO6AGZXEZpYbJyBWHh+qbveuZ+aL931LBw0zutdva1lQqfrvHkxFeOaL5s3sbNG2iO56p2fmDTO27X4yRK0FywWcCCGQdkIe0gASbxzrsu/3jccXMl4NY6UKIGlwOerruDygRyUAatIxhZGnk3ad1U+pYHVnGLl3HLFFHP6jCOwNhj2RPO+hLnPQStkA/DOSGDhuGsj8pMugrie9w2Ps/jg9YScYBVyHWDAkwtP23zVnmnWIIubgSo8wqmgcAo2VCYzMsiQIISACUgSg9DUIb7WIofACQohBrU3Q4RGcj4Gry/+ROf8V3+w3jL+ATzU17527CQG1IZEIKXYOGaE8x5nbKr7vhvZk775iEiC0MLDV3uz4OJx5DzbyfFwnoMz5/nqpUDrmQJRSxL4dvf77czEhPH17P1OJsnCQyVrMfS12kgEae13z/A6X+/zpQ+4Xzh0UJgJWNxN4SrkWiXdlUp0cvcs3ZRmg0E+rTpboUcEGNKTgByXsOzq1fDzN2+c07cCMTnvs9+McXYHyZkhg20hQJ3Slpz23jFe3DlsG1ilIsZ53mQCz7COmwU1T10ybnEtAG1cRLRPHWeCWiG+fkXl7VSg2DgHHmCMXDpG4lmXkjOWDcJJzkWVhZAmAI5pAD5hhnkOfFikGE7kh4uWiOTY0ySLTBQgZ4pYxXiCuAhC9MaoSTC19IT6+vX1J6Vf/p/OX/q9f/Dv9f/wLf76W9+eJAGAJnfImDIQNClyTFU1yCH0HM/g/vg8BYiTBnCO74/3qV6H+5K5d62vV5696pDeGpd0b954VvlrSj2oUPI7dw5wZZ+KGzpPXZgIAFuZYnB4ZY5ru1cuv3u/XdbrpIyXPVMoOrW+3qG//XSerpkak3dtf35r0WdnlopOrEt+Ls6nCxaiHgdKnXc3ygsW8ixOAqi4xqdCZvarNyrXOao9MEtBnxQAtY8yVAV2tR9KYqL45OKhvtz9dD+DjijCg+d8q4ngUNOam7M1C59dJIDy3sESQgShrYFLTnL5COmJfHceF4gAU/isy0doDBFUAvUwMIwRwF47oh4SVAVPIMo53TBjZXfHIp/WyEYqoWpAa1wEgOIMzDWmQfwyOqf+9E3utf/DP5g7+jd/9+cv6Pf5qbaBhFFTctbVqVY1SZ8xoDRnq8ewWKX6BvaqHuRbbVgXm8NaZ74+J8dRQ3iiUhUwI2plU/QT67zrmX0Q+ikKYZvYRrFW85g9g0TrnOwzcw4mgMGb2bN89v2htdq5Ltx6K6agn7GHkwU8X/Qb11l5ssTBfhuz2WwtWuw1GsmfaSo+4EzVRaCtjvepyvN9pr5dl3hxfPbVqEat6vbhqjJx3V1FlldH2cnpAI8ygXwSwYcYwCnU5Vodt85qhtjvA25218H+cn2lq0+JZBXUAhkrtNdFFkRmm8pwzh4Ze5v5OoQ6z+hE43HgndoA1jiT0M8cz+Ee0imjCgnpRWoAe1K6m4NqAOxyiCsGZNjPNPOQLoKYmAkSAACicYScvRom2XNW9397/pK9v/XvOLeu8csqByQAGMoEDEfLYcjX/Y1vp+UqWQSvBV6qKmcTdjhZHzdmLR2g+Zn9NJLrVtVuDFSc6HUfXiXPdS9cKC096B2e8wU/ic/Jc6YkJavu9j6omZBIVvhgvc/Sl5vVe+PWvDPzGK977OOTvL6J64aKrNML+Katatx6Uxob441RnrN9TtqOmuH1au66VnQFvUCgrldpRkcLzroYIl7j8uHysbvOoazARB5322udQ7vmoaL2kSR/RWDO9vOGsWYtGci6NEaeaM1cAl5dezSOE2A26mRvjKU4zESu40qAEcym+dGBDR3bOJs5lkARAmEIw44o4mIV4SRuAjlj03GcuFozKbWYGSAORYPIHpYGTokNEEI1RUPjeZvchulBjAW8rtwS/4i96+8gZvD+q/OZMAgQJoAgFtWasBh6H3B2nv3pGiEDTJ1oBp2de31cc+s7/Z465v2hq89V4s0DFgZaVKtvl80yvB9CK59nwsXN0Rp+ky6wtkuzc4Gfb+70TEIfimtOORhQHzWfB/3eYajrHOid1bsuMl+7XhyCzhynmJSJPd5bhAqDrkiV14ThS6uNu98PZfNcVUvL7/pcwuwcdp1fJs1DHMzB85UOApKPxQwsjXuJ6CW1cK9uylccTpTGMfF8yWf1ShowSXRLx6upYPGUZu9S3F04FZIh7HGI4ckcrGyglvq6WKvq/uh1da/0kqxYZ9Idgx3UuLbRmepOId5jra4CyS4JIavZVCmBisFMEgMMmsxYdS1mQbryVu0Tx1GohJmUisYByBa/9aweLv6d/81fxnv/0p+furR//RO/DgcoGyEZST6EiB3CjkoNnArvz0daI96VfTZVo9MXeFqFg/bzrAlW/82frudt1WEdhEXkXDU1c7wS2YHgboO7upT9hVbhXvMZxe8Xsku58Rm7l33Y+/auaBfDsHd1zzOS3QycsL/5eQev3meua0tP7UMWym5rSjRYfY6nrsMwQN2P8Bz1idQPd917GULtpxaGFqiME6A6x30yd0NDfFWn349YzTdvFcLKVhrYJsXMM4qXOjaI6UU/JWuO5TV7jdbRos5+s6eilbHWjNyBo/HaXhxaKGOUYHo5I5i1PIOEMgjGFReiyGiqMu9CQlQ9uZYfl1oOYU6AEbCQTEoYJmWAARuJg66DAXsC8qAyRiqD1WUYxRl43znwimBDAqm7y//qX/q9/+YfrK/o4c1xEjIAwagUFm2HWpGq4H0mUgHRT7ax8vDGaWOtmgMUUnZwUCuTh1dYs+61p6t84A3vKuo68PXKWuwadLyXcH4dnqV5fP4PZxcM+8VVzXdyX5CjfRpOkvypd9ETao6TMfsMosP5+jpI4enyMO51VM3qJsQdZZh5tk8EXCqJMwKyhY3iIK6ZOfMcbFezwfp6v7cnhOF3rkrl9ozmRBef8CQ+VMwg75NACRLjAOkeK8d6vtgzy97pmup5qmcMNsehT8vVqHkP433wNgT5Ce9vd9K4TA0bhOHtgzGrcY7TaE1helkzwGgBL8zITqUA4oSkUXjvM/HEBzOx58yMfCQ4BGEMczQhNm0QQjIGEFKXUlV3e4LK2Iw5O47lgM2DK7WU/+n8BXv4h+A19z3RRBJDgsXuY2AyoTEGrjXsC4h5wiTr55/enwdPiq9l5PpWxH4k7jf6nOLzc2Xkty1KS7u0Uma+eOV8u3YO0N9eV6ieuQIsXy9SaEmo4ovZmPM8WTS4rSliaS5l+XxgFF1XLfiYnZg0l4OAnpxJac5MpqvkuUphyyOh77qaop5SlwoEVl+L50Ff8p/69e2jnkU2z9EhuxcZXSv3XW7AEy64VFT3ur59uxV1wag2auWXr55nad57xFnVgyW152BMKPDRWqtdWpdeFxN2SRB6+dRdq+tuMFN6dg/EoAqjerBSEgAtffCEWuUcJuu4nbkWYcIEs/ecNooO1aI0ByAKiMF+pXQtUFcjKXX6KhGpCnNaIFEMIIVgA/SuXDWfUeJRoKBYzMVhaXnflSrmvzt/MK5xrM/76yuXHCYKEQdjw2iKVQ2SOKxccM7M6vB8Au8FIr2onLNFym6xmaJfH4tvJPVqKIBZF/vM1XVsfbiGe/x8P9myjLWQwJOQtglkHwDiK6JyypRZpgS7zrwnRPycQXUxF7l0qJlSrasjizlIMzOJQzt1g6X2dcnHzfP4WyUosEsEVgPp/euVSiR1NYt6auUIjwrjSbmxPpqAP5Y64+MOqBEDI/sTmlqY1E1eVaCtVbsucDG3pL3XpWsJ6CtvvpHH9WyLqwPqJKP3yd7H4KT3k+znjMd8vJjEuejZ5znX8n6DcIC81oXKjG1PkHMO5aFPYvuMj1WWghnViRByosl5BOM9+foaRXmfGVgdmGdwYAPPnjkPE84X6jiTOAbSbXkDmLmapIr5z/8y3vtb/9Hzy+Ts18cbE6AzQqJV/T1pPSOhPbRwEgLMqQtGT9VGX0i2rgC7Fx9MrrWRhV/5jfO/siBDxRecsOZ76vZZc6rB8eAa4tDyblBPilg8etBw+h2uVXyP5SEDqEa1Ga4Dg1E7OFgDTvUBJmElYNXah4FUlTM3H9VMWOW6DSEm3sRbGhFzd8QNufk1fU6+0QRCwJUwNWesF95emQ9YDc3kpEEGENoxEPB07+wvXL1IGFnAYR1wvl43dxRASU51QLxfx5iTq2wYOFkKXF78rNgDiZXcc07B9AghaRPVu2HYZPHNBUIMYZ5EMlPJlYmbxY1iktNrm3KUs2qXnptTb5Rz71TZSvoMFgl6qo06QJ6l91IUIj3IkbMMVYKzcEKjhjmp4Pr4Iqtv+V/5S/bwL+y/ycL70rGONBUMYazeJ0gUsokn/Hjp+7EF1R4FIUhntY86mklIBKlz1fvKLGdDt98xXwxGL+KcQJqJSI5OgeT5xiB6rMMJZvExC/PSM+w6pguWdQpDaPkEBmVw5QCAhuXSU9/wZaimfJ0EXrjxhlXy2Yu5GPaONgpsnDqlHc916tq1hjQHXif0kzrG4gRdXDPhRGtm8y6HSsAx5nK1YBRmQmYHvXOdr7z4tJgSZ6tw5Dl3+eBDXcnzdn+TgzoHwaBcZM2eSikIa5+FJ5ow7e6HhuJRHcuBBM8L+nKbsSTcfNYw9kQEMJIvPt3MqUZwBmwcgAycFY3V2ct2CwIjMBExCcCQYfswgnLKaAGnpHN6cw07BiTPTs1Rcw/K9XHW+Hpp/lX8geb+b//buh5PLrCX3K6oLZxxSCbQ5Rmp1dLr2v74ebk46yduVHzEISYmSiRqXTpGVQ6lzG6qzk4UvLcYiBF46GIDym7N2KfatluFtHg15/QikBbUvG98Az8ujQMCV7+IVydpI60BXy8SpwTqWuT1qpY+famv9kER4D46SEoZek5MzvMscqBM/EXGgeJHl7oBcTl7XRBZ4xJebWHzzAMdozNmnINMdzFzr+096nW1l2EXD4Rw399ks8p4vwPzKvL5nEcgUXrPrYdUq0gAtLxBloiGT9TCA4RA3UsSbdAnXaCru+iHex8ilBixINphIwgzdrh4qowerwVcfbVZ1WuhulqElwwmEATWjB1vIQHDDM9QtD1sT7htYp/Zx0crj0Frzfj90YX8V3+0zrx/LUz+ypB9dkwgCZwGWCRFj5s4X9+/zhx8y9tz6io1Dy7w7JyThba7xSSMzmMy0FpdQPWq+1oNTV7z7jV1UmMKY6xrxnsP5nFCg3VdklxXmx9w94nis0/P8pGrD66KZ86oSXYVEAWYkyjGmRbonC+2zuy3OPCZM/VYx4A5UxqbGp7hfug5uf0WNV/vyatW51X7JmFGftf7+My8AsZ2Ep7wvc+MfeZ8fRkHMYLrQnWfd9sHmFTl+8DcBwlN5eI8p+VdXSRRl6SP6rwhQmd7P1+G44nVhNgqzBNAdbVhIFHXiRkjKfjxDFL3unoBHuSAowiWUwNHyUTTyIlWyIkSYGksYJ72Ng89Z9ekuU9YHnDR22pWyPeTeb99Zg8SPEqetEwqezvBIn4536BWfrBH/C65+Pzrb3zyV0+UTW8pwsAAmYTEyjHjEs0ef3vvXBUT1pVToL9GbM4Ia1JrHLjghXFy1dPyAlwV5jGRmmAvABKP6yp+HgsaFHQOWDyJJdSs4YXjWQgSwqp6IySZHSIgE1xzgKveaPkYYrB+yjx67ROerr3qiQ60co7sdT+zULsK0N5VnT9LH6G/9HGKZ397O9o1/a2YnfGF/cG9s2CksOfneuNd+cLyCEWdo8sUTmU+GO6u75ZzwRrq7CYtCnZ31N/5zjrrTpaIzdrT/ezLkrcJnFxPruLBsXSSrpUnsy5Y76hY9chTbyngYcOJwY/x/ylXzh7ctBYMjqRA2AXlhFyFExrhYPXJ6ZpHK1AJD4iigYBpzkQG9qOP5nxNOcKFhJ6LkYbKBMghEIiUv/318/de9H/yv/zBWkD/y+dP1zbZcxCgKJEoIh4A8DwuQsQGTnACIx6oDrZQZNfqIkM4AlVIH31UKOqMqo3x9X5D5FVu/fTRYviyLe73eeOU3OSqw8KYL5ABmLH3GV1P2+AxR0KXOJkkuoyVSN1gmT/zulZrYZJ6ZgnMvLM+Og9AaVS4q1qznZPSrkpdeFPF2fM+pc0TJPz4JpWyx7PAKy6hVgc6m3ijB4fXulxL1wsmuxTkaHlmfz3bD8p9OTtUeHhB4EmKD9dTe1+vwvN8vucdejvKr1vueeeqJ6XxRdFNOYoYmruz8z5gzXuQZzjTHsJd0FWsxfBrMiGg1an2jCcJR8zDlElVxQZTiELBUPe6ulSigVSUE/bZAroFmtWLzuNXJ3UVRFEKYgAEQFVJPajCa5KPYv7r/ZfPCuVX/YRTrzm0IyQFY9UBSlJMAhWJEFCkw1qIABbAouoIrwbraooSZs8lZgDe4u4aH3x86IE124v7Pbtflc1Gl5mVaz3nXC3yXnxRBRzedQgBg7qLWfW6L4LwqB31UjkSepXwRGbp7FqLpW+yrYU/z3Vfr5xfQhTMnABBV0pQivsB5oLtgTq6rvebcmDUHtYl1Az5HFQxT2ogYUbzfuOuAKvTF76sWMbjxrEtWgAYZpmhENVqZ/darn7hfd9EjqSPLj9Z0uzjgvP1nnMeVVg+ftoJyY9v6jiNHSBITvjIyWZsVsFoAvz0rSYKNiAxRso+IWhTOb6K2BNZYID7Yhi2nmccOxMQBoyKeAkgEca81Y3moHovv6eJVaVerZIAgvBhEjD68kcz/+Pzl35P/G6MfurhEDGRgERLV0WlShW04BsmrVViw5pnR0H8HoU5FPdg0pNTOl20wXWGCpfYM/nJ3w8H31ObfAvOis8T1N3Tr/ICPgxaHIALg/5WHVycNeODSAG65sGs1STHLb9N8lUsmCSAGsr6ufEIX/t6fyUJdcaA4WeegT+A9uny2d4P6nrlSr0OanCv63rNXtScHlBf+qbqjDABqV5rQV44FnbAXHdrca3ro/Nxv1ZPX2DxlXMOXjOGkPf7oNZ7jXCsepXx8dG11rqlFs/cP2sSrl4lkt0aAe5I5vkaltLX48UBWQQqoXCJZw/m89Cs7Liuzr1MpSMCqqWqmK0WvKc6pwlQZGwUKyEWVVWtEiHlwAz3zHhYQnRCg3Dd63pdrS4KERBzooCR5nh7ePrVzH+KP9Dc59zpqvm+wyQEUPEgO2OTIZJ9cml7/LrO+rgLARerTMsOp4hlzOt6tkDCZ/rNWTyq4znJ+/vD7SXpAetb68ZVhY27il8z5j7CPPt5R2ExxA0ZL/Lb9Vh9Xz/j1MPbfEmWNgHheeNFlDJDZJg57/k8z4lqk2H32UH3Qk+iKnVdqTPr9RzBy2P42jvnnAuj+9uHIdRMr/oc4L6A0ngGTe9qo1p1Xfdd3S9NcZMTknVC7OdsUKRDTjZedy/1sU69Uq0XTo3neS6zBJdPJI/34cdtfdzKx0tt+84EuObgWkIZXcQNskE6AdILUoCauRahi1MxIUUKD/A+BYQGkYip9pzpZgyYQIBESIyQg5XjwaYdv1FI4pAKID/BnnVBKhvAnDmGQpzjmARbCztorOueVzH/6/7LNdD8lQFAXBeMlkgdxxMAXLNV1xFn1fGgsoEn531KV2Xk5GLgZ2o8fb1NUUJfDdOGq3xDcVbxOfsA6dnvr88vD7uvVl91+cjHmUEiXKhT81b3NuK/WlMcfO594MIa6fG0Yx+wi/tJlVyqx7e21KhVhP1MSTzV0lValcYA+xgohdjR86Du1+Wpj+y9k+eX5+HePej+xE/3kNvFfeJTeXZiKefrl8E8Z8OHgp+9ujinCrN6rwg4T5Xqyc/4RHbdd32UuXS3VBk58xw/R/Nl4YBpuXCevQ/29++ep20+4+I4Xz7ScD37vW0TDcvJnEbd9TXRVScDNp9WsL7e60zO3KRIWCIoQAPwXhoiQUiCFcJ7TJR4QgExAlJEjlU954MnKRpn3t+d53wdB80oJYNBkMOBPZP26yb++uMC/5evP1iX4H/9Ui3fzHExbTqLYQEAbJTPq6rLYi+cYJwArn640C+FUx3lnNRmIR33gvbpyTDwe09eNfXqFi8kdVd6uZ7zPsd82AwTOn+qeJ7B+FRzHkg2K33d0Ot67T31MKWtihglbiGZfcKIWqOiOGOMeX9cegZrfcUH2du6/FrD6tdMXlc3NCZPSbN1YeGc47PuCuM9622ftY3FN+6dFLHQ63MUkjz2yFMEiwleQr76QMM9buS6PjB5ab9PfrWmoUQT8nWN1e26nlo4Wauq2qMFXNX3tSe3mIvdetGV3eAFcn10DLtc0Up64F1zXhc6r49hqlWiuDtH91phLaIqHjg5py8cM0CzFUSOoEY1EocrjKA8EQGogHmOg/HZzx5M1camRtR5wj3nPNaOs7fnbFzU+nz0vm7m7/iv/1JzlaOr5wU7ZDm5ccjQhhBpyPXOR1/rutKqWq+cGhRe1+OrFQbFC2e9Ws/Rda29H/q+16sXP1bm2/U8G9nsvrw3crx+KrbBPc+z35/WmRyu50zzBBKT5733ybzfnz7vo5cL/WFT3CMtDF5Xv4MZrEUgDpJ120QOKlkz2iwo3V9C0oU1Z0Dl7upauvJW1/uQ+6weNq5vXX1DeB+cqJZ6dUmvQj11czFybemFSN2edQ6L/v5cnjmH0p3vr6rr46OpQtRPbt4/rUwyr3H3s0/hsz6eee1fTrRqKMw7uMrVbVXXLU8CentvrGuqzsYw57CJfpx1s5fBZHhl7ODZvKHYnunL58axE1KBs0C7ldknhnwc7M/svX2ed4L9sPicmTGDfcbHc46PhQ1HQl8vanE1cbUm71GOUqY8hQODCqpe1+vr/dPN/Ed/kWv8C6nn/fP5yu3H2z4H4glrws4dLSzPYVFcGUSp3sjq1Kv9Too4V50TqsoEGjtrVwJqY0XZr/uAaDa+sp8zdY85fgLVvFa7e04q0qtONFCRfO718wu6qjvz9vOewvfv79kzmL/qx48NIpWAzCrAY3gfHQdYFEbjbWrvjGLAKMfkHKtBBUm9rlpXlupKvfar5l6UkS6M/jSfr/MgntXFS553Fedz/GfeMKISzab69ntdKHERSkNd++kak2lyBWuthQLe6qVv8nU9120evnoaCgHcDTgTvskvC73UlT6+rknPTBS8H+SpWHXVdpRhdZSZ4TE+6syt4UDBYqL2+/O8ZhRjhKEMsMWsSkWs6mjZHaqhxVLB1dXdfRU+at3LV6te3WpqdXVxYaizLhB2gzypkcQcYLv59fVV3+QfeS7xo/yzVf/zLx8dfPB5GyZAtG3y4l7O0YXvSe4bGF74QpHZ7FWVDT57LSV+OsURfmWVDa/9CMSlidLz3CUd4eDFXzM/PTZ+9qfX61dWaZ3dB+fkdb2frZS4/Nwf80DthfnCi1yas8ff9mzrRW5e+GwNzhGlJ42JBhSQZLX2Qc3qPa2zPpj3I3hhdQ6hAjMEYtciAmyfzpvGz5ok2gd1fdVPv6aP7wXszFY1uI2d19QCsmbI9OSs3iiT5e++Zi7nMnPp0ZwPf02HMvddU/trXQpmLg2Ujawl4hxcpXMqEGE71aBhz2ng4nneWZir+BXtep13ygO2U0VWPRMUh0h7ttUL9mZrmyv+4KPUTLvjBgMFdSbrFCHv4Vp+FosbDDvpGcATFc4MVKjj8EKIMepBX8wcrgw8KjpEwJz+dpSv1586/+Hf/D/93t9PZF4YLpzxkLtIJaDwCAyyswjGnNL7K31NGS9hzV4pVsVzwrM/99kzBy+Y7Vl387r8OhtFzPmawdjnoaq8+29dur4NuZPH3599Qfee9yFVdzfXB/HeoPmcQZdphyq+Fmo5LdbdcqqPECNsJUCtQKzLxnHkeaDg9vM5et2lvsnnPcGewx74bPRxwJNijvT6IMQsOVxHdZ4KF5RT2/r5LqFu6mORqr0FP+T32ZmhkZyg0as1157ZAfOdy6cd5Bhw4fuxI65FWwJKjqwMv/aXA9OzazVP5/FRuzPvr+frkEC1dxMM3mRzuqhKMuczRy0FsfyMCudkB6VSOUwlHHANgj1zjmeeQ9ubPnMUyBOfU5z/4x37fXbOEfem+bH2TPgq7dDGPUeEdXRNCVT8xE5Ao9auuu4W/ofnL9gbfj8vF6OhoZwSDaNg+3hsIwacgeegfH4COQPlu2p/ogjDT2ootVXeQ+yBuDf7XaB2eIY5M118nDNTeAPP8+R6uZ4+zvHOLZeW+Spk4bluR2tdxIzfv7zhsJ/3cIX5Hn19zYOrTlw/XaWflwmkjBixElRVIE/a3pP5/jzj76yV7FXPryerQQKqEITQ65rwc4B5p3mOxBezmPcMul/4fML5moXdlTgKrUW/wPbYk71z3ie9gGGbg9d1/K4u+NItymvVJMa28PbWOWt/7RgnirG/5+yp59ecX58CcLYpIP1i5DpvwzkXIqGKzlB6qPDVc5Lodt+vFazidX+8CSHkOQCCbI4hERX7SIXSrOJay086x5i902JNKJMwNYJ3Ch/eGK1Z3FlrKRkoZ7QBwqIU2NGvJ7pYwn//F5r7L2T+J/ztfB4uPjOog7WMfRQG4bAT3nwn6DFq6eunefravDTnTBV5H2TaAxDnGufgm/gce728u/ZBoNCc0rUf9OvzK+tq25UP2Dnf/9R/NiOabRw26MHKWat21UHN7MZR7PDnzJVN8KwF7OyjDtz2dcwLnK+WPMYKIB7V4KT3WRcPLvPWnBLxCKPKw2s5HO+LT61Djh7SwVUjmvSbRxdI8GAQdtXsOg3W+9xFfmdvNpQNZ2FTYfSBN3lqV50v6spqAglghTwJQCaY9GOVs74WUF/UXNfx5sHVfNQMNzG6uDufMFRNZ57qOcWDJrzWI7hzal78whmIZQq2jASs6dYcXXOAQlh9BgcSkOZ+F4akR2sGkqZqR7Kvi+Q5UwfX2l/SwnPn9Mp4imAQnoTMUIyRbL6uQl+V/+DP/0+/99/+/dJmv3FVDdHyrUubJAExq4CqRE2w0HOC9/Sp6/S1ele3eDXZ9ljYvLrWty461KXv+chhul9XoV4FwABSH0o+j4qjvWFwdvDR2y1ohsgkXTV7z5wzIagecsGr9sRzVxfjz68daqUSUrM8k5UPzquvF9KvHqs5BzHE9xh+H+FrT3+dWmgy+7yhhO7SBXT52XWPS4AwM5a9MvuwK1VzX4DTdPFadxf85mNC3B5UPh9/zKuk8+YFjGGLngvBOVLBLqtoCpAeVGjU6xx0x687uKjD1716wh3oYa+7cAanb5FAaRSS6rOWAGs47sww+3NC9hgl8xw7KKnjxKHBt4BkTojHmgGbNND6QFCsu9sBRRVQADfCJlBUo/e5cxxOafeaqxSw2AzJdi1E37on1cp/t/9iHsu/iL/5pf70hT/N7HP7SeOerwveKMer15cRVuDCViEY3CkFdQ20fXyvJHMCYU7ELOWwfepefjcfV/d4L+5HB9/8/dJ94b0J7aeuT7u/Haxf8O1rU5JtEaqbmd4IWsg+Yu7CMCd4uxv3mZNSfSG4HGHC6xwiGX18BDlfWDkNvUuTqKz1uJIj7W66AIC++NQ9vy6DL5KzJ17r0BdHX4de2X3FQR82gwRWBEY9EN+f18tDaRACh/mEWvBbd0PCu/md19onpWCt7XEzhMlTJymPl7fIboDhbuRkmXbrgUkdUFCJg7OtIo7BFHX0tMZtHV/7XDWkDPAAnQMQJAWYNQDIII0Ewl4BkzWNIWOStAM3uIXEYYgMGmTHmbz0xsHLD0er1hmfxepDpL4mF2qPE5Vei7jb/973v5xL4O8gjn/++pRlTMArJ/CaSeyHGSdnIhu6LqZUDs98fsEJ1rx9JqiYgMH3FF7lrgid71UVO28WfedQpXO4Pz8Xd2w0R35rdtfw+vnbKvi+0P1ikrq/P748DrhrZZB5NoSlzPVRqg+YEaI65hIKWYLy/f3eh7UTBldBS5HrzLWultn0Ex2R5a6y3rOI6s/ML3Zx9njwKASvOms2UtA5Q+OkJvIq/PrnsABuF848b+jpxgOd1a7YR5rn2WNlto8TlONs3TmYPdmb2AgSj3W8v97GnHkGes6YXSS1HAN31bPtBzFoDGEltGcU1liHguLOjmMAS5BrhTFCqTTFzS6Gqx40sMxjb4xbCsU5ICcFpEpcja5WiyVAvbid7EVcfc2AbCyGs2M2TQboUnWLWCT++g/Gc3f+isz744PxMej9doxwOqOcc90kAtrOgnpc9qLn9XMHYvpjtq4Zxrhf5Mc94IOquvylPvOo2lgqETexChl9vZ89UvQq3Bdt6aS9c3Df61pnauYzPGNknuNuvvbT7+dBbyQFhnfTvCBmlAH9VO8o62yx6kqyPkBmdGv/dFVLwaQXKRYsP59bez9nb4yBmThglFzqAR+2xrhMdDeAGJQOw8yZay2cZ63VKZUCwIChaGl4S2zwHDuFtVbOYfPEmOGpamMt1e3NV6/XjRZX9yBf4yCIJnX85IuXlPF7RxAgzRFRwjkohUwObp90UnSiOmBiODBCBJzooFeparIQsQtjYpp0EO6zGKEUrjIEVYasVdHjGYOsrLQ6JSyyp2sBMxkxGPg50y8KdF3sYv6773/J3vnVX6lRYztmF8JyuEgUQfJmx1qr6qPBayk53z4QFVL1rruoVf5kpZR1N6GGaOFdPPI+1qTHe+TtxzgxXmBRmcJ79vbrJ3Ey9vu99aH584PcqteN62f19e0FaJnHXQIz4axVM8wZtRl4CrauOraouljz2MwXPGpBj3eIuOP7Wgm60LeD2pOW2N1d7VM4E/RKCSF9aPgavUBLy6rqVBdVOnO8ZMt+TtgAG8nVjV214mXPQ15K7ktcM/NOFfr9kBnKFb+3Vmvm2I4Eh1EhRMjaj50YiQKbVZ1nMKyDVfiVL6U/XieUzSQUHcmrdKkB189V1Ec3ggHXbJ6CXXZXszssuX3RhkhCYiCaidOVhQxziASsOZYuOkfxZIBzTFBX3ic2gfHhc66fgCL5X/1BvGf/b/7TfF6rPt+IagYICBJxXKjKgBUyg4JuHs/rGsx3U9HBhWTNJihurcsHG12eumu4N2qeEjGmKrGGSa/Zp+nYsdZrzS/EgQigqj/O9vvW26+taesOzsyqFL+UFHzur7n0lsGS6W/AWTunzgBYHYcHl3PpaVa+oz+nSxhU8K2G8kyR59Hra1/XW0FxlMGaQw7xmsOV4/tJ+awPY6OWXbVpw4mCwq7HN7eYvt6zOs9Bb9fohgX2Buaqz0v4ZOede/qtfq6Y03ABePAChgMNKYUIYBpbIu4zoQ9y1fR5viU+CL7NO0S8+ngxE1Yow6mDi3x35T26Kg6A5nhMCAJi1cNV6811LEhfexUdptA5UxpzxEi7nf6abp4JKWrxrMzgGayfMLRtF4r4oksomzrTh39Hfv3Ti/j3f/nLeI+fz9/2f1C0RadrkFQbTEi6VWunF8UMOUMfIvjcMqoKGbN5rXWlinsyn1xTYN/6PM8R+kKMwgOg3msN17XzgfTram2ndeE5D4DACMrT77POVB6fk4vdceZBX6tx3jPoTMfO64Zfr6G1unFWr76Kq3Ju0Ne3g3iim7Xh6wZuUaWez/eZp3q+1MBzAu1nfcxqZdfVa7RuoW6VDauu8uEJZfWq87g8dpxkddSag9J8IXn26Sv7JOw59riP8erXOu83maXA4kHWmTlD9KGYfYCq1WMUZuwzsx3QZ4MxqphDDjwxgc4JUEpgJKxSxoOTYBE+uHLQnkkO4H0mBFcRlFFohOaMZiJLZiinkggsBBHDCCcTZOBUop4c5/NtlKfL3GdmoDncLkW5YQ369bo1L7HwB/NY/j6+39f3x0fXOof58AAaXPeHh8UAJzUoAbChRXhHhWeAbSKrnyoHqWpEt7i/JoHPM9hZnejT9dQ34ARXEuc8Wr0ibv38qsPVrVWh4Fq1MGevNd0LP9/r49LqyXx7nhDFa+3k+NK3e8HXz4sf95kpvIMqCB8f12iN702pn32OsfrqGpXbqtK6brEzzSEerDk15evVffMR9qSOBzOfLt2vedIKoSbC9756LS7OulYfVn9A9/1Cf7RUq2D0t28fC1Pd8fn46e4gv55XrxrM6AP9Wn3fH6+P6nXNEEAjvbrU5UuSlsOsAvTTVRX5ft2V/mhSMBerJFZ/UFWFtVKuq2+qiwQzlNYqEQtJWl1kK0B6Tb+KgFZHkKBeVCQGBslx6tWc1kVUfaxZ1CWCIGcMxnq1eU3EUKYKQS0lxwEhvWtmqfD9z385hwp1/4rqj7vzHmlv1op4bdIpAmYcn8lOdPNBLBs2IkIC0Nw7Ze/ovqqRToLw6mtPMhNer2tVId/us8Qc3o42LeDVuK5vd2P1+F7kzDl16Ro6R2/0IJ+fo7W+NTfP09f9GpZn73MOPO/h8oNFG8/2I+91ANan73ZRK1MzKXA1jvdZXN0yLt3B667rhW9/0nnjnOTVoNfHq7QE3oBd3afJrnMFR5dR2QyUovh0QXEoHGuVDz+6OONEUzdD7+fz6FYys+vbDTWEqqDO4L1eq64Rrwd7D7MnlxPdkPeq/d6TlJ887/j7rBOwxzGldfNLPenPZzLJuGtZyxqShZgSfEvXDkHn8vRK9WbvyZVxaHiOAa4YZNBJMjPcmZ3mdnAgM6Ub6b7aVUf2jIcVKAGLVYaL1TyAvVQt/Hdff6m58+v3b5OPJWTUHHSN6lrpGWTFBJfu+rivuysq4tuFVrfqYjUA6pg5dS15xhOg+ucqeqMw7Ay5L2f13YAfQN2yj5f9cXOtPZ61WLpfS2lDH63vuVNiBzl8Zt027jsk8BzprguVBPvR82ixwaAH93reakz0vKu1VqETPH4/+cC2XuGFvfWZy8OF9wlAkY1BtTLoVyXDwO1VBH2/tnErzNcb+Xr4GLhmMsjz9fk8z7Pjt+Uzj4kzx2HBxaN5x1tr3Thvg4AOz0Pga2j1OfOcE5GxD+knW6uCSmxMMoPtGLHjEWZA2gBg7j1DDq/LuRFE2YsHI2IfDya0pEo8cXPDGUeDDLEP7BBBiQk6o1AzDAICcBA6GWjHnPF2a09wECMwDEREQmLww1+5XvdGo/LfPX/JHrV9Foc5qidhDUpJ9jgeh5AB7zmzuImtq3dxjIptXa/l7r4vbJfOYAOezPMm+Tm153lbaz3TCSmOvXmzlvoze/Z7dNzzXZnW1xe515/utfOG1Mvv/VG7mkN8pT73XCZaEHJpww7am2DvR3re4ckxPrf9HGEP/PVsjwuYnPdj5KoFaY6/b+zjbWVTjluzf93zNWf28/19Trdsrolq73MyzzknCD3ah+M6u1l1tQmkQ7Byf2QIJ6TDDM+6lSoqoPpeiTMb3FsYP1PsMrq/cvuqwFetA2fhCgF1FakwgAMhqngCUKEZAggVzuS6cIzRHKNVvi7GnQw8kYIm/BsCzCRYUBFEtcxXzpCmdkhRDolUDc0GWWKYwICTNNkKqlmXAMJAYkeg+Qqgiy38L19/+Xyu5heJDy8/h3UMXNeea+fYBAkOEFK5/bDOqrd+eh4uPSkFE7F7VmFSkE+i46W33+Tlk8Hw4s/X/2pWI7yQ93Xt0+1nght/HqZeeXrVeN99tqpxTmGu86nCTN1Yb+TpnpFGoOjwW23HMbNJE4R2SKQW3ynMfSZ1M/O4lkFIg+vxYO36hmfcQhKy1zEV5ZnnvvNcwh6XtfrhCw9EZyBPFn/te2OSwialIpk6gWkfqgYvB5hhp8YofqJ7zUyVT0SU3+gepOqrgcJOA9EpyntdxxkJ9p/ml5Wm3w0TGLocymqHNgIRaw+AO+97WEByeFHvrOV9eSDTT3gzIQYBRopqhABATZddONImSO1zi+/omkO7Y3b9sgDUheeJgqg3EgXsM1CQqiCgKwiwjg1y6mfMt1vBv/IH7H39b6v1xgszpo+L1zngIJIFs09grlTGveZ4/S3nl37VJBtzhheV1VPq2VkTH6yv6u871fDie3973fybTdSlB9lefni5mF7Zv4lNlmYzH9dX3lyp6vMd4AucN2VoUmJZB6VJsh78rF+2LvtbGzL27nOWeM0n516YKeO9xOySqYIChWcDR6/ztbQI8qkUR56zV26RFehNa23wtN9eq/xZnJok7cLTOlJyjFBwsXFmzag4Tl1DxOYANVbU0Dl1v4ug7omeHke9NvV2waHJi18LlU/e2Ff5s7/98vZfMW/hgHA1T2LR4bJzKKq9rUKd01YdjsiAo+UEAU9CiJFVBw24LScsGHAqXGTOQAgJxAxWRgearh3BXJ6whnNWLNUn29Dr/QCyCQJUDAoFKBuaXB8d3y3kX/0DzZ18/AJeT3Amqu41CBRSFa3ycDGBN5ald3qOrmtOE8WJIP4f8gWcrz1njjNGnfvj5yR/VQPUK8dd37zR22j1TyttpIXT98eqHPTiua/HvC2J+5laTU0HdcKZ657eH9ygcF/XRuXXDe/jZwvJ4y4UgKoF1FQFa84ZD/UcgUqY7zgXBHw5oqA3L8zzJaHaee/1bO/9/VNFn9bT3uLx+To7yRks5pSngbC7UprURx2AXHV5mutk3BfJPSECyr5Xs0gSDlHcJ96Hc3L2+Tn26QXt5obOWZov772sed7OETMJsINBIM3wYMWeIAGo61rnfdI5hp37HJwkJ4VerwUOPbAg4IxhJsE55PaIM8kJlQCOyptE0tJCRj1wxkhXIBy+GMSGkgKEEKCoMONxCUSvfHWV8O/vv2RP8VddUXdRt6ABqoBE8cTDwCGg9ULNOwhw5vN59paPcsgE9WbmTA70qgdXz9jEz/46mUlq7Fr97Gdq2KfipPx1Dv31zkbjWiysKxcl4syUjAw46OHqxX0Gb0v7nHO930lSLZPw2/trzrxPYz/v/d4+fub95SIEMEbs9/ickmeISTp8P6M5dslP7EvXhfiZi4srX5n3S8+6Jv7mLHX0smh367oOphprLXWfjUxKqB1AtZ7WzhKu1b24jBZt+muX5sucvBZed+PrOQw2xJnogTfufEU87kqvYHShikNKqOhiyGCGdQwYBjkTOwiaEXW9rkRgmYSadMhGIbEABCVY3lrVfU+1E7TQdYrOAs7xVnhR2M6c64oSuISbPpJhTELqJ06cy7RJCCmJGa/oQhGFzz/oW8bz2dr4GcTiw/wCBMNExZABiIAANIv74/r2pGKz+yPvIP3Bxn0otYpV3u/D610f9Xxuf3abDa/5Mg7WQln3xENvfXS4lNIAcx4/83Z+eU9mr7Va0uU9da1eH8KgsARbSJ6n5Fk9FqW64+JlXImSXB2sdQEdFQQ2VDDW2fwQaN3X+kifWdsFn4gu8NltrBL9Nc/78K71Imp7ra9NynOOVr+La8UYapBzswpXpairv0atkyxsH98lCex3Xw2jd06Jp84+WO+v7rwH15X1zcfNn0rnnPMctp96oTjkqQDBgMQeMDbHCQiGIgTEBBifXhlmEKwZD4Bq25kDZ86YTUZkG8RmrktANfgMKezEntSMBYPhOn5bwdJjo4xVlcfx9A3B6ao9DotISKsseE+iQF0bLfwXfzCmxr/eP9Uv+Pmh/W6dN19OsJ6wMpwAhKlQWeHHV504DCwSXDGqc4aX6Pk6ShQWy0dKgvbp4G+Zp+3dsMycK1vE7j4U0B6QqrHmCQGIH18Pu5g8UGP7Lo89FMEUj9Cxuh6asWkSWmfNXl2fLGLrIp6n0Qd9HKc+VJ9oAc8Z+NKX72+e8nNSdVDcWdm4qPNgRAG67o0JIW7VZyL2jIzu03tTF+nTIeRTZKycLFX/H+j17BJzeOUwQqKAu21eZ+nzJOaHXEc6da954l0bqoxa/MqL0vaVzBmtmfKAJsF6CyI8haGxNIG5HrBCLdXg6U1NBm4gQSXojBdS3DDJ6xxKZe0jAKYQKKOygIw0aaTGPiB68DKPFXcfhzFiVEgHABnRagMGkPVXm9cq4F/5S/bwv/360u3Qk8ww0zTYmySdXUKiAaHlZ1hK8TCRTFqkgeYZgc15Xxwby0YqI2XtBLpfb73F+zkivOvbwyfrObz5gAC4WM3d2/LYfc1zRAQEjaQQkGMSoGAhEWUxmMBQigHDBp+kGZxIHDAVp5MaFhLhAEPSwyrFFAai6gAAfPlhhnJCZbPZPqW689033tMNZzJQkL6Y46r0OdJhnyF8u0EbiJIwHaMP0RhqMXw8vd7Xfg6vxhQW8WdeFc/P+F/ue/jp6njuekPVrV83mvtUKg4KQgCvbclpu6KRp+gaSlsyuI4dIiza6eacVHDZLpyggEFUikcBQQIueEJQA9AoeUgDAATWpDRt/94DJ5K2QYVgWEVkanDd+F/5t35b+Xf/YB6LPn9dyOmHj5FKwpByVkv2+uCAFAvAjEETQ0Atxx4zE5QACD6Jhxgjowo9mADmfj/bez/RDJA84U8/vUfXcoAgme0Le1RjO/OYVwiCmBhIaIOiyMAxiIHPmZmABIAMFPs8QXxsIDxEbINARjEbditht0mArrK5QG7BuGRwECQBu4TL7p+WlSZ4RvAZkSjcLWpBEUIe0NJRJ9CcPXLgyBDGhBpGWnh/QYMz79m8J8s25+R5nIerHz7fNaXCmI2HGD5fz6NKBoGRWlXjxrGbCDgGbMQTJ2VNPAm2kQCEHWDOYQzE23ZADBwW6GTFETzieMaBESBgbINEAUiQY2bmZAKCgEYACEBFhBRiezyD84u+3VcL/9Pzl+zx1/e1PIdCwQbA1GrnQujk2SaACA6jVUCIRDoIS0I6jm5VYSiSiLXAhUhC02RwUG3CRjJBPLPfgXkyYSJynrL9dTIpwoCTEBHYBCQQvBKSgRAggERCDAOi4hGBKgYM0SbxWzEgHQPJjImYAIoigQHPGzEwKG+BmpLKkxp+7HcO9vC4MLdD4mqtQiONjCcmBV1XIVMXWIWGBHapuzVL4LoOoUuVbvm66oo9sC6zS+xyn/e+9MnoHQQUMFWTBsQjCiFM8HgGQJLEEQUDSPqjdmhEZBIyIIDQABiwJgBZAo0KSKCKnCBkIJEqotiIqBAEFQYBQiYxRIhgQLERwhAh/ahw2SySyE+6lP92/+8EwcvSpVmWWNU51/7O7x6RmVUyOiKzZLyE4P2bQJc2tKhKw7jJpFJUhPs5e02NAQAHAAD+tj+d3+Z8vumMF69z9t3rvuETi2CspLMb4uyufZ/nLsd2Ru4+3Nlm18mXdy+32/I8+Hx7O9ZrVyM2z7inmZcQzefez6ej7VrWFMPz/YfP97n4fDKeM2B0F8bEdsdFZ7LmorD2ZlpF4S5OVKVtzPiZgb3Mi4tz9nPtvndeZ+92xlef+4k9Pz7tvauw997d9+Xr/QSvo9/Y81T98lXA13l88TV3nm8uFu92m9fsIw67s49TzNyud53Pzuf9mk/Xr+l+fpT7mddQN+48Ttu9Trh2pawukTPn9tz3mzMfPaed9jCjTkxXOJ69Dm5Qu+fe41PZ5ebrAlvtGsH2uRmDgqoUCaZPgWyhErYav359G0f+358AIAAA/Ef/7V/n88vZ8Qe+kw/f24pn79oqR7oPy5kfc14/r7C6D+s0O+vrJ3WgnmWpnRMt28Axhvo4ug1dx9fsr/f3fbrDbqeddjQXy1ZPe+6wdJ69s/FsyvSB6YoK2B6KU557YQbmrnRcy9NzP2e2Nc8GhvSn+xl+oMNdZeZ8OOz79ev8ts/7ef24zzrzKW+TASGn7p7vP+a8fc4fhiv5C+8uY+Hr+bHe13kf3w2+jm/uYXY/ns/6Ajgf3Cs7FeeX3z7ec578sMLZ/fZZjRafXZYUSyEMVoCVmTxvMIBBb7MjFmQhh0ooJUgFC9wVSIEAEFdbNWsK0N2RGEPZDgUCicWwrz/921+e5+F/+w0ABAAA/qf/9F/m1V/mB7tnZu/n8+Xu3pnNO7OevUOS3oFz09xy8ZDGnL27c5aDrSy5gud2mRztajaz2840ng3YGIQlGCnTGkqg5ZCA816dhXhaB+MyJAOlLlbffOuS1UDnzPjHHW+Mgnt8y/w6P97Mm2MrdwI9Hs/U+zO85+v1/vie+czTh/msNvHLfpaZ3Ycd9J6fPRuNF6hTfH06c7dxDzJ4k55aqDPvO6/3cPjMRnef1925OsNn5lJxiNk4BrO3ndMCIikB04XmeJ+7RA6s1JSzs0x0YF0FkobKCZxtcN2cXYYSxISkhl0DmWVaEZwKlSQp04DZvv7hPd9eZ/8XAEAAAOA//t1/7I/3P7zjM4Lvnwfaeab7dN4fASjvzA624OeZZyvsOoHjBoDng3Eh7djuTJcBdAg/uNkMNaXg2cvMvO8YgVriAsTha9/39fxxJ3XHghMEhCjV4X7bT+MGymwBLJyDrC3OFYkdCTkt1NimyxFbBfg8BpswpGwTEAznRhngdBmTWBBGbB1mu2pepCkl245+mvk0wzzvy1y+fz7vo6+CYId0GWR1nTZMCRJpSLiFTNvXz5lg2HZKcp2JWUaKkCYQYxnMgFAjKZdJWVKyDi0KGECa4e7QaOkKw3b2Doc/f7/P1/Q/AwAHAAD4p/l5f359m9ler2U+rYp0mO7PTyvH0HnaGe1sczg3WRjcO24A7GWRUpGz6yBZaIvtdTo2hwvTdZ9Xm+LeZYZYhoLKyK/X5/2Zbz+v6AQ541ITOjOBcN9wg1AXFnJaZqate9c2bi3IJ9o2thhjZmDmfmKbvT3t3QuNznQ5LFZaN1vWcWl3hrNzGJoZHUXmdVdIpxlI97PbGVnPhA/dCzLzqebVXXYnYJqEoEvtRdLNu0GkQBtCNU9YDOtDRxw8hEoUTo1g4AyjQ5AWgCUgZcKgsoK4bbiQFoE7LRCBoGdWdfu+8fDPAMABAAD+9nl//fz+8Pnyp7XMzsvhjJ/3XTWnFnZq+nwYsO1exM3Z1ZBbLDMO3WS13E7ZHNxaUtGwIEJ9+lDe9Qhrh1q6u8oZ9vNO382ZcY7OsY1GAIlpx3BZJYQdSbYRuTcdHNeZnYF01W0ODsvYuEuU7o1pncnhzLbT4kbNLiM4jT7tHKUpEqU+0Fzu+lDkd/1TZ0IH285Q6kZzCnQfA2Mcz6xEjHfVjYaWGRzY2TY2ppFRnTuhdVwOG8wQBCioCpHBZhGCQ5a2bOk619Fdt1woASZHFmJzYAQFkMJZRH+d8XX6ZwDgAAAAf/v5+5/Ae/jRmdW5O8bjJ8SZByoaLy22FMQM4cjV8vOZw4aymw5oCoEndTiDus4wMY8D50XvN3bEg2KeuMDgaYLbWGNSS/rc4My9jNCyy6Y8DNsAsAuwacUAgi8FLcEjqlaXiA+iDsA5C0BIVtUqDMQ4lDtGe153vMEqGpBsEZBW98P93HcGsyETuHwdnsERV8ozEJVKrLuijY4GBjmzMwUQBgzMLuAaBCi0jcRhr0jsykipMBoRiALOqGcslKzhUOfmzK7tGi6yGQwFwmKz+ZzxCx//9/kJAAcAAPjb75+v57/O/v6mT6/P55NnF943CD53F43dYMInjWFZtN1zzlznHISZUTpk4KYmbYEp5MwuGRFepb21kht3rTyCj7uV7YxWLUV9dqtNw8UgAGGgziYpMRoxVqc1L2d2VA08cjEGS8fFC1mzFMca7mpzWHCdFGaUoAVqKCTKWCihdhXidIWhY2gFmJ+1u8JmzCh27iolER0hUApZKkBgjCaM0gLDtWqsSAgCBFrCXRErd5FFFtYgxTYYVgqY9Uhg2A5jqiEQmAJkyPT5x/uf53n+vz8+AHAAAIB/+tf3P35+3vPL8MjS6Y1aThwcVT1H4RC4hNwS2WzizADhoXISJM7AUsxIQBDtskJs1EYDcwJkmUolamVTioiQqN0RRhXJIUfBTI47aBpzWnRQy6Vt+ECL3qYLG4yRRjI6bDnYzK6yhm5AKjMdMhwZmizGcDMY6xSEEVTlyLaRh4B11QsUMQJb3sa9LqMzT8EEsSGgggUbiC6gXkDNUAtPUyToADEeSQGy3Q5AnWclMIpQgBF4qF2UsMVOW0vpGDMDOINMbK9vP//8nPN//VcA4AAAAH/77fPLPr9+/vi82GVs89st9sJuuFvdXTp0LAAR3epIKW2L0y4EMWEAOg6UiFzCUQYYhEM85wzEBjZjFoUOWELkkZ0srTnjUsKmMQlsnhI6zlFUoV2ogGEEXMGl3ZnUdljSSRbPCOfMNsKY5IwIYX0+om7C3nAYroIuNeXZZmKFmY61qwzHOEyjUT4IQ4js0BGfAZmRBgMrDbRVCtRDASKHDYIxLRQAwACRCkmbAdh5CSgtZXPmYjCkijKVCMgonFkQm3ETIrDPcQz362F79X8AABwAAOCv/6o/fvS7p2I6D/c+UY3bwy5HQgMergOOeoajIzpBxhhoqSCINKQUCjmAE4I4nIkGNzdHUFZCHWM9JlMkBGPKkFzxmHPONqUDDD04R0grgkFRwXWGmXNs5JjnDKgOzrgVMwonYnSZgVFFGQSdsbbgnoeb5dAQauQ4syFZwgKcg4cxwHWIMxqHRM6ckZRq3OjG1BIaCC0T4ZBFjAP6wQKKLYBCSaCWBt1ggt0Ky9WiANo7Fm46hcMFYQQRhUoJAQEWaLWA8ZnnvM75ZwCAAwAA/NP//fnz77/s9z8tHp+2nThbchubBInhyTZBUErAqgqQYNwFgkhZyrYYk1AUlMwD3vXUVgwUEBUFALBAosSMNDLnoVUccRjBmWnnwBHmMuiCMwOjzUE9VtDSjnnOimKhI6iA6OUgg+AIjQaLCBCT2kxDqiqqqkxQDIpOzTh0QU8y0IExWmbvpq0bIFTIAMw2Q5M6KnMCxwDUkUVPqWMgNqLgCB3xTMmOGhCgTxsE6TAqKJAYQCgE4RBqIjiiw8AA6fPtx4TOL88Pzmv+TwCAAwAA/PW3/f4P/PHrG9idqed5XKZJzbEZZ1RHEIAKJ8BFABEJF6GgBJUBVTQoDCSA2F1gN4FCFQwRYBgpQQQMQQA3FSC6WwTSFBLEIWNGZUyF+cyJnWFXgcFZqwRGIBThdEWRi567kH2ubQuXojgMzEJKFdVKQlgMd5wkgRkOXXYbbrQRlQUe0RuZGwFTWOnADAKAoQGAjgsMJ0dBJ2dUERszrJWas6iGgw+oZDAwxZioUAgxIiBDBkiGJdLFyCP8GHC+vs49vMZ/BgA4AADAX8+P/+5Dpoo+x3NuovKIIQ2cuvf1tahHZmRwyNkZURRJGIUxQTUzBRwQB40MyowVxlKkIUVkRGpGaSAZSYBKi20mVErIyNrFkzgzzMNMMyl7juOYg+pESwCts5FSauzn4hIRAmFJjWrIGQgMYqkgJQXyAOYQsEBVgFxWCw8AzDao0ZUBw9cXspCiIMQIBWAIik8J2CEKA7IAwBgQ1FFFBM3BFkBUkRIBHGJECgediUUlVFEQGVEGmtsB+3x/fTuP/q8AABwAAODf/6fnL3/8tsLO5TlTs+2SuzlU0K3UOEsOaVT5mAUCgUjDzKgwjYxHgiQzsAgAUOTMDJ3DCDozjAQA6CzRBFMpBVGJ1AJC4rSM6ZlVGks+7kcE3XWxG4GmbMDKjgGRCBHOFBtFBoVgIBFDFWyFWUcQJIAz20BIMLDFRg5gOIA47QQDharCMNMbBQODCSRETZBxcAphGDYHmEASgKMyAkpEsGhoqAKpoACoAjBKqiYMcUQWHFQYD6g2wug0jtCo518AADgAAMA//f6Hz3OG9X5299PnZ4LsjpF5BJiXIDOgQezCJVGqeiYPCmilpcCiNoMhoHjUAOyxJCc3oCwLI3jcBs4Z056ThQoOICgy6gzNwXN+3tdRrCsAOKxQM9KZZYYWOkoTIyOIoVMzWCwA7AIQpFuByTIIIyLzbASA48IHIwg3gHFGzqM8gwAkefBIKIqinnP+6NGRZPTETAgBJjCuQ0SY805QVBgEJoIEMAhClYYBgGlMAR1QChQIgSEJRolRQwecwEQSEmFceJ04/wIAwAEAAP7Df/63P5/XfE6LRx9u4gY6NKjDDKdG1nLAQzNz5sw4io6EBJGIMZACbYesGcBJlATlAq3ugook4AyO7hpgAHrPfJwURRWPeoASZAfrW1u75uwKo+Zi0oUUaSbQOXA8iaMAgQacnNFpRmVGHGaO2uCUgBhaiGNKO8gQCAbnPM86zAimOleRnBpZBCUFhts5hogjhtYIzgCghVGC2R0RABkQNJKAARyc0UMgWwCGGQIoAjNjAIKTNJIWImMWqSAqqswBlOf1HH6+/g4AwAEAAP72x2/fv/2XN7fzgnkcntcez+trl2FEQl1O87qNFUOia7khll1LcQYoB2yTcCTGAHS3aIBN8kBBiAiKIyoIwwAk1aeXqqDOKEgMOVSfhYsX1uHghhG1DTbwhM6ykA/FYZ6SS7WSegCOM0eGESBGPIIwIneOoyIGjM7MCyaUgS9X7Zyh9qC8oHmd72Meh9RScdBVEotogLS2wKSYiVADKFYDywkgZDFIEmWGBgeVZIVTqiObEGREqxMqqopjBAQII8gMAgAAhhhC7fk6zPk7AAAHAAD+R/fz7/oxf14V9u5n3es2rjKv0c4ABtaUA6DAsOxhC4ojzMhyUGBiRlRleQzUAWdDm5kZAtGjCuUIttIIJQTC8DlfsKMGcsMxz71Vo/M4spjHQfPQSKEhAzhkiiDRWBsIAAhlEZJla8zRQJGRRQ8V0QxhSbIKAvR5n1EdIiaYBWnuB6tUQlohlEYKi4cdoUmYWOScLUgZEdVhaACQSdURx2DAA8UICKkKzhlVnmFwEMcBQBlBDRLFEEdELZYBdUJAQZjXF/j7L684fwcA4AAAwF/94/dff57vr9lhgcBzPtQm85xiddft5N7zYhcDANU5I44zOqNRgDpicgAFJ8QSJkcHHUX2GVFMmAE1UKwQ6Rgw8zwfvDm7EOKA4Tw8B1RW1UEJCBHGQ7Ijh21GwIB0vEGSqAMjoFaIYoiG0BKtQUuoQA4O0MJFxnWWFyVbaIySVFGGEJABCORhHZDD3TMmHidmRuKMMqODgSrGgICmDNQI8zhCyuiIwzg4MwzODMwMDqrYwKgzIeA8oqKIQgCjgoPmMXWYr1n9MDy/ujN/BwDgAADAf+CP/eV8fXivN7kq98zLvmZSP0VhncHj/OXz84wAOM7o4jgjeEDxjAMKqODoKg6Oo8c1iWRTBYYVRCBcpQAU4HDR9nUaPk0xiUK0kCRsmsxAmYSq4WxhIxC6sQ2BTDuAMo6qjHBa0RCtUVkIwggoGWkIRARwQBo6zCxIyyEBgc0ohGwAjMMMkIJnkgEcAk1mBFIiLAljHMFxihEHwNFAdVRHB0hRaxAQN4gA1inQUSEyRDAYJgf0vGDE4cptDAf0TNhW/OXrnjn/AgDAAQCAv/Fvn2+f+XxeOHx47WIbvl7vObsrwIw+oJy//P77y1TO8QiDEoiaocNWuGJjCcygTZCwIDgkkA4MgzBcRtEMBHUQRm10gxFLEBBBaNxG0II1CJxCeFpCkDYUhJkh2IYUx5BESlZbhtRmQIYExGI0ZRFEssCAIWtaFEVN2SBDR2GmGiHEChRAWVERVFHVaIjMKUKYQSHHYEAkpXE4lIQTZiimCIgSAQQwBAKDCAVCyaRqgkAmD8J4Zl6e8fvji5tev/3SOcv4dwAADgAA/Pv5wz+5nx/vmUVQEJz7e302WEFCGp7zr5+HBCRjIRBEBU16noi+bWeemwAQEpmBGAQ5kkUgSh4ACmZAKYURjstxRRsdEAAHOAYsFKBlIAuwfF10Uveczig1KjgDOCoLsyAROac4QBgwihIKo6KQsgkSWGAk0ShMimqjDuMggLsNiCLKDCMD4QjHRd3IxXBwEMFRUfYMN4eNAzSgCtjd4a64IABtTKgkBNIgd5HEQjWEEEOQgrMqpaejX694fTvzfP/q+9e8Tq+z9Pzp64+vF3888/9fAYADAAD/A/s+Tu9vz3sv3cJer/3ssOAJUzBy7mVAHFBJL7pohYJin0b4Oo6fRhHAQnFINIBmHAWdCwCaok1jADAwNiDqtEOgo6eBLJ0NO2ToojNjMMoZyFGFz+uXW9cxWJWCdimoIszQPANndFJ0l1SRDEJUGhMYQQiNAQwvQNAFqVWMZnZGWygB+3xqIBzb3uf7RyBsJKqC2tqpDGVBFgSQIUiATiUCohGeZzcBxgQgl4FFagYoosDCVDBIkcSH+/0XnZ8//kz+hj82+2I/zuf3/Xr9uN/8fy4AwAEAgH/564/fvjHv7r1DxLdfz352Y+ywlwGZGO5wjwjIzuv9eZBR0EbAbFim5PmdF+8GAFCYKbUKEh1hEMADkCgU00ABI4RsQtydyVGA0jvSTFdFkfR57rDgDMSwG1QrvH///LvXe0YdbkGbSaE835tyGjmPJ15GH1aeX4tzlFQEQ6jJ424BwnGBonbd13/fz9gVipjFz8Le9r8RBJ+9lmRJlp7fZbbd/ZwrIiJVVWaJrq5mz1CDoPj/nwlKECBADMV0dZdOFereI9y32eLz1DhN08Jyt4cKCEsYRf3ivCvaUto22G7bCCVDy2ir2lKiSLtBwWlt0ibQEI7IRQiFhsb6tI2gm0gAEMYhwrYUES7RjpAWlEFIdCvMFpFhg6WRHkcHM4JlXrjP/XU99dxjdIzN47ov46cDAGAAAADHNYZmne/uVrTGsh8lY1lqwrLS61rFTnpp1h3LTe+RbQRYBtqBIdQhY9bNdQMVQjaywdDZtkwD0pRlcFAVWEYYG7WHZqSNaAUQ7tBgD3fglpWtcE9ndESnadHOfQkUa001MkQENNmtiKqOetVyeXs5lojZznC1QKiaWJyhbg+5tWzd632qyZ7jtNCPY/uw1K52SiUht9vE0JHP752H0cgx5r5yw5ZyoOm7lhlhXAtOHZpHOzNH3lz3vOOUnPPx3PunslhzdK7h++eH5VWZqDfmvaKdK0M1w3trrs+rNLN03C2zJqddZN7bc8RTzp2xvxYzcxMeEbsur+pN0vbQ/eHW5vQAPLz2IuglqzulqTbjQbUm8zrXY65T6xa+5MP11joevItjOc2hPR98en1YXo9H5ngzT2gxPIT6AgDAAAAA9OZl35d8PbNHc5rH8fDuU430vcl0LHH1FnH1Q8fm3m/RvZ63+dmDHcWYxDKn6ClPBaeIaynUD+t7Dy2ewcxGVqcrt6ml51DLqLvO2feYs8VyUi3puzcOO0Mbxf5yYMUpxsOLx7ztGlqWlQ58u1rE9mbOVG2v10OOpzg3h/p2wJrb02na/Phq8MP2+HhX9N9fWuh82r9fv1pe/77LbI/9Vq/r259+nEinr7eP/Yu5//Rqdbxb40G3U3/aOby9eVyo/PIv7w08frusYc8/vdjy4zdPiy9fzD/uQH79fBLM73+cwPKb8+r9A5ePpPR4zodlrc/fX9vw1buHcd9v9x+O6PHw3ccv49j083uAp/+ENXzwUy160T98+OV6Xf36wwGMfzptwaz+t0Mp9xfPHcf9zx8s4qsvlwfXj4/bvDPG/vod6tv+/m6Pp3db3p9uPZidzZ9/+0Bf2dv2+KKeIm6fnzOm4vb9+EfHcRu4g/fjvLi4PQ/R+4fX33jLOh91Yv748LzORTOIhnEKnXUbp0gDkJ2bGwAABgAA8H/8d08fxyPx+u7XuK0O9bsgVCgKi3P/dFuXvGb/6JO+iMuTnMv5uPSXcV//2l8+pfn8fvvqj6eHLT77tD4etf7w+ZuLl2+Gev8x3v7L29/clh88Hlhfn3/8+T8/eg1Z/fnj019+++bgr3cpv9h8/enfH/ct3dbx/fNffvXV7h+vwOmb5eXjb2PvPyqIN1d+fPr99L++ALw7xxjcef/ZcOJeT7+Yx/ufGq7nb+b1i+3el8tBxHK5xFccfd8Bnr/IPFHx1wYpj/rqF7fwDlCbfr3Gvd8LYl2u79483+GvO1DP8Txi9/PrhHHq979bfdxcYOK8nnm4+ecotK5/+f0j5ccfkbU8zQfxcH/UDOndzruI+/OPJFrebMu69YtyXp+flsn2cP98+ureKE/HdrKu/seo85d95HrafHn47tZKNJ9Cej39Zxg+ftAClb/7xdTC/efvhsf55+8ez8TPf1uGmHP7T93O64evn7a8/OX5F5v18ifnoNAvfx3u/V/i3UL9/PM/jdT1365fLda8jy3s4/Pt3WD5j5fHc0t/+TiW9PXvXz0M68/18/77I5QCGxmZU4QRWCijZjwvPwMAAwAA4H/7b79U6os3a5hWYAFGWGCp1f16/8dTx/evy29H8bd686UYf/vp/LUeLi/5+sY5f7h+9bS8nX97/JrI+5/962/fLn/1b5cZ/uv7N7/+8tvjL89fMBZ9/+M3v363/uXjb95V6MPf+MYaP7/77vNyHp/+cj4OffrpzXeg48Nc0bbHP//ohwcO+zXHq/5don7/c43HpedvXbE8rdfLx//ifNQ/u5De3z9ef6X6+vYyRi66f9hOfv3ylyC//Hj54zeEv0l6fdj0r2//sW7+L+zO+rH+8u2I/uX9vuSy8bft33ddfzcm2R+uf3zzZrnGP32Pluf++ON/Gv36/JVNvPz46cuvgH/4cSdz3D//ejBffzeKmD8eH55NP357Xc4Px1/9eFL+/PTvYw/92+t5kcv/yX1EXH78+NsFf3/7zUOP+sPrkjr7hy//MxB/+revHuHy929+sTj++LN+Af3n5Rcr8p/+tLy19n9d/mmzjn+7+Avr+pc3vwh8//P1l+A/veavrOP7D+caHP86frfJx0/v7++C+4f93SJ//5oN/cd6/pWtP78utdB3vXxhXm98Bfzlp+3fWbNqGnqtvy+L51zOSv7t+vpPwm8+3B7qfjZGyECLsA0yYEHrMwAAAwAAgP/9vzdOCawAWeZYDIbW8Fx+/cu5hO1/elavfPXpeYDm8zty6L/68XM2f9/+eeg/049zZji6lmXd/Lx/eBtxu737evwu37/6q9G6/UguX8Q+fzyr4/3t8fTf5PHT33/7Zcf8283PD/Hy2c8ry9/fH9/+1+0/HV//ypHv/8y/+1XUH/ffvO1x/O3lq//KfPrb429I6U8/v/md/PPfn39H5N/+Hv/J2fv/t339ixjxp3/b/nP48U+nfw6Wy7/t3/xa+uvl3e+lcfzL8ebLnv/v/btvPPSXnx7/6+j9T+9+o0j+8EOM5m8fTv/I3P7yQ787U/+Sv/g9io//evrC3P6w/lMqr389Hp/R7V+//JWg/uX7d7j/8PrNb5L+46d4i+oP+vZbi58/etL68OEpr9vtp/4l5m+vD7+Wgsv+4xPcr3//bfaxX5434Kef/nmDebm+/1Wobj99He6X+wpQH/ofbO73BEZeP59br7z9Dsj7j18JmYfV6Fd//fkXq93ffZmWxvHTr63xNH9l6+1/9cc//vsKvvzqbGn4LCSef3eyTv/lPEReTv/FQHX75ktw8s3zE+j3/kSlzv/+ZPx1Ssb5q3fDq8BYpkVgwggElq1RAAAwAAAA4H/972q4lQSADQ5khBU4cuCj4ng6JQG/+MVhzK8XObQsv3rZ5x6/fDTiq6+PCrz8A5HZ/+yPyHP9d4vgy/+aGI7xjc6R/uf6e6zH1H/2sAl9++EUgXl686v07777+affhOLtF28y9OZvc9heNZZFver9u9R9rl+G2S79i2zvn5a3X9BdbnV8vj88Lgp/fvqq29fbaRFPq3/61e6D0y/PZn6az0t37fX20Vrm6zf4uI7HB6zbX7c3ZQXPv7U0q0+LZ27/tJj63P9E25G/Ui+jf/7W2nn6xWr59tfnk6mKd2Ge1+t+bvvhccM5bj2MXx+WpeV39ngTn9+u7+T++rWHrOX87heCf/a/Km39F6fA67uKgPHdD19jf5efHfT6u3cb5G8+vZXg+e1z2Nt/9f4uafn21xgvXz6k5PynZVTEN1//EaTt92kcv16SgHffhuVt+4fZ8i+3E9j/YCH7t8tiiFMfrf7m6wV6/jYEmK9XC6Wfy/vym0T4i+i2qt8ugMEWIAOWDVQaWkYAAIAAAACA/1Zej2UxgAVqBzQQjSSpjur7el4EwLVlMWPJ4a6fPx8+f3tGAPNui/3nXzxml+Y+X+vd4xBA7W6pfvr6nLaP6uu+fLFaQO3C7Y8PT8Od12PQt4dHLKrLae69rsMdx1++7f68fzeE6o7SHPs5F7u6Iid/2L47g46u1PH++vjuwbSvH7499Hn+MhD3e4ww+3V7zJL7wxvXy1//0y2gLtKKvY9TNL2/bg/N//OrL1ryrcm0e66rbd8+ftu8vP4G5LnfTwvst/Ma9uDDtnj+7VebRXU5Qre///rkdsRxW9M3PQGHx93DsevBLakva3i+fDGsbnoutmYMOYI7aW75AC6rFM19SxxSHRHuuQ3c7SZharUVqmMY95KmoCtl10km8MSitULPoVsK7utqAfNIYa+iW30M5I4VAO6opUW4pcsI7Ex5b3BUyAg7ALnl0BzDrv6fAQAYAAAAgGQnbYFoUcIYsJmKXsPH9bO/WFYAoMpLCoTN57tpCwD69nE+POc2DNL8YVbMEAD+/Hl+cdJXC9DU6/2+noUAe85WjC/DQKur2dQhCF17KGNNA51fHbA9ZFjken9dFfEoIXK9T3d98/hgQebe0tvHcxozzq6shwwBQ3Nf+qfP/zQEPcbTjE/zuzUBPfAi8qgzbvJB3e7fJhIseZmWvAwgIlR4GzUAHtbbQONxjbbMGTt/2QjIuBL8MLExELLX7gAZ30NO2VhoYOcTCJxIu1etagADRADUiIlhZLYRniO0ewCtsVda6igQUSF8bMj24h6VarBAXYtVAixsgJEAIMmyBZJyEnguWAB0wMfnE1gkgCxgigoa5GgaBHR3jsRl/rv/DQAgAAAAADrcc84553HM46iac9acVXPKd9IU7lEAgG+vV0qbAKBtCQDwp913x7swIM9yLgCAX27HPr0ESPjG2BAA4vrXHz4eDCQgZkdiAVD1ulcrDKL5OI9SgMD2hx8/djeWgeOlWhsIaN9ff7xcTliA+3MXFACe/Wmf737dgLq53YuHMwCU37/eZo82oqm9CwmBZ+/X2a42tOnXMhoJ0DU/dRsXotFRuEgAbKvru9+kwMZ7IHcAmELQRhjYC+gAKONeNgAh6AJnAshGkgTYhg4TNwNqd9FmIBtUDfF+groAAhsDYCMIwEC1AADAZcQEwIpqtw0AzCpiAgiFJdnAcatqw5xNC7d7n3V8vimx6U4AAAIAAAAI27Pm7P1aL0fT1bNqzurqqnuXqGU8BACAr5UYAoAETgIAiGVZu8gA2dM8BACAiXuoBbZ03PcSAJjdfdwFIDg+1tWBABgxZ1uSQCGXPBwAotU7LmQZePUEASDVde+Haxtk1FJHGADZimUxwhKXm7eVAOiyJs4wgNDRcGkMLIlFZwiF4LW7PQUgtCAAAHCjaAB84Jf/e4oGS4gGNwBI3YYGGzSNaABhSoIAZLBtAGAMPNtuo7SQRI9HAAXYIRsjQLj5MsE1EAgMAEg2EUAb2sZ3IwCBqgNwI9+PY0YAAPY86t0GdtumwWBur7ejb9ere/fx+XbUvedtzq0PWyEMAEAAAAAACkJdPTvmEX3UnG2jtumXvN9hvnaRAAAVkCELJBmyAQDFcczIIRlAIAAAhTgFaQGmbQUAQNC9YQHQh9bdCQDyfmC3hCX7mkEBQIeLtqewIcSiDABQHUytAhCqJhQCIFWimoYI41ssTAMQsVYZBJLhhnodCBT4cAOIAE13EQAYv3bblt0CppEAILi/hhoZBOzGLABtPN1uAIBo+xgCLHVh02ADEqYNIPBs7gYIAKAk4CiJbjBGQFITAOkwbWiDAADoxrRRCrwbALr7cgkBNc2cNasAAMIxZANIbhc02HB7f/de7sNH0Ff7Unv89OPrYRTxvwAAEAAAAEDNA92lOY/Pq9zQ3V3lYx63azLgfovnCAAgPMMGAbYE1QAAe7FkCkQj7JABwOUYirABejqWbgDgaAgJ2WhbZsgNAJaz1A0IpNnSCoAnLjs9AYBJBABQvewdhAQYHSVhALqZ05e7ACO0G9kAbvZ7mTLYQmUcwgDEPs1sACFVpgKAWVJV22AQGJcFAD6++OcUAiOYAAZQo9ldNiiANvjHBgAwdAsQSG7KgGyQtTbgALDJNiCssGsahYB2LAhAQLdBAgECcCGGDDbxCADI1kIDgSFjDDUA4Fg1Lw0hLHmxA9A6Iuq2nS73nNz2q6tnX/csJAwAABAAAACAxjA5rX2/r7PdZTg69rs9e5Zxz8MYAHBXKQJA0rTjOQAAUrXbiVEIuxMDAPT8ZAmDki5bAkAakrCEFKF66VUTAInjJSxhQMqprjYGrVhADiCCnLPlBiD0cbpoA4SgsA3AMqgLj+dGKIOlWxoArGv3NIBQBlHtcdwABNynwUYIYjc9Deg81B3YIkYCu20bIINzldQWOQQ9DQYYK75OoCFSoO6eu4FYI8KATQ6BIAkBgEph0RAAAcYGbQMcY/9LEyHATrkMnM5yGzIcIcDQSMAYoi3TBgDjW7mAPKWVsCQIwMfH22wZSKknDgp6Ft6Ovk/3vT7T65KKa3UM46b7fwAAIAAAAADfXk0dt9pf18LXuzQneWdUjkd1QMiLCwDA1QLZkNqCiDIAMNyBVEYpg2QDgBMiGgOJXLMFAJDYPpq2AroFBYCJnk0IQJJsRgiBl7WrWiSKEPRL0wVAquhpYUCwdAEG0Mg6ZMuWZEYfJsA2OWKWABQyCFgGgIHOIGwssO9tGzCRHHdhkEKAGxkAZcwKKUABdArAAEPaOyJCEoCP7nwWAHKJSOTbbnCHIgCQIEYMDAA0MSIFkAHux98LCXDrtUYAIEFm0ACYLmUChgiAiyUA0x98yksBKMRV8DIxgF462gmGgPu9jMB1aHafdEtun2Icr58vtweM4trAiAYAIAAAAABOK7dL9+vMOY9qHVdm342W2re8vXS3ekYCAK45oadB0BEDAIA+lI/pbmPTiLYAoEvxLAEIyawPNgDm2rCELWEcVREDAJByGbQF2NUeYWMAjfYiBxgDeyoSA+gb/DTKQhKMilQDAPLVQx0goH2XqkEY1joiAgCQG0uAAZoMENjAze02lo2SNgAYvB9HtTFYjOmyQGA8j/s+GwBzJ+Y+BYCtnvcPNzAW6P75tQLl/vFlrz5u188NAPjypz/8LRKw8XH/019eCgDoH/70L//vTwIAbn//w//3cxuw0f0//p//YTcAov74H//Df5gGMLz85f/6049uDEL5tz//4TYM2PTrX97XEgjAke+9AAIgZGPQVVfXNj24O0+7tTF7W6JJkJsFAIAAAAAAUpv2kfs4RS5qzzluOaJvNVl9nA8zI5ZuAHCznsJzdmO807OFMaYV8+/3uQuEe8iHAICour/v2g0YwvdXA8Yguq9VLQBH3e5OALC5/O21ug0G3f/y930CAFQdf34JgcDl25/+cggBcGX+9c8v3YDx7Yd//Y+fbQAjv/zLf9wTAGj/9Ie/HIAB4POPDWBD7f/2//zHqwEBofq3H1MAhrr8y7/8aYIAXH/7D39oADC6/n//8V8+gQwQx//3f/3ZAEDc//Af/p+/t20LBvXn//AJ2wDHD//yL59OgDE+/vqXv5et5elN3t//7fs//GEPwFhcXi5tIwz2hx/+9j0AmHbfZxhjzP7KUAMAjPPDV/y1MQBPuXzrBoNZ3/zyd19hBMCy7m/fGNuAt19+0dEYA/t+07TBgGMEc2I/nrq0ae8Rb/vldJp6s7zMUx48B2ALAIABAAAAlNH5Rf0qn26rqGZt5U2KEPvxIAyVAACVy6Y+kBCYkCUQ0LfqqHAlRtWmEQC0Q1VHr41xe+eHMyCETbE/Xre05D7m98svTxaAjtbt+19NBcje+95HGwwYpukWgNC9XI0FGLrPT7YR4Dvj0wIWYJ0wtQCGao9xgAxg+WgZAOhjXRKwgO7rOHafkGWMFQYLUJ/Wt+MAAGacDcYyVj2Qb+fAAO6HenwqAMOyjN+ZFjZ4altOAQLD9R8y6uWMiTOTr3M9z9UCsX/5K+crGAtdnn79MBoAiOcv0NwBLG9fv1n4CBbQ9e2gvxIAsPwi+bCBjOzTmfnztxhB3Pv8rpEB8HU5h4QQ6O08e68AWXBsZEETn5a1Xhf2uf20nHxLHVN8RntGS44JAMAAAAAAwi1fjs11GiNmzpI4qAeuzWm+pMiSBABobE8jjg98M7BAPKosAKR1/WVMWgB4jC+OBoBdg2/W62kGsqxt+/WtsABy4/GrOXoOLJzeVgQAEcvjF64aYOxlfLu+FwijHMtvxyUWABTnb9cuBEYPMb55OmoIgHUbX6yHEACh36zz4zJAZoz1O17AwtA8/yKPNgDm3bd8KhBAEd+Ml2EMmPV5iytgGfTFG802ANzmb+iXRsjouP9SfWsAsB5P27RABmPyACPDPb5aPI0R4I5yymCkW73ZPp7AgIe73UYWcHn6mvv92cLgfaJpMJgXvy0bABBdsgELuBfeNzCYcHH5+C1gUbd3X+GyjOxYVve+YYT1SSvLzRjadT1nKxCvjXuP6HiJJ47t8XKUI2frHmnUBgAgAAAAALeIr/PidF0/qib76649IevwXtdDoZBtAPDLh2ldP/yxAGRlA4AgV9mf/vgzAKTkaQBYU2Ol//5ZGKwYFACApZX69DlkEPHwqzAAAPWgOXcwaGhZWQw2mMjuMNhQGlZhG+wDGkrY2HM5nbnJYIz6ODxK2JjU7tlgg62275bBNj37MNi2Hb5zChmMsU/HjsHYqWpbdmN6Xqrvxjb2GOUAADPvt2vfWmC3zSEJ221LfRzeDW7D5mnTNkC69g8GsE3ZUhuD8f6p2mlsY+QQsm2MkLwDpu1Lc1TZto3bsAW2bebHy4flV+W2TXlR1sRgcFONbNv0jMhqbANR9D7bBMeBHlTp/GKN9by3toeHsUiv7mrLAAAEAAAAQAQ3PzyS2X4kl1jO81J+mXvkx3wYcmWGJQAwS5i+XQV2w0C2wbjO79Lv3/9tB7jV8gTYtpFzC3368e8FAPk2MNg2Zh2+/vB9AxB6R1e12xARQj99HwgswNNVgC1aev27AYwl3QwYNbkMzR8aACaz2m03QNqh1x9tMIVm7d02YKnudgkAcPWOu40UOs7RRwCAvc/qtg2y2waBTIvrsc/uthEMdxMAuLQ9UbduG+F2q40AT/J0ikvPxsBry94B8KzS8/ljzgLB/XPhECC6AuRbtZGlaasPIUGHTV27jUXMJj2EhGdPu+1GQvTU5GJJcml01KdpAwj30RNJ4Mlu9jYSEd3+8Of3litj+OTLsrU+fa77p8sa2bf2Q2xqGg8AAAYAAADQYfNeX+i+5XAe27VYD6WvoVT7XU4fw8ZuEsXyEMxzfjEQkVNZbVoJ8vzp7QnaILZP2nR5cpFCaFPVrAYhMrpp1whULOlPF9/OCOrUHNW2MmiU1Es1FsrAVR2TRNFK8fHDL1cESvZlzrYCZQQDf7w9IMC5oGgpEEglf/TvEAi7pt0EKCbcz9ef3lqoy55C1SwCyZX9/ssE0VZfp6syBdFHR39+EyA75JrqQwuCcgcNAk3rcp6XxzpOEkSYnV0I6hA9f6J6VQATXIcCYF57Lu9vPnII3Ar8ckJAHdFmzvYihE5gQwDHXhj3ESkBYUs7Avq2R0W3HUI4tuVLZxDAflDX9+viEED3DF0fEXC/7k2LFoCuVUdOoLavYzEPEVudRNt1nrrGwbIguR0AAAwAAAAASsr8uDyNVsQDSURVPFnH69LPaol2Y7ewgn1Tv30cAUioM+wmQXF588Xn53dPG4KDeXk67K5Aso/i+fnhZAHMtrARCONe3npDoCRpCQNIUh6bhIBBeD8AyZDe5GVLBKiiK7odAEtg93kBQNkV88AOQMrE25ABiuZoDAhJfoO/RIBN3xdP2ZZVdDFXAFB0H/dUaVjAve1TAOCbq3tKABA7ogyA9pqvXdMpAdJs/ekbLAzH7DHuvUoA0RYNgHoivzEIQJsb9gKgpbLDzWqB74+4AwBV2bBqPwPYZXw3AFp6Lto3A6DF4DYAUh3rl68tAEwdQxKAY328NyAAOIWe+GTI48PDBzYhxn5tRbfX0Y2X20jkNAAAAwAAAPjf/zsRKr9ZRKAWDkCG0cvLxy8U23XtuRoE4JRenx9aACiiBQjA3a53j5mAoeax4BDQ+3Bfzl9KAtSSsS0AKNXy7yIBhOh9U6sDhLr0jw8BgBWMBAFoAfzFbxbAEs4A3MOWPcL1zycAPGapMQKQJOqrrywAOyoMAHC+JyxfAFip/fXRRgZwz/2srwKwMEy3AUCoklUAaPvUt6H++LgaXKbpwMKk4rpSLgA8bw/Z79+sgLDmeLg1WCDmQhkAdPrcyDMEgD+dkm0A4NlVtJQWoKPlDsAyMbGnhgCktngUYAKGPC0AyKL2DsAIOyICASilaAAMzCrPNgAsYuGhqP64H+G9iKRscMRLkL08XV6fMb0AADAAAAAADA+3+Tg9KDeVWZ3ttvSyf/PuLO8wLxuWAAu8LgjAZakHIINj0ORSrUAb65sQtgByfU4iKypBMcDGAE2e1VuGLGhXeV8aB9C9dJMyAMU5q7EEcCGMlwAExt5lJQDoHh1hAZodrwcdIIvW7LkmALTnfQkMGLoHkgDUsyOnoCUget2cAgC7RoSRwFK1fLy8FVi3D55x8DqfwERdH+UJArSqU1SXQTSe8dVpBWPCt6swgCUV3EMAXpaIvh4pY8GtHFwNGEkpsCwLFJgOALQNY9K2ADEtT4HBim4PGQAUaFkEACwrnIQFgJMhAYDUpU4BANXRP39X7giLFi4UggqHaPTzV0uJHgUAQAAAAACo2U/j9fXjz3///ocfv//xh59/+Onn959e3n/68f7lAvRxHCe1AIR6h1vZGITbVYAF8ultAMdRmHa9HC0AiKWPfPK/fn8pY4tQC4yt4cyUZDCquWuELAnKFXGpOjCmpKoFtwHDppphg7Ez6WljAcqjusrGYPt1Jm0MOMgoCYC0mQYA1Fi+G2NrZ9kGYQkDBDYYgJE6ORoZsA0NAI4QLj19GwYIGhWAobs9u2IVGDWZIABJaBlEA8ISWrHB+JjTadsAJC8uAONIz+YywRh6Hu6rMFj0bMAHBjwkdwGCpH31bIGBurdqAqB5oL+/r8MA2B1bTcBA30DRxgBQzLM8FjraCtu4HCPdCEtfL5YUbgAAAgAAACBc3dTRk2ULMqayfcyhddAGZWxkGMAo7L6VbINDtm3agHQQezFiAK2+OgQymBzM19uiBctld1kSAjU9LXFrQFp9lCmAod6rxP6pgS33ej1aIUBB+bjKr3dAtmlLYFAfRL8e2BjsbiwB0MSnj+lrAQQjRzUGsGIDqQzwoL6/TpDAKBKm2wCecAjbAghZXjCG9R2DtAGAkMRiAAi1Z4UNgOTd1wkAhKdTMth4/3xrL20MDtCqVoAhWesIGsCir/eTCoTduh73vQ2AuoEyYKjZwgEY1PP6cr8EWFDWCGSwnMv95fXTxxIA7UXkEAjJ6HKRhQDgaJ4gNWTRrQVMH3sp5Bb7RxTYGACAAAAAAChtW2Rqi3FMxhL0lLG0xIcPgOg7A8CA5aplswBE+xCYALr2vYU7DEzHm9yNCaCOl5qP//zFyQipP8wbtm159q2OOzgFRBztwwhAcDi4HVsAe887x8QGELu77WUFwFCtagGw+rI8b5JAWHZLBkA+zo/BCAx2L49qA0DMq3sBAZJ9/1jTDYKgp0sSgNw9ARsAbFgEQBelc9gG6FcHCACQKcK2DWgJkYsBO8rqvZwAKFbNCymAUHdEWgAm1K8fdwRITdz/9ikEBgXLvpMSgJH6CKcAxmK7A8C4FG8vZQwQyYcZFshOVT6/W2cDEOHZCsBgnjtOngYAYKo1+jilbSREpgJERjjG3WVXZAAAMAAAAACk+fGZW9578/TY2eLwWk3PKAKT4MY4AOrYz6vCAAwpFBgAte+nRXGygI36vDW2LVTs9xd/hRDIdTBsh2TtzghBDoxcEwbIAnl2Ox4BEK2lGhsEcYTWtz0GgMV1iQEA4D5vnzMsEIs72u2UAQcpawGZATsIAOiCthJkG5LCBkPg7KkwBmRkSQDgbi4rACjVYwQAwFSlp7CACKRcsADw2IQBRDHOvhojg/I11h4I0Cy9nnf2BwBwj89eJIOJ6LHNcAMQ3pfJ61sAWtFaMmWw5n3riBVABlfxgENG4qrrMQ2WneNeigYAsde+qEE2cupjCwCgbiNEO9zEhLbcw5bbSNEhq49WDgAAAgAAAEC9v1lzg6xeYoaOodpNT3euhUTANGBgFl2zMABL9LUxNoDipJo2BhDRiQFAkSMWAIOEjmkwBtEEBgOY4UzsAKR8GKPdxvioyydGNMImEs+7bICk2lIrjFHX7nuDwUSmAMlgwvg+aWPYArcAAPc4wd0Yyw5rMCwApkPHLgBM0M6kMYCUxM0AIE4L4AY7HqpCAAYXCMoCgM4AGYOReQoEBnCu2+lmAFscP7y4DQCi3j4mCIQV151sAEBr9L5jEMq2p21AtKuDCQDKPD6tLWww1MHSBViyzqctNxsAxTLqXtgCRt7uMTAAEM11P9phOiMCm5r2EpqHxuhNYHUbAIAAAAAAgCVi36d7epeseZOpRmVfDXU9+pCMAXL155lGCFjo+2tjDEjrObchEDCAXADAONd4WCQkYCz1CpYATNWlBACIDz8bWwbMaNySEBIxlIQMUqbnFSEQUusKuADkZbAAAkj2A2EAsA8vBwKBofZFbQRa3IqtEUDYWI0xIHflACFEiIqlJQCZIAwWZtXt8wUcgFhiwQEIJHzckQVA+Lj3qZBAgbQP2QBweMwqAzgHwk4DAH0+n9oAkBlFAgBoq1jZASDOo66vZyyA0+m1zYfGgLM7rgYAIU6nEwJmeeZ8OCmMweSiCDfIKKJY5msJAGVs4/gcs8ES0yhkE7MTMP2gyLFEGACAAAAAAGiJXqZjdQ/slpdU2KKgwCPr2ggBjuC0JSBAAqsaAAxNpRBAyPd7AgBmH0GCMG58HJu6G8miSkcLGUsazcDYOMa4XhswwBJyLC7L2AfL9XYAYKzcbxptBDDuV7nBBs1pohvAEHlKTZANUh9tAzaa0mGMkWVkfAAA0X3rLgyA8T5pCYBMQ1sAgI4dIRDQLt+NALMoNi0SAKj3aYUBJH/6cVtpA5BxXLoBAOHMWDAG1G4NMODKWtoBAODLfY+3YCzmvB51VRpME5RXASbUfbmHDMgUj5opzAjn/vry/vUVBMIuxQgwkroOnVcbAHxE0oPj5WHrw6CgFS7GoSXn7EsHVGEAAAIAAAAgJBGn0Rdnk3TGMTZLHVuOBSDcmja28V5nv9wBgMk466RWGOienncwQHXdZoEnEOu6+9jBxqIOhkXZ9anAY90Agw4vXmQLAeKYboEwbupzXyYgpGFCYQyg7FIUCATykAUA3qdksEEEFvsAS4YmaACEq3vODsAY6FijAaCj750Ahp6xhhRuAGIboQUDcDgfRhsAkGAHDNismREYALHfbpcEAHmyXg8GAFTztAEGUWENFbIAeLnu0yCMSl2zMw3Qd6DuAODbsS8RAGDuDvfdAKKblWkBhhyvf31xAxCeXG/xMBsw3dHMOwDu0rquJxkAhcV4VMbzwzcPGdsyIoULWqomcpFdUwQAAAMAAADA95FkuRQqg6BnTxRjVnYHtrsadwJizBEBWPig9rNNW0Y5CydgwNZWN5oUsO6z9AiArj9Hm70R8khbtg0ARUOmDaCuWLbPEyzwIZ88hrGB2fezpgCANpPFkgH34okAgHZkAQCiYp+3BWREyJ0hC4BVZB0GA8IanRYgwM/bJ8CAsXJtAQCyvVwdBgScewoswFaMe4MBIu55BlmAy65uMGBqUmAsIDjOmgYwkItv+QgA1v2+zgID4enUaAMgceArAPbpqpvdAKjrodJDANQcJ3vKAED7UbsBsNcKKyUjkK+fFhaQDSi5t20BsGSMjbGt098FNjJ0BTQtyQ2RMTwBABgAAAAAGrNO+XiJCGfqiM2zls1ZnDpxtVrttEIgycSyALLoo06AjcElORaQZUxXJNhGHPh61RsBrrBUBsLxUFE+fAUAlmXm02WuNgDd3knAoO3OrbAA7OoFDGCwemxXAwBy3dejAYDsZToNgBl4nk82AFr3sGwBqPGUAADLIgEDyHHL2QDQVlePTgCj/XrijDHykm/zrwoAYBsiFwNI4m55GgDAQ70bgAhqU4EEJtXdzzIAwKVYMADq1hwCkIxn0LYAWPdCKxZC1fM4rRjA8TypPmGQ6Z5AGwC64ziPASCDi/vtGTAoxmP1AAOSr6enPZBlobgmQWxehQALAMACerqsvKcEAMAAAAAA8Jyn0vnBQ4QTC7AEgKu7Qmpuj3QgbO0572Cw1iWrsARADNxtjGFHjHEsCMlOLdvFIPzYH63OcM9BK7BeR9oC0+w/LA8ECN63MgEjDM267kYCurqGbGFM0MeUBGARodGNhVEeREsYwB6KfTFgZC+MDQDLROyAAUDq1/PtjC1Lw/dVpgWiRzMTA5YnaCLLMlCXWhoBxl2Lt8DC5nBePbrBsvP0pHsYALzGLcM1BNDo2MMYaHz0lgsCQwt3CwNIjTxpjOwZj/f50FhWcEIzBQZ8OKLSAEBdnAAAxFiW/SgsSxCaAgCMj4fxfgIgIJYIZIyZ+xOXBwx0tIAWAICNLQeOEyoAAAYAAACAdR4ujVwi4OgekQCWZbI7TcjDgIxxd44WoM5EbmwwXb6r7xjJThF5HIsUuKqlSCEDEQ0mnSCjSAEYEUYcjRHm+VNYyAjj2e01DQAxprxeSwC4BJEgGWKbamMMQmR02qLDTGNPAAGdI+8WtsxgrJ9rLmAUSAE4sY3jcQ21MD2iEYHUyMibUy0wol7H0wZqgdoyYWNLmXOmTLplY0TvLRm0XWJEKm2L1sT18qVRO9NkeCRurF5Gy+4GiBIaI7LBklMj7u5jBc63ZTtEFAAKBXvLggyUY0pu0UHulU03tDJiXza5jR2OPGZktzAD5yWPbgvUYY2UjRACEGC3QEaghuw9EwCAAQAAAODVMxy2MfOGyJmLwRhQpEKqnRaFzdTdOhKwp8aQkPtATd8DDrAJCfp0kmfbrd563w5DUBeFQl2UsfE+t5d7GFqHTS1S+wBAMrfhaNTOyLkN6l7OBs/WXi5LHgfJZLbacZvEXpeQ3G7rCCXsd0E5xt7XawMzLhkZdaSnab+q6/Ry2KgP0sfaZV9N6MfqF88fRtmpXhyTpV32p4dr57LN17tbU7xk3Nbexz5fUo83qanLrTIDMxYfw3f5uD11FciXCmXFtFZ6p3vUfnK0r+O2f55fLVzDfeSOwoI7i6nX16Ujy7mlg8/qpUe6/Bkfn449U+tdNry+X5e6+M190+H1sn/sBweBO16+tx7z8u7i/US+fqyr4ytlb0vED8cbOtaOrSd//+s54kmMzXH4aNlBr/P6sNxvQ5IsAMBWgN0OgQCGGwCAAQAAAKC9NDosuR2PIbuoEAYA9HAbp8+b3aXO6eiO/VhSdC8PmYwZfSF007HYt6ujfehlQZnl9lGLzbx0XRWYugzc51KRuwaSb8s06po/hytNdUnMCy3HMTXRvNQ6NI+7mH05nm3LNe0bwjGIZauqOlZeiHl+ihm1w3V0oShTfVsTmlh69t1suVblqAlux155W6W7VPW6Ri+K0Q1HzFv1m4f7c9VxHwRLbIGrb3t3ZjpqdH3mHmv7aMp7fNzFrZeXJy0hX1fZ55j3dUzpHnzI0FzX+X5Zb1ozN6z2vNze0rPXc5yPG9Yu5ZAUdQ9FZXaN8+3OoZw7eb6YiLotcXiqvcUc0+veo1rnwww4roxZhyMvhyPIp/lRsWidtWaecTzo4HY/lmcRiWqsGV2g9CvqzeE50+PUvY7EFmj3PtoyyFgWYAuAdlcMhNHIBgBgAAAAAKTXPFLQLYVLEDFrAcAygXwsewnjaguJCDVIm4Yd5UEf7sypk2Ew5vnmVRv70LJoV/VjLoGF4+HV1qYiaugg+n5dJCti+eajlbhI41xTxXySbfyoKQ+1iuU59jIiE23Ctd3RSgXV15FFwgh0aLyZHI6Nisn5CO1eTtHVPc90unGErayQ4lF7b5PicW67HLOmyu/HUhE5jEYo7g+hLBPWuYniOO6+oXp3z11j1br2/vioqqxAFsGNtbfrsfpJ85Ky4biPfBlfdCw5NdpsfS19NFLEonnwuNdl5FId6yO7X/LBqX3RSD5Gxuala/VQrdDb0adtuZdfmG+psbM4mLcZz5Wa99qPM2uwdiwd2qz1/nk7Fjti6kjGyxtVWzqW/egXLVm3baFXxtajlYzKNNo5MWdy6QcAZAzQ0JKRqpmKqJYwAAAMAAAAgDmGl3AukwU3wvrIQ6cBg7u6ax0dlkPdtWRquKqV2aoh2+7SVEbYPWj6oqUWZVc4NLUWO4uwrVqPSUZ0upPqxptANjGkyDhOokmHaIfbInpKMGJIiqHDodueYFEx1lsYBV5yLvk5et9nhLZdpGxnopMjQngc+0N6KWndWx0pEOQ268MjaJRYlsMztozhzuflZ9dtm4ow5lyL9gxJj1bT0a+1nj2ci6+p3lqrfDktfRwMtXKss1bdiTCx9SmO7E+o++mtelmVXGfkdlo7i9bf71ePfCDXKWLpiO7ctJEY7ey5KJzBHBRLbujcLO464XOQSi+3e2osOknJ3I5735fc8mfetMKuenpsd7G8fnS7Htf7G4fj4UIt+gK/CZYDaYz1wWlMQd+1DY84OK3HOW73twIDYAzIgBWuHthtdSYAAAMAAABALYscZsEIWjyS3cIIwr6ZY80FmSiEj7GGsLh8Kj88bQhL8YFD6nMkzcP9fb2senzEgff3KcZYNWzH8WH34u1JAI+vR++RSwzjqONzLcvzgwD0sq/z3PkgYR2fr53StgKw/lR+CZZFRsyr7WU7B8h6jb5WnB4B8MtLOz7/YiUMlfN6f37zGAC6/Lyb8cUjgm6Vd54fVvPG9E/dqe0JyfAev7CcnmyB9bnuuT1tCHsGF5+WcyCj/MGx7O9/m36I9uWn/vTuWB5aht7HmKflKd645T28b/P0kCB4/VCtPK1g3H+rTx+/XJ4Dge+fCWk8ydhxv15vm5fzE8j9OqaZzylj3dWvRzw/PwnD53lXPJ0HYPoW+2XLr5MnxL7eoeLJqAk+XnrRl2cA93W2++2DLDqIXpfL8giAL3Gfy1xW7MhZS4gZgAEAAxgsFHJH4+46FwAAAwAAAKCrAYpUSYCwcPdiEGbcX8wyvlgEYEI9n6wB6Mef4MPbfwqBj+qOpbaOIMT14+FY/3EBvAt6ia4FSZqfb0TkUwBtkGYUAknHpeZ4DgnKDz9OzcQhB9v1pRmnryRoK2cRaglEvB7NhzdPAbaPPmbKFpb46VOL+9dp0eqjj9G7W4D6ujcrQra1huljH8LCL5cOnwVu+Obax+Xstiw4vrfH7QvJjeWjesyWCRi1cyxvg7CJdt+uXbaE+vO1+5qAZeS4Ts1vQDLHazn3Z0zJTs/j8zsbC/pyWOtbjIHq630MaMnw4VNznMHGiFnHORsA7p+r4/pF2gJfa861MMLU7Q5pU8Ky57EPbIHrwycT22O2ZLfj45NEC+j+6SDXL20cqrl06miBjYwBy4AFRadtwggAAAYAAADAqH0JLmsqMABgR2Bb2KgmZrcADHj2BBvivgNrB9AH0DnBho7Xj4Zlf0C4sZmc3ImtuuygS0uAG+95dmOAnz7h0O/WxFDIu2YlGL3/bLRbFuBQIdkY8MtneD2+lDCk2z0KDPi2A0wwQmrXvIEF+KXM/PwEgNJd/frx92cE/eGKLo/PyAJkqgQW1vsXiHPLgAyFFiEAf76h7R0AMJFKgAV8erGDLzGAPff9vAIGvb4aLCDArqNmGQD5emvW81NYNgFUYgD86SNIvwQAMeeYEwD49ApUIwP0MbuHAeTj0x3lpycsAO63VUYg+3IBxq8kEIiYeyCBuXxqtJUwwLI8fJzDiC4JgBIgbNk2FuFl6H8CAGAAAAAAJF1iDSg7sRwNjdpgO/TwsR0SAAQVcoAwpEDhTtBSNPdZSEY8yEhYoPV+yHtakgUNEKcAkLrJLAVhoBvqQCAp5dpjkRBwNtggkNouEiMA0eAGEBG21QaB4/FnHGsYWY4mam4IAAmiboAIUcLcf/h9Y6mN6wYIiw6iEYBIwAYRFm04DADuvaAPywhSpkEAxgXVQgDKvZMlQMAWDSqDLFStukoWoL3MMWVQ0G0oyQJkg1sgwJZcUwbQGsY5IDCop2sAlpl7Q9/klEW7QchgBIBRAHLbexsA0iAURrJgz9JoQbWMnLbDGGMHbrAbFQAADAAAAIBahuhBO6xCbTdC0VYTlfrqMj0eGwAJu2gjQL+8F+OtZNB6t5Y89seQjLanvfSwgaVcs4K+boEw65tXx/IGjGC7M3NaIKyHi4nnE0ZSuj3H9QlZ5s3j7jjLCDmMqhYJgfP0AsspAIQip0ISAF9+mI7H1QJETKcPBODl8V5jfGkBYKgav/ylBY7TYZ2ejIwE0G0QwPOpvJyHZYRkua5fyAK0tdm2DkC0wx1CAuJ8a+cTGASliCURANu5HCdbIMRgZxoBjBPt09cAwGfDNAhA5xfwIgABci2JAHh6mtZDAggOsO8GDOt2t/JrI4RkbLCF6rqsRucwIMQxYzVY0I9Ph3gYgJC69fBasgMQtkVgA+AGWTbmfwMAgAEAAAAgJNLOLmGESxi6iVZj69dy7g0WBK60Q0Lw/J80SltGGB+HBwbB8vuX43zWHMJQLVVhQCz/eHdqtCTjkOlpA4jv1p3z2yNDQEuhurcQsP7ucjydqQRjO8sVAhDfRdX2jS0AA0UBANs/To/ESAZLQ4AFjN/ux9g2C0BQSX69GlB8t8x4Oh8ZYFkhGwTA8z/c6ukskCES4G4EsH7zsfQwBADK6eL+BIC+HTuP7yzAwjBdAMD6m3ld7TAA7gYEAPr6Ose4PIUBFgy0DKh/QTG+7GGwcDuiwEI+/X56CQAZY+Q2IJNf3zoeNgCsAnu2DMT45ePU+lYACHouFgio/IeL4oywAQcRou15pNi1ji5BVwTyvqmM6kgAAGAAAAAA0Ek51HIjqQ0OOZEDIW1twZhKrL/OlTZgg/IBWtgIUh09GhsgHh8RjWWYqKWDNoBOK+GWAts74DYY4OGMbAS4Q0A82hYw3r1z2FgYUI8cNoB4+EeDJLCDliq7EhDjCdkAtqwQNqYlxRvLGIwhI0uqcoD07m1Fzv3RGIdtwIBg+YqgJtjgarcDA2J8+00rFKIQZSsYNkh++I0Vs5I2GCNjQLB8QeNpNYB6NmmDIL4B9WEw1vlTEcJYwOkfsabAwCRwX1sgelklT8ndSmH7aBlZHr8SWGBwqy3axrLO6zMCUWHRpk0bI2LdnjGBwdg6nV7aPUcwezljsw80RUu2j5Y0+jMAADAAAAAACjlkrOqco8OYjjBqSzaZLRf/z6/fGN8DZ93e0jJIkBYAxsrn6wEtSwSgAEx1NIK2AUFABABl2xEIG5AEEhi3wcglY2QFsoStpiYFwjKyAhAYbCNYdDdGEAYJQ7e0GOXsMAYhJIy6whEEjWwEyUBagi5F0UYyyEKJvCyAO+ryIKltEHIOAOMW3PcMKGNhMmUS6A6wBGAEDgFsphFGkUvPNJIjwdpMG0gosC2LCGSGjQFx9PAJyygAtBr6toURyjZYMGQAaEBdVie2kCMwAJRAMsrAAiVgELagycvN7sb3OVYfh3PNzokqNF/f+abBkV7ffAIAIAAAAAAso8BtXPte3S1sz57l7rJRKs7Lv3s2+Lfpnj0NBgwQSJKrgz46AQABAFjui0d3tAADAADYDUgQAJYABGC6DMRIASDAEgjT2iRxALYBwEbYbdyCTIPBIIGw2mTFbAtAGACDbRtJwhIAAI6w3U1K0CUAQFhg03Y+Nt1ICAw2AGCz0S0hCwAZCQDIrPJhEAAAGNOGziUpgTAyCAOzYTeJLQCDkAzYxoyAm4VkkCRjepGVhCMMYDACoLrtsY5OLAABEkBP2yJTdUhgACQAMCBN5Bl8vhzz9cPVZtS1FRn+9DR2K3zbKz8BAEAAAAAAZJiY+z7nWGY09z4OS9Vyt9tIIFkDDCGTyJaQBGBhW5JcdxoCCTAYGyvW0fuUGgkwgI2NEllDc4IQANg2kEHjZhoAADA2RCACAhCiAcA2kiNtYQQCg40NSvnuyFgFCAAwQEQT2KsFSACSbNAIRDdIYAADNjhEJLmNFDIAAMakYIEIGRCAAWNHGEuRWYAAbGwgAjSsnBkAYAwGKwUpYQwIwNgAGGJIQQEYsDHAGIAiFUMgADAAiwztUKQsYQMAkGFThKEBZAAQSOAI+Yy6rzNT16Pm7Vo+LfvLnB8vX64vbUmb8gQAAAwAAAAA3VtLpfC+PXQzPDLojmJASxgAA0LZUNwNAABgAEciDe4IGUAWBnBu0TlzDWQJAYDBClmuJdqyQxYAYBGxE1ZLgIQFxgAKhaWUBUICCwBCtEPRBiELCwxY2VhGYUAAAFgQYhYwAAkAA2AEoAzdjRAAGEDCXWmHOywBFgZA0dp72Zb9igAAMICiMbG07h1gBBgAZZtU1hhGAkAGLI1ugoh0gSwAA0C6ETGs8/HpqwQAAxBuvBtZkgEAAFDKlhydjQAwADjWMtKkvQIgAIOMDF21F8J1iIuMS5c118093wx/PBRhxfQdAAAYAAAAAM0iLw37MRelBepZSbhFGAAAAEuivKSRJQAsACBkmZMtC4GxAANuq0oSCAwgC2R1RwEJhIwBAQIYKUWnBcIYWWBkIEhZIASWADAQsyLCBWAMgB3ISEsZSQjLMgIERippSQMYGRAYAFmSWRAYAQAYpGlXh4VkAQAYIGwitiMBAwjAyApHcld1jwYMAjAgNao6VSMMyIAxKAkp0YKMQQAYRACWtf9UiREAGCAgyiAZCwAwyISRlaJlEAbAYMJISgmMDACWAVDEQN2OkVkx2sl1nzrOD93Mewd9NB7rAgAADAAAAABTcSx99bpcyG0E08eySpY7aNsgMACtqLEwbJBlGQxgGdzHsglAYMAAFuzI3Y0RAAAGycq9g0aAQQYDCAsqJiEABCAMAny3RDcIQFgGZPApO6UNWQAYECDbE+ij04AQWBYII6LuaQRCRgYQFmCs61sQgAUGYcjlLnsxAABgCcBC0pSRAMDCCCFiNG4aCQAABFiE6H2VQGADIMCgBlIAAgwgQIBoRXwVIGHAEjJGIdF3BDIACAiMRShDwgILg4RlGUEihADLCAGyoFoax5hHlaaZ7thZ60dFRVhJZM2IAAAABgAAAIBnZ9Lnuo8HHxfNrDU1R/s4BXYIGYMlEEuVc5UEkhC2QQGCDkMgZIQxiEBDTS62BBiAlgCiy6FeA0AAYAsA2vQiI2PZAhqBhLbJLlu2DIaWETLC9KFDpqQWGEACDEKSwS0ASoRl54mqiGmMLWhk1AgaRdqWLWwAEBaQijgVYBoDgABLO/WaY2DLdhhARmDPo0KZjTuMwAjUiLJR29jCAIAAAGqh3aIBwAKpJbWpOg1KBhkjsFqyseUGkDEYZAIE3utBZcAWGIQ6wL2MhaMaGYQNDixUML00XY7j8b7XYKj6hhOqgl6OWMIVAADAAAAAAAgWQsG9mTtLrb3mrPORXrGsWe7oAITVTVb4oHdMXVeyHchh3Rq5d8+ydpvqMYbFpHbEiNIslzu6Mi1CNS8+wJ6ebWbNFYnENtZdacL7gY+L1uEMWTZl3TC1+ELt+0NFONJyu9kb3KMu+DpHaw3CopyUuy2Wu93HbZxKSxh0v+TYbnIuMS/afb89pleF6ftxrOdPAnNc1HXsnesSYbxfT8NxdQR1jaJbZIQtuO29bjdMjJ/Xej2WjneEkT0dM7IYGvuH0/GyP+/rgx3tQ/vVj6uJDN1eqU+Ppwghe5c7vHyW3bqwXzuWNSNs90c7l20agMuxU6XnDHvuefV+2iIEis/e53hyp6i++7I/PLBdPUlejpn7EqFErvv10HjYdh8+/KFfZ6yPacFxr75HPC1Hdtvuz/108+tsdUslhbqNjO8Kci8AAIABAAAA0EuIY1egGvcHLzWdWyh6LirH661C+yp8yippujvbdeCX/fy9twddn+aI6+NFdHhWES5GN/IUdadmlHcestx2lKAnCZOTX90dwlMcYr+dWBFk15rYkynpiGfbPlbLoL6tJUt4BvfnCB8CZkrySswWCvqhOo0FM9PCHt2eqzqkEyYEFdoWglVyh9yM8bDfURqxbZV68+JYfcVexiaXsd1+plZiHl1DpBMO08KK8xlzumlbHZnL3Sc6DE0sJqOFupdNW4YeIHAwGOsJFIWbrZanNpJbrIHKkYBj1erRysaGeFchRMghrcrjUTNDVp6Xp5baRTZe4oQdkgSP+QbROgfBMR6nHugGCI1naMLKveXTmSZbYZbMFI7qyYx5fn5Sz6oIQ0jYlgzKpFk5ZQIAAAMAAAAg9jmUJ1/V9Ho34whd1+GpY4Veb/nGgDWGrP7eIisXo5Pmsph44LTkmzh/mrjrlJZg/vHLATKnR+E/FPQtVyDsewYRZjzKXD5LeFmMHuTbA5bRWIXbbpVO6TP0MVsyxJamX1/l9mkxTzD3AJlxChyfpiKz1gB03wOjZFtt/OmQ0msg6GvKKLUNMJdQmfURC98LAMZJmFenD/3yqQXHrIGA8bjI9kq1cxsIH5UGS6cA+6quEXHOflJfkeXKbQA9cwKxbJJ7b4zkbcV2h1tD50Wy7ndBwNjCNodi4PWkx66jAoDYUrYPN2bXk+i+gwV5Dkz3eo0RPg8Ouwua0LLIFK+OjHHaNlr7IQdoWWUaSZJqG75KnQ3KOIXpRTkte4X5UMFcuiqkloaqFIHxbKXefAIAYAAAAAAoCl76vDCPxzl923yPrmjdlyPT+6nvmzEQKWawtM9LguC4RrTU5IJzKXek0mD19ZCRIkIUaRSRWGgeNNgC0NNrSU0YGV8HQoBRyHIEILnttmUHIM0L6k6EbOYhwh6yESNjiXqUoOn7CjhoWw6zrvM2T1bTe+CgVxtEZOeSAmHTdNghAyGFhn94O2yJwyHZ0bZgOTaWtKCR7ik3K0ZiJ5Ut2Vb3EYQDG1mCiJwhbJcbuT1sCSWLc29hc7RaboZbgiJrVUvTTbhBDlcAkUnHOnBjTwjjFoCW24YHtI27EU43YRnFihLawh0NoiVkRozgy6XvDlEgOhqhViyRnKCPy+xml0PVaEzj6g5JU+7XTwAAMAAAAAD+1/9m8fF4q8Wat4nmsWY6jyWWgO5mT+SoTLuD4a1n1zC0dHJ7hoQBIlWoBcBDtpGi0tLwEv0UFhjCICMwcAoFMgBsbVu1AmZZ2dZjAWyDGxCAGQ/31ZUgQHUMVRgjmzGUdtsAWrDlygDLHmtsBtqK0+50AwDg2IYBNbQ7GgwgYn0sXTPAgpxqNQgsjVBsw6gRszQEWIBvrJHHOwmEQaYEILoz1adAFjoqAoXAghxZjZFxRCEag4W3Tae+Y4z7vlgVYDkw52tsPvaHFiB1RQAWdiypKtGiDFDRgOXWkr1MRxu7dV8ENQS4Ta5s2DhsRANY2BGPzM1qLVdlk+lj2AjyyNOEwXEanQAAwAAAAACAmng4LbfM5qCpnsmuM+25ukeTQ4AjOzwAMMyfv5TcDAPkovAJADze7CdNlAKz9ANFDwAkGyxwmFxHzrQMoKi2IgWg1roMDwFG0CEbANyZ1lEy4MUlsCWDnKpY7hYYoOV2GnCT5VwCGei022EwEEtRAUK4o46hRoDJMyKfQIB3sOQGwI/3XvIeGEw2LdsAMGKk+Mv5LJtQE1UngUUsJQvLlhRQWSkAOF+z7RCGLOZABgDcC7uJxlKCghoSlmK77ls/rAZEDdQkAHKFy2EMxFGjcQCYiJEtN7bocNikwIJDqPT6bFs90zSglgiIGS5s96hQteeMjGlZi3o5YnYdaAMAAAYAAAAA8x553TakvDzGJddyrcyU1v1gvdexvxWyDcKpq7TYAGiRW4Ex6lqP3hYbAfOnhwlYAjh7tsMGgwEZAcb73UNyI8D3aKUAwFLV8N5CAqQOOoWBFlOULeSQOyAAwEUNje4wUo0wkmRAhqqlLXWYwxmWAFBXH+tCJ5icYAMCkC7Oyg6DCJpepwDMpe17gIzUiW0jAD2+qjy+HUaARGsxIIi3723UtgVY4bABpOKoxLKFcGBAYILo3q4WxOFxV4cSwMi9Lh1bALS1ByEAEFK1ZFuiDFEIAElUoDAIyYopBEIxtpqONg4xZnaALJmAabAxlCsWPDR9yHiXiCijOdeXL94DADAAAAAAcGysYaa8Ho2JY4zjhEOb8+iY4sg9AgPsB4Y6FmHyDObIIXCse+u4PSwg1H2+rSIAwFcSKggZhVuABMDOjOOtQaC1kpYDgJrWQdgCJIKOAYB5/HzQohEAo8xcZIF1NDMebSPHNi1ZIFvkxc6gAxnJOi7vEAK7yvO2ngzqlqKHEwD3/W5xfTLYykMshSSjeq1JLG0Z0OWspgGw3Ht5+yIMQJuMYwgs+36UEyMjl7CUYcB2lyvDxnJbZBkL2bLdEQ0QHQ0tCcB9dOU8WYAohRsBgGdX5QkAIsJkG4RMz3KkQCJLowIkAHQcnbyFDgV2o0ZCrq7Z0mGsHrPVbZzqxMhK5ZpVsYx9AQCAAQAAAPCGbAetoXlajlMdYxxTfayt4epDYwxXRQQAx0tbk8AAci5uSQi9Xi3WLyQhjyVTmCGAnz9CHl8EABJS0wEyx8WOUYEBsjsgQwIv9UqoHAAIrOpFAvThtWBpGSxhUEgC8P1u4rp8KyMcbocBRNQniOO7UAtbSZwlAOiX2Va/AUsqGDYBlvzhDtI3MpKUChfIsumXKU7GWOQWHVgA8qk/meubM2oBS/kegQz054utxbJQ2GgSyEB9fm1x6g4EhKsdAsy8XYoMGxE0Q7O1CqSqzzfAXxgQ4SItEPTcX+3sLxWQrXYTAUBd9ttODBtZ7lK4UmB51vUu5eXcpkNUtsMWcNTrjuWvhbMjRs9p2SMqDWR0BzHE+h4AAAYAAADAp3EdWTX6tnqO/XruoxZzLIvnvq1dnYV0MgRy5A2ISGTgdtpkHBKO+QpkSGD1E49VBgG6XYFuAQLZjpYQ6HIxGv/27xchHIrANQJh1Q5a3r87GRk67AZkvNwb0SWDkBWkAaDnAfTn75CRWhiFQIYyhDEOKVCEJcCKfQKzJKGcChwIAXU/QEeAEE7PWAsAdFyBbBFGDA+McGDF7QBevzSSCA1yGgTk/RU4N4DdqhySEChur7IkIRRx0KQkBDkvhWJGi1SlnISQccTlChqoQVJMQAKI5XgFklZL7hn45/49QD799FowLISFANkgNOp1In3+UieE0o5CAjj3cQA7Go59Oy4dmBaTA3mhOWqeOPzm/wEAgAEAAADAsdzy7Mp1X+ac51laGdfIYywdrTxUk4Xy1SfDObFWW5ZYvmw3PQSgU8hIAsHyfHTIGECbQEOAMCmhkAGc2RYLRcoSiYXBkCMg8iGNMGJmZgpAzz8KLwmdIgjZlgEYpwPz+GtAKGazv398uwCIxKyuIdBoi2iELMVoK5a2BFK4JRkAj0OKxa3AoXLKKUDmlDbYEqA55DYWoLZMrEYyMY+B1AIgcBjJSETG6NDthIWVASiswIIIOQCABOPLWwIcHIsILIEBsCsFqNakUgBYIBEiohWRoc9+7ASwEEYIFEqbFAD2jQB9ERqm3TljGABVLe3mnKJjoEVdEG2y8XKS5U0sjgIAAAYAAAAAGs+UOIjj5vWYp2aUhtTk62m5o4fAtWQD8uNjkeO6NpuJ5eqBGgF6/ogVxxCStbQJpiTwV9fp2NodAkEYSQIUm1v5m77HgwFKCElglgd7LKfFMiGF6JBA1sODIRACnHYbJGHQ2Y6kQ0ZEaXtyBELWCY/VApBQB/MkENZZEM8ZAgRKLGFgO4OC/QEQEY4pI4H6fDqsuJ6FwMF0lCSQY22TiwySV7pCAOAaa1asIUCSCXkTAvp8drPYgNCQSiEE1HjYm2WpBCEGWm4jAFWdCmJtBFaUR1oCNK/jDDpLEFbTS90eA6CnTmUtlgHpIAABcP24scc6BEJqpS0s4eOnJUv5i7BcqzyzjLMVrWjfTuNIj7aPAgAABgAAAAB1XzVrW19q2Y490vZH6ZjbiCCLeb5vI319PiciHn+3v14eF3ZtAAHIbSE/fVnW+P6XZ2PZIAgb4PTN3eOsiQWuCmEZkN5WHnIFtwcAkBrbQvxyWuPlw1cB2JbNkQak8avsnPs2hMXRxC2GjUR8ddOy5gKATTieJAPWd1/Qme5h8ASZrA5A+Zu7xDmwTM0hTLcDiN/eNPzxkEEaJaM5bIEevmzn8igBbhHqbgFY7077Wj+/HcZQImUAgDcWuRjATa127w8A8ltX9YkAjES5ZQA8vjsO50ky7mq5egAg7subjnwYYLBMKWyhuv6Yv9TiKzLImHrzNgGI6OdoLwkAko8VGkD5i/tyWZZFNrKSzgYA4uvnpYcD2Uft6ZtrYM12lsPXsc55LN01v/wZAIABAAAAwLp1jOOFx5x1et3Xn3NKsUat+5H3EQ9D+N49FUZeWo9eFk4B3P785aiMexrg8R+b5EAC5sc1bHd0CJ3PLQEg29d9C6pGW/jNc4eMtgc13jun7DgCxGNF8mgM9n5kRbprAD4tKCghYH950JE9V8sov/YIDLJ1vywOl9JY8rol0Db2/OFxc0XbGBRPbwIagP7z+qZDJsAiHh5Dfmtjfbg/46ND7rSIpzdCNBgdr0+iiu4AWH6TVjuMPQ8EOvZHjBRff7EIG4z3VrXZ2rLI5zdYIEzf5uiqZrWAJZ8ERm4d81C1OpaW8Hh+RFIHxtV2C6WBunx9TjAJbQ5lTwe2sMYXXwaAsXXccTey5fDphCzbnuB9omLYgMZ4EhgoL/OJuleaCSFKJryPGDo4v/4MAAADAAAAgDmqlhHG19iVRzrIeRt1f3q9P7xUa2t7G5UWlrZNwpbcUYc6erYAwMhaMcb10y+jpwMERCMhDOj4y7e6R7YRIIwCWmD/7e0alhUAKISGQYaf4+04wGCBTcCwAc/9sQlSAjCyAYNVL2/DogE5jrm1QGDb121rOQQAbRACNcxBMlmEQQZDAGa9t9w6tAagFgJk2XhAz2MJAEhJThqbuQ935XwCAeQQyGDsikNSSgZQABiw5pHBEYAFRgI14Ly/nC5jTSkAnENgCez5+SR1Lwa8/MIDYVt2HfcRR2enANkphA3g/XoKyhGAacIYcAV9TQ8HBIABMHJp6B43LDUsolNNC2muedQCAAAMAAAAAO4XdN8eUx+VY7kGoTKc4/Ihtn3PnqcsXU4pgWQwoJDwWK37sQYgy0ICAMfs3lXZCMAWYDAQX8hyEQILpzCALY8R7pZCqiMahVzgjLjqrVXHORCABBiM6QDQ3ADsQABgwRy4hyTAIwEAQMdclDWHsMBhCTAA6xK2hZAxkgALKp5FL2QxIzASABjrdn24vz7HtAAbAzYGen9wqNOdAALABmN1jDbHBmBhAUbGQaOHHhIAArDk9lGqpTujbksClgEBqCudBQVAYBkQbebL+eRyhLFARgaM7dhovA8LMAIZ5JLIcXQoBGAk2RY2uR13ozYNICftXjjmLbtOX/8IAMAAAAAA4Oki6lXLPJh5qXX2KLbe+77Up7Gsx/x0xmNEW8ZGYIEtzUrrrLJl3AgwGPDukwOlsDAAYAzatzyyBwZhhGUZhAmqCYz6OkdtEZGz3LGVS2FjAY0wArBVB6IbLLABhGlZLCqkTjBtBADGcgxXUCDASBbIhs5QN5YBYwwIq66f17NFu65DG25AAC2xjM6lRwUYsADUAOPJ1SVbBoMRuIXojgWoEGBbAGCQI8seiR1gAKCJeZ23o5bM18P6+ikaLLAByEey5bkANAiwwWg8jsND3ULYAGA7QPvLW89YJMAtI2M3bnVChwCwsYywwd3dyFKBG3RXoK6IxvP1RwAAGAAAAADUFtEvu/VQL4q4Ezttl31om/1asbBxe3lYZAzYwraEx1PWECsyNBIANnisuOhBp4wtjIyF6lBpKRnAxgIZLNT3dJYBx5hswo0J1lgWT2KEgAYEBoyciyYRssAGCQPY7DerqMUGEGAAqhfIKmUZMCAwYBDKGTKkwABAA55PrkAq+b5utpAsg2ybZuMQAEaAAQAqHV2RAGAJjAD657duBYcBkAAMxnJt96iKVcYAAOChiWjX0B73R1sAgAFrqRazJDAIAIywaMueJ8CAwICMWB/a7TEADAKMHdseHMs4PHtBGDAAEFVeTz1ntdSWFYJQ5OptKX0GAAAGAAAAAHsvvse2Cw3J6a1976UVwfNlB6TdSgvLRsIYy8S8PBItVSdG2AgAVNdjy4poGxswGDCgY1mqUoANUB7GsnAs9sCC+y2jGKLAdOYQdGIwQAsALDsdyA0YEC0AwCNKcdQiwFhgADS8fVNOSYAxWAAA1kaVhGwAwGBZNWK2hYYb0wgbYyw8x9jvS9dJYAAbMAI47lsAwhbCFmBBbKIdDhkMxhZGWGJuBwFgAGMAcYRynT28nKcwBssGC3ofrY7E2GAwgMN42UFabAAMBjCC6NAQDTZgDMYsbobMjBHQAMYADL9q894NacBBOdpxXBZ7PSYAADAAAAAAGPTManlOBdvhIzSYKsI/ocHT/ciOTd1pg1sGZGEfUY6jRtjIFGkAY3gK7uttE7aRAbAAXx8eqzWHaAPGFAi7H1YaSeAYC8YVBjXeDqllgxswDUhgMptyp4zBNggEkOu0FZXYhgYsBKY+v1VDIBvAtrAQ0jVOtWTa2AAYAOuIQ3JgdW6NjDFIGOV16lQatIwRrhAAyD1yzgSMMQCIRnr7eYRLi7HBuAMBQL98cRiMMWA1ACYOKyts120zGAMgGnE4TU5jGwxYIOOeipIx2GADCIPY7wMAG4OxDIgO7ddHM2xog8EASGq9Fo5yGJWsaMl4ZN3307ffGwCAAQAAAEB0HdrYW6LzVuejnFPKdju0562i6OOkdIPcaSMwoQO5lrG7OowkNxC45ubWwhaeTYBNmxSij7sbJe6mwbZESHZfHz2Bk8tHaV/ClLxw27gypzpMlyXTtkMpnH+r7+66K+2JAdNABtK8P2PZdtnQ6kaKAMgCea4uC3Abo5DkWtPpY5HLILqxFOl97M5aq0/7Ymy325ASUs73xAOCw5KxPR0piN63wWXQVFtguyVCyEQdS9hUyUA1ikCytHbsfSzqBozLRNLu22n/HCsxaz21oVpIEkJ91+2h98DTMrbdSiR78X30PWtxGQxtkEBIDzKtffVEQNuWJFALjZLdtmy6EUjhxU63NWycgJZ19kLOHtZ8eAUAYAAAAABQjCGO6CNPx33qokGJHnkoOpIpF9G1HSUCcbc9EuA1qLKcB+rKcB+3XraRVs8pR9VDTwWyes65EVH0OKky231DAo5yxohoNV23iKB20KeHuoUi4mp5zq27NMS9iQD30YNMqTxqLj2CvZGFfbRzTYV/nrmvB6EDEXZ7yrmgom9ngmntJQm55yQWYTrbPuSl9xKC9tGswxXXY0zvxNHzTU2jqmqtAzOO2G4qfJqHkLG7elO6p13r51KdZkVBuPsgUxL9cjvVes/Nex8r2HMuGRFtiCJz6SoL1L37eOjEnKvxVRsuV0n23kMhybrdn+PukaopwN2z1xbhjqPu0/b0NAjXBGUId1NI+/1cBoG7WxEK+xLdQxP2JoCqdspkrpdRZLqtqbZk5q1jWWNPX7S9AgAwAAAAADhonVj2s8ojNX86L3vOzgIImLbOLnK+eEsPSTUtG81eHD2qxucanmcxPXrhOByXdez30ev8pCOCoQzF0XjKz2ldH329x3qRRC6ou6W6HuXne3G/Vz5G3JsYvjvyti9j7KaW/X3Dso8xxxq3Ixf2mYq1H6zPn4kR7MoxapboY+Zx3CPyU7u85NFx0pF39iOm5kwxrp96RKq0tGI/iHmv47x7Ruyv417S8JgL5bu4VZQRJudnc5/hdW2uMbuqNg1pz/uPRdCnodK4HSu+09uNTN1fb4zoo9+k42LmHnCu5eicNW+fx7tdC+vc47WGsjdzlHK+HAOJ1J73qwi6rZjcZV98oUbGcrvnbGLso27oHvre8pqjEu1XUjud25zJiM83tbxEGzcefVS/1Rx7P99f06kIMw9zRFRrlapqvN4UKVVF+6DsEdCoDhpDmOi5UO5MLcfTewAAGAAAAAA8HVppL8mco+wvF4/RXg6nUe5W1M4h7q5L1DhC3h4+Hu3q3nYr4/5TuSeEvGwz2z28L+XN7h/3OIxMrOt6HGU8eVSu7k831A6UY8x2WyLm8Bjzhznwtstjd1B2vt5Z1gP22y2bexOdW7vaEL0lk1kfi3ZYoUh72uCFRczjs1ydwtqFyy11KuzYr7N3O8hQqLrpDqNapq632HtgpAjKsY2HvRvTEev1MoqpY5dnybaejCZ6/SyQ71qkRhd36dn36MrbZXaki05yTqvb63pHQb93+fhJ653Fex3OEWjta8by490pHDn86inzoAzPIBztl4uIoaXq3irwcuvK4Z93mnuEyDZuGvBCjhsv3Y64r9201XK47yuHkw/liGwPppuZbotTXOfar0dioaFpd5l+hukxQ2tbaA1wCHlM9G4xAAAkAAAAAL9dZSIESuT5gB+UsSo4vU0mymgv3Csbz3IeM+51n10Ob4tdn3Y5IjIQ4aNAjC0ijr5WVmyODKlnTxocy8bs6w5WhqQ5NZs29roeo/djzalHy+vaHdvBuk94am++KBJJKGY1VizRS3Zr+XwIQk3Qk+6QEucyNI8929m0VDRtQuFx1vC8t7CxcR8tWmtoGV47Zjdphcs9PdvrKSZLjiCW+4zDkphHtdyGdetlla6FUljG7jpc8jjhU8Rxi8xuovY+ZrcU7tXh9rxVhzpqHsd+NKF2jWVXPPhzjw4C5qy2FV9NnW5GgV1V0gB3g0eWM4uO5d5SZLp8FG4jHAPy3txb2PSc1WbOjIho9ay6y45pH011K8rI3CPEraCha05rBlrrZtPLQhQi5hE+PD2OPj5v7/wHAAAQAAAAAP/94tsxe5Gv7Y1c7x6x+LjMoanmdCtg0b1TdC974DQoAq3LEXOftSiZojtJM4IjOpci7qz31ihyarRFqYl1Cez9YBdju3X00AzciuXx6vNRT3x88Ms2jlPtijrxCWk4TsddpgIaTGRrrue7z8Pz2tXW1iUSy6PmyL0fH9TzXuPeFWhxjwOVRHJaj/Ax7xlldeCMNp2uWMaQj3uvB+nlqM7RpfFYCmc76kp3aDIcUsVyc0fk6HVQl54PvROaLOFjOyryHIT22XNUd6dWHfFhngds8bQfXpf50r3QGe22l1LW5HHgTl+syVaiUbUcy0W2FUZa2zHoqJYRXakNO0+fSsqhO8sU0Y7qoS3ifiQHTKeEV82S4lB46Qh5P5TlNem8MfJOTm+bG7goowfD5fDteYpJUkp7c8yjrbFkHiPbHO/G5X8FAAABAAAA8D+s2veZY2ZNYJOPCFRydsPxYJCVbhC2AxABQp6vhR8XRUtuqSX70Pb+tf32HZLBHQ6QmvuHKnl58/LFZoHN+7dpYaktY8Wn9+T4am1cDFqCmNl1UyONZkRYggZjQg5oqU1YAhlhy3aqHUYYQSVEtwIam7AJY7cgOro71S1GiDAG2+qb0cN63G/O00ZYGGbVtXP0OUWAwzYtcFi2LIXbIRETCzusbFyhltTQ4u96m4lQNjKEiuwWRNG1yALkNpJky/cl3KJrKC1kGcClCLt7skQ4jhFGjrYcrSl52CHC8wg0KGPBoolky62OpaxON0MzoyR3YAWYvi8pW5Jxh7qHZWFNLYExBBa2BMi3/xkAAAQAAADA/7ABAR1CBrAsI4ywhQQARgAAAAb3+x8d8aunBhlhBGr8h5fg4fdhBAAYYP75xYb83YOQZQFYAJbVEvX/3UT+/rzfibEiAMt6/SMSNuj5zTkNGIGwAAAAMGAEAAhjyQIAMAgLLAwIWx9/eHzr+TqjUzeIrx8CGRBG179M+PXT/V8P8fAPYUsW3L//bODtdwEAgAADMlhgAYABQAiMwZIB6eXfFPHtEwAWJmwEgIURFoCRBWBhYfn1puW0WWAAuH/sOD2mEWBhAQAyMmCBjGB/1WkDuHx6PCeSBQAAAPTnD188dQSAQQCABQCWAQTGAgQAAGABBmv/HwEAgAEAAABAAjIKWwawjKFljLAwABYGsAAArP37Qvp+S4MxALJoYxYMBgwA8Pq5AWIJY4zBomVBq7HlqmiJD38T4x9PLQDbvVsAwP7+/IsHGYwwGAAAywIAyzIylg0YALAwYCMDYJB/ut736wTAsuAfoGWw7JyXRven3kvcW2BszT9eLGAKAAAMGGFAgJBBFgCAAYQDBMD9HtKnRwEIhAkDgEAyAkAgAARhRP95l97+Wi0AgM9/k+J3T+ZAJAgZAQAAAgxGH/+q8ZtH9PqHfv/bJ1uygfefvnkEDHH8oT7989YC7MCADBgAZAAMAIABAACEEYADAABgAAAAANAAYBkBICxACEAYASAsAAEAFr6VgdvtyRiwAAM2YAADyAjcPzVw+i5HAwBIIAuQEYblOhVpbGbJACADRm4I6uX2mycLaAIAACwMFoDAYBmDBVgGMBgERhgAGK6PAgAbEwEyAAK6RAMdAkCA9osxkW8EAABgEAAWAAYMAABghAUAWLjJ3QIAAAwAABgAAAAAwACuirjMRQCAlU349qhPf0bju0fAYAEAIAvARkfF8dd/XOrPR9QO2o9cpfn3Y/4+kaB1vi0KV1qSEdAgALAaAQiDQGAAAAEG8//z9qZLjhxZluZ3rpoZAN/DY983ksmunp73f4/pqiSTjH1n+A7HZmZ6z0xJSWV4UEaY//r+cBGHqEEAw3ePqaniHAAqf81etTCC4L/rO+0AA7IA/6mN8twyeLjSqiA7K1a1jBEYDDACzaMZRkCiq5+GwEL39jNmkUVWNBaAjCQDk8Iw1GB892D3G0MyYF2JO72SUiqDxZ/ODlfIg515qskRkASxhwELI7KZDOp2jAHAWODBoObexBng7yMCjQCjP8ndFXUDgWhLxTthXRkGBvTnJxAgf2ta4++kHpJo8fkgjQPw3Xhy3peqdtYJAG8WB/MNqY2Xx4taDg6aRVV/dNAs+o7L3QfLrWZeWrTpJ63AQn/iAxkspfD/X7sYn/8le1c79M/da4wMGOXYlpThW+gjrC4Twv4ynQBg5arW0k7IBJH2pi8k0zZMXmySqEfXVVabVs3MQ0SkEDJkLTK01yx7PHVG/fhQFDBWZhI37qBx8Xll+e3jHZuwpBzVCKqFZDCyo69RQlRH2NaVd2VhuRLIxgr2duwmX64jm8cTpCIsgpQt4lGjQmInBhyALhPi5gHGEGBwdZGRBnc2gQEwkQhbsjCgsEhkb/+YbjrrWzq8cTaATYABS/pOQkXidKIwSDbAbGuj7aldk6BiEMYAxurfjabozg0Z0uT7L5tMGPz5TBq/Hiur/WVz/XUVMawX08efV3pefq27TwsImfB39BlLWHwf2Hk1+fev2SsBwDeBUoD8XdyqGGNczVobwASA8ZceSBj/eCAjc/x5sKXJ1pBQ8cmnMWUUpXvcfThJOfnytdz/tBbto08r3bj9sofD+0bz1wF3r72+NJPZeYXkZM6dWwbwakDewi57W2/OSb97Fu8XoKeLz+Pus7M/aoIUs4dNYsY366rS3irvspTpw8A+O0qQru8X8KsVnj7w+xF0b7c0qSxRE086w/il30SAtm8po/9k/HBWa6KKwTC8u0jBx7O4vWXK/Gsx3Y46g8azTavdWT0d91uE5flbx/XDsv44bB9Ow1qeTUozi0TDadOsdyaplIZVZV1vtTBfl6aZer7cmRkp12mpjYIFQyQNma6qQI+bJo0nj6qa4uGykl7sO6RvAoTrUIV1cRimz+jGzVqharO/7u68X0o2bq/VwWJy7XUuT2//Xn+PQTciBcgYC8AgX0EMsK52hwGM1n/J3p8Pk8b5UWn2ZgWbpCBj4ak/3Z4CRiAAbZaJWvVmPrTGmr8dS0KsViDWNc7XADB60T9bVYxh8NxJDC9GeZH9Ck5vdPiit/V1Z7NBdYWTgDXHh+HAGow1ALg8WK2IzXJ7tUnnryP0i7cbAZiL+eNd0/++NMCC0dC0E+LLomLQ5fah4vJ0FKu+rjBa3580s96l2tTqVP5+Dsjy0dHziVcXo7W7lVnDaWNgeWaMx5XWPzbDy7NBoK69dkepxRtnzA4Wx+w/Cxn59WX1RZ29XeT50d59Lt+vRTu5tyu//xKqd5/aDMdHm4r4euu2f1uH2h/mHzcH/xZZLz+tRqvE5IdW6M1xW33joWsNj+PwZW4mNw9a8v1xoT6Kl4OI+vWMG7cEgBxVVjohVG3ok73+JOpWdxyjtif1y2CYrYfu2c6ZM3Z/qDXLzs722Qp29664AjAAGP48q5Xxd/nDYP4Ve7IAsDTW0/NxVeUyOTwsEZJlEGTMbny4PzXfRDXPNkm5v/6c9Ke3DMPbIRIriQQSts9GBEisv0RaAHYrK0HgcUTUxEpLZCYCJ5AAtmVhJRRwSavdXZGczEgUfURmaXsZCFi+/Vnj66VAUA2iKbE6XiEEjOfLnevNpIIvJYD+3cHmxo5NEllHQpYAIRavnndY8peto9FJZhhg7QSIhnHUP+alTXDfrxePyua49LC4QGw+e1SrOqjgTx5D7k97FhW771/tRl2GrfOPK01OlgZLm08XTVU6f83aDG+aOF0k4KT/9Ta9jvtePtpeVqcXv20GWf3l7k0vj3rwx1wVqIxDc3K9AFaWRdNaGMhIATj7R8tVc2flHDZ/3ygiae+/7qMdCy73BSb8aL2i3MfiO44sBCCDAYOMQVdHGrjx61+yJ4NlIMb526E6VMDL1RfN7m1F4nAKWVs3Xz+aGWHCkONpldspMTKc3bD0ZS1Tpp6MSyPL3j/t20m7WW6A1Y1xWVFMmvbgBIOMbYyRccWGrIacjT2AQttItpUYm3J28sTaO6rUjTGWXE27t8i2ZRghVl/ufJzLEIGrhbprzaelwCVGy8N652CxRGCQ0Tg+enu6QYDWE9KzeUpRgVjMry8qwNehjHatBQykAVXo4vd5ccVC5Mn63uXWhRklIrbuWmHqagCNyILxQggE/eKBciOIunX5uZcEWDm2TQ0zKhTjcLmxBMK+7Lf2hrBSZTOU0fhSApPn60k3GU2MtAaQQBjJ5eLzMwtqGjkBj6aWh6/2do5NfbfR5O7FmcnqsbZjujRaJXW9y2gQGLjKnwF9QyzAlpR/vuTqJX/JnrEwDr/7OjimW23pB1t17fkvs8PrrRMh29q9/fp5l0YyNoulcdNstRt5eXrgnCdo78nF2aO3F2Ds9mmElOvXC+h3dv4x4ubJzKMNMm1zs8E4AiwDaQzN43i5ROw8UlcMQJ+obujfP4nqBsv9aIMR3XbcVOy33nyY25wfXiYwvTMt6w9roNajS1mxezfmR0tYf7qXYMp0y/ONzVBu/c61ZeLm0+Yw21tLUUvZrGz+OFilYPpg9coiKxawf+OsR57s6NbmMlIqk9lqXc3ifZ3w302RpRgI2XKJfx5dlBXk2Wx9JmjvlNM+wIoK5Un3DwNhuTz6sJFQ1+VmlPr2enMJQbmRcyPJijTycPPuy0vBVvcHACnCBrs5/fBzGE0OBsnlrgBMeudvDTLZi+7mcOo6iv7Vjzajjo/L4CWvNqK++rk1YK7UlSAE4aW/zpPmxr6isS0AEP6X19wqgePyzZx26+YOi5NND11sqfbL5efdx60hBdT99YvnbQbGuP4xYmZoa2H6r/ux6bF8GPurjw2YtN04MQVg3EywjHBWC8f+o2jWBjKx0gIEuDINy7q1bYNlPFhmk/zUVpyVVJ0nWHT391vFQ2UyKb8M8nC6NvLB3aqt45XszekfiXLrefFO+zv4aLZOQfdTw6u15b5uP1sNCeSyz+tqns1fbd1i9ttKrDdpWR7OKqZWYeH2yS8bWbfuVf06CJftB331AqiTvSMDuJk8UCIzDikTt/fnHwdb7DzW5yNDf3xvYaDmu7kM2w/i4o/N/tZ6xIDd3upPMdp52tbLtxu0ev8ksBXU0TLavT5dflmDT29VA+2tet6DdnZ2Zg1Ac/r+p0jRx7NiBAYSUpqZEdRYi/+nN9mQcf7Ltq0Pm0e/WPH6TFIuXz+TQH9eSjZAxOXyj4XTwLwwvbPdhYUFKXnyL9gLwH73uTaHd3X2+3q0gJ5ousmk7082f2tsEHbeHn9/3qZswbgyir3wwVGKYejWo3F05s6Xr2AylZ9OrQw2WLmaGcjRkFjefiZsY7KCBUbVGDKNwdVhDFaCgUJiGeMc08Ixm6yXNXK+yJjWAdMfJ7hsz4FOhjzdgHVjg9y2PQxfKobZOMRENsNqv/u6Skxq9XF+c6u57Iq9NHjcCENtb51U4RGDscMCRvdLjLprX44fbK2qxAM+WQ7tP2hLAEKjge5WmR5thHVrO2+fDuCL+0MGjONFFXTPt3P/2vmtUnsD7m7dmP6yFsTdqePweCV8Ue8mxP2yGTA0P7TeGz8YL972BpaTBxcp5cHDCuDm5P0PTQoknDII6PDEpDTFzcPlysui2nQ331eGLrKufjTZrM/gxt7bzenlLmD4fs1Qtjj7OE9KRAGqffl7M9u5F8ggUvnX7KXAenHM7NnW1y9LSgcAI31fZlP1i19/aB1Y2HlnfPUsUmCWPdgf/nBNTH9+Mw10pRbfWm0MSf4+TyEQWCXB35x22g0LA46SwgA4AQIAaqSFANtCBSyswUBpEqPJ8C6THGvChYyIKqP2mARHhRgBtccnACGjdYC0/p3RAsrMk+3JxQbnlP7k8mBd8+I8lBgGA27bRcVSawzIFQPy6QA046uD/Wb/a4Wx7xPLu0+K8s26QWCBeFejCmhOz0gBDO96Afl2LaA9PQk13VF7aoDYPlhcLgGmOlM2CTB8PHigWvLyyADTvremMQovB4Bc1Qrm8tJNgD4e/TCxgAIAAotHXdyUZDW7+9fbH9/35Y5PDrpb8SVu7+dR96zGfmzd3tTtB4UPQaTgz4vHttav5jWa2X471jFF2y+GvLjYPGkMCHP9zV+yF9jx5YTtn/jlQpMO6AEaYLzsZs3q8j/+R2cwGN//+NvTSQrnUQpyDgRQTw8NGGR057yX5dcXUWSEAbVggQEstCeDsHBijMFVFtnPsKBccbliSIOx5wbK7h/IunFY7N+XKAAENDsn4MlTgPHXCs3WGrl7LmQdvbeY1UFuu7j3j7GtMoQe5H8Aubd7UutxRUECQAHQ0GMwAln+9ro3BqbXTq/vvjjteuM/WhBxL0ZeaF/DOC4tE51LtmujLmW1PURbG4GiytA1cxsZZTOAtvwOJAh9AHBTgfkSsCNlaPONLTUVVBGovkkE6l9hp0v8MPl+CU4Wbh478+Niv14+7+zZjw64nubGDaRm8sPr450f2si/RZjDAxcL4M87fzp+t469nRuXF5u+JlLp4qBuVseX968LIJj+63uNjx+8/VP9ez/pAOgAoO9gGLa3L8cXPxaDhKUH714/K0bLJd8UyvImE1Aii5SAYSXI6Wz7ctUDSgO2M7+PfkBgCaD6+/0uC8AOAFcsrOHCgjaMaa51WU4XAtpp9qOhXDuvcnUgnMjRytC2FtZEQGtMxN2yXddY9I1JAG9dO946zRCWDEArLMriDAAShIwBKikcGs8fb/nmu2kZsVNAUeXV1oMaQhevkbk3s97NEdOnwIsFYv/O60vZk7u/J5RnDQLM8HdQ83hm+Mda6O4egvGXKuvObkjGw689lKeNQa/Wgu2xB7Ye+OUA2r9FGmuqFEZgCYOFYTRvPnO6/W/UIKHKSBjpw/y5L73adElQJQckCMDCsrCMx9/mtLuPF68WiSJMjhuWzX4737w6+8ECxN7FX+ue6lFu/a3+R90FZs2cBkU2tEMHudjeWi1eP0OIwOLR+1dPm4yLUfyzZA3nW00v6tg6y2YE8r9uRv7WanzZg5f7CQaFDJAKDEAdOgFgEowtYTmRAKSs30DXu5VAW8F/WYjkLzXw9KdpXrwc5Z5iWLx9IvJVLztbsIeUgXnFOC2G7fytPP/fluPj4TUrANWzs66G0c72zvl5L0iBKXs+STkkC1kAIJcpwuXR1Kuzn08ujfohEmo/eXPjMENKbzfrgDEtGzMmKC1TqRgqAE5jYSuxrAKkBc4wAFiuDUJWYAEBpAV01YLSWgA7nSWHjWRkJP9pe1fyOLZYYXJoIiFW89X6eVk5vNolBDaGACwlhv9GL16cx+7T/wSwdKIDoM+6+bqzPx9PfvlJKdn+a91zvlrFs/j33AYOV+vDgwYKWcfVxarrWWxvX1ycHCIlEvjBm1fPqIvUlQAAyNO9IqhfH0rDxwR5noDmNdwbvLAxPil5UTF50aVYVOzNp4f4MgW+GAHPtwYwZ/uOBGHSyH2mzMcTI7fXMg25mNGvZXR7UtXYUAUmj/JevL6QYaSMYrHYCWv11YhaDXX3ZPl/D6Nl3f843R0TFP1y2l4i9p6J/d96oBYQJVpkEtkCRwFL0JS0+tV09e7RZJVgTZw4N8cH16sgYBiw6nzPrFLKWpAHo1xFzcCDMVof3R8bQKo91riZmaIM6tF1QOsNBsKANI6YIWVgzMDLEUyljha53DemIjAYjKnj1ADG2mwkDec3zfnXbvvTeuv+HosP87FsD1HCXsD8dNDW9cZifpyHXeasATAA9feLsvf08tXQqQOgHaCDPueTvX5x8fJHW9D+JXtoeca1rb/3/4Xe7HpXbWeWtpvMPm061v1WGb9ek5ER4IfvXz6tayzduJ2uycXxaDY5WxuONtd8vARBCLP5AuMGpNXaAGfnxgBfjwEB8sVvyg3AeGmA8/ONjM9/AVuA+rB98R9ArhxYepujcJxceKgynJwT6yrwxyqDj081CqCe1jD1dQfqB+EYRiFej3o3WEaT+x9oesuxmHQ1RdSza1ZauFSwRw02RFjIgEGUcnq0dYk3H9qPj6bDwrIO918Y6+TuYY0qHy+iHzHMT1axBmv86ogBTL3sMXiRln22P7aSkiODvV4mkRjmf+wZfazCZTYkATpNYHz/1NJygSGrIUflaGDACvgnq5DK3+aPbwthOd+MxXB00K5f9AguFvfuvliKPP/3hwe2ZvrtNAWfn++Mv53Dl0jv/dgBQKKXJ9p5+vmTJh0wASKsyE1H9Kc3mZ++fGrL+he69yFnD9/Mux5ucH8yDpERDiFtP3i9Yrpabs/X/cwCAKxHby8XA3h2rwGRW4tL2Hy5udhAPTvHAqscHm2E2a0nyDSP239sIG4csnnVQ9y6JsyrOaj2JGFpunVRRewefpyD6to7D7FsfTqXI1fClgS7t/s8WqG4seP67hLc39n6sga5273xdY4gVQyo6ZqLitbsTuYbgbZ2z1Zyw2RiZDn/8wzsgMXssu9kuR7F/vulQAHIlVVeXd13wagsPj4+WdgsXz6a1Jcr0PbtHgN712rA8IKCmyri/HxHTRj5K4QE6t8rcHDSZYrF763cZ9NQRojjoyRoq1U/HpncCKl7V1OycFTg4h/AmEIxZphY/Z0Mw/mvBowlC2RQzvPdKZYpzstgmsP8w7NlDYDIk9uTdUSqft2twKvjCGD16v96ex6ApeWy+6deXWj29PPHaOm7SaSa3bZe9OMwG4eO4Y+bdXl6a9tS/CV7nM91zccFOnYnzaDiVMmwa9TJw1dDX2qdrF7/jAUmDH7Yf0iJ7WJhKJ2ML+/vHyUCwgDl2qLHXC5kwNk0AuJwViOQy/UOrK1lGtJhhJubl4Bubl1bjsKWtiILGScgIAFZ3n7WkqcWsTuBvYWh/9KsLBtuNTu/LxGypn3F3G5/W8relM0iBXH34BKIpxO8+W2EYdNNnrxJsHaX1bJZTz58WApLFqBCkYEAAVgAx8eP2xunC+HN28mwlIlJczkKt7cdVr44vOXw3zeYg1X303/tPTwT+m0t2Hv8ZoU8fTb+tkLeRLfe2I9mv46iPJoEqdcngqHbrhdV0D7lvw585JdVVh22uvUCweTZu15o63a8nwv3YvumTVpkk94w5rk1euJIW70Vz9/1XroC3Wwxqq876yjrMfoj0Hwuys6wLOvXlyJ26zJRY2Rh8sUwe3b2qTTQbR9oqwvMdTZH5yM9bX982I/vf5Ld/SV7+bl2t96PHfBoUrIGtFlxbTwUT/eOQf3Opt9MDUDKVjlaYjd3BTLS9fNR7sf7mwsDEE7lOh6uNljYAOOmGS2G9UwejfuLG4DvzpcAsmyx3iRQL7cPvo4YeYSwk96ysMAm9543JhO5Vptb8wtgRRiUONunXy9XZnq3eQlY7ZMXG5RzhKwbB4OBVKZkCZtsby0TPNbiSOwVFoBtCyAAQDZCHgFv/lbc3X81KFivLUtb90hATpn1ywcHo2oCYvfhl8sEqySKtCxRM3Cl2++rYLkgVP94OGJGt5a4dz5CvZibAM+2BkmmTmoarM0GkMXOFimY7loGxpHYiatpaiz+QB5/CiHXX4zeLtB63cnsPf7yIXm/6A240gwaUvH0YPP7SudVOnw8vL7Ag2wBulyVw+aDGugOb7SlUh1U2rs3PiY93Wa+ez7/8BBufPgr9uZLpjnv6LjVCRoht5kukY3ku5uevnqy+vhMAjBKMTaI3YkFAm9vL3GnePx21ae6ndlpb217mI6ZVmlzhGBTEpqxz75JPNkaHWTs96Ox9jzHNDEaJJftTTVm0tSQ0ZUImtJuPWssDIYo0Dz5fWVL0fUVUQpbT1dv6/R+++soyLbs3jjqjQDH3qNmHLHq6sAWltW4yb3ppRm3/vbLepYJQrKxNwY79L0JiQpmf9K3eXhyihECTR5N6UFWITYvHs82Jay0sLndBJYJGWQhJRjEff5IUBhZo5HV2hKzex+qkCWLvSdCIApOQMgAYvdeJuAYdTC3EeTVH8PCeleF1mfXbHS6lOqFYHxzR9audoUvN1ZRNW1A2s1une2vGIDtUmYXeA0CO1/X7dsvxwl0d64VUsZVIpOH/ckJ/WQ1my7O7pf86xyqpdV9HQswK1EFkekoVZYtd/de062HyXKZBRBGIh/ckRQIAFSep4ni9vnwx2Zyq3CzUj+/sbacUOQuQ39k10ocfxVtkxFvU8iiK5Uo3TjNDL40QDk5QZMeU+ovFqhkawAsuta/p0Au0H6kJlEiQZMuk+ClkxIT+ePqAsvx3ulurAakSbyyU9BNMh0ziOJi0U0zp9PVuhyerzJddg6O1uGt3VVrlWvsd4OYhpWBUFOs6W1HbZbDzx+XQwqV2Y3CZt5U0xXWL+5vD204qp0000/XV6Mt9zJkyjjSiQl4OBzbSpntp4NTdgjLvhXvBwyGnR+KscG1bKpxmayNbGbPWleD62Q8/LySIEuDECAD8eYUQ3233YV1NJZUYHm1Ar58rUaYyd/6f6Rku0SOp9dyZXVa+/28ObNUAHB8WcTe5mIC3eF+QSJdatgpjd11Tjrq/GC9PLqT+deZt7V58A7ou6Z6bIJa1SghTVTGSTsQoKGWK0apmFjmnxUqGEuePBAJLuP7gwMkh1OADMaSU8hGtuC7gE5bRpZBRsimErIAsiYC2WQFu7SJBeMIcTszsXcTNIzzIRRKJ0JlRyG3O7VCNJVUjNvuJ/Xjo5I8tpvN+6eT5BH9x1tvhmt56/B1Y93Z0v6r3ZttP/ufqdJk97caalWOuJ7g55/mj9tG6OL9o+0nx5fjmLPdg/hwv3Ldnu2U1asn22MTzugefna5cbAVn3yzp3lQLB6S6u7zMGvE48bm6eSiGsfew1JuXBLXOoVsfGvnbY9R7N1robt5ZLhZuu1ebD15d9lntLMnE8fWCOUmUZ58WI3Ezj8dqgIsWgyUlHQxl3d3QsORhy+JapRIGcr4IcU6RVvGfPNZa+Vs953HIyRIACv/8PTuS6CbHLa2CJGhdJvk2F0b5pRx6FYXd1T4K3/u4fnk6YdNB/yPcbk+KIRTAkXSZOB/DNDvnPE/t3zlaWyQwADYYGRhI2GNb27v1QhshARgy1gIG1m+usMGGLkAKSSRGIewhcMAMiABEjZkIEsYG4GMBScvKpYFCB/8FJINBhCCTS3D5zsfeT5IhPqP60dthDR/v9x7FEXrDw+ntmP1+8Nri7p3xWsbR19/KJCx+Pi4szJWr59OXI8O/fbmXi3KfHm4U3fNu/MfZlWqlIvPYNtjS92r4dGyozEa3IazuApoleBoe9NpmLjPiCBxG6Mxs+ijqjT9SNttigxddZ5t2htdVhrSam0kTubePxT61srYmTWLWlH065naf5sm/DpXou7ndv3rMJueEU4oz96tmv/x9WvKDk//Vt6djgqSeHIDYV3+vR7e/3vQcXgPyIi0pbFoLBjP30Nf4nLvZ1/++1+xd3Cx+/S3hG77QW0sjQXsCCWEcXl9Cf32fPzhugEZEDgRLmCwZKtKAFgk+f7ObCwSMrIABP5GEFeUTxZgEDIgp4SckqV0yIB81ckZ2FfszpZBiQDry/sEABA7PzToCuJAnm3N3l78vH61+8Ao6qjTs9u7EeT6/ZNpFVq+ebxd5XL07mevrlvCYKs5+vJjAcfFh2eTlLX+7YdZRo6Lz/dKaUv6U3etNkXD358cjMU14+O86zy4ZGbgiUHGCUoQ2AIsHBYkBoTBWFw1uYOFrrokkEQmgACcQEiQQFouCRQsQJAgNiNda2AcLJXZ06b+drn/5MvXXttlOfnp/fH05+bd1xGY/edu0XFIp72nP08Q1sd3+mH5saHj+UxGypTC5Bhh7P7Tip7tM/2v7vJ//wt/rgz0FBllkdOta5MqoLT6rocynB8C2AJfCZnAqvOlqm0jEaTxRhfNJH3V47v63NwLMAAgWZIBEVgWAkuAAoAiGQo4uDKzRgZBGF1xYQMFC0vXV8fVgKDcvyNAXC1vtXnnti/yOB/K66Zdj3x8tp0qO/dfPJlm5OzRm6dbqTw8+8fz7W8dU74e/dgYl/P3P7Ypx/r1rUB2fjrc3XSCV/u3hqbR5sXT/b5hzPJueN4W2RqKod8KgQ1/7gcMyAgjg/iz/0akAH1jU5hvRtRvYBoHYABZKCHBMoCcws4gXRwhBeXH9aQ8ODybXIu+KU/vNW0+vP5lE4fXWpb/YCvWo7w3tYzyPKezP6Bj1kGkx6apSpsilKkmAGoZ54f/yq8xIQXg6khbIuyoMbpJEUkPCAFYsiUTxuoAdPZ2kzL/XTIQPj/avVNCCAyC5q4TYTDCsq96TRIwFhZYgL9LO76SUUzKWBgSQEaWhYVAdvPo4DgNUndrhgVcFdgYf/+xa6nXdbH4cPfF/u08PVX/+nmXyp0HLx9tZeT2k1dPtyo8On3zcJYYgObr0U9hZbl4/7xNUdavHlwsJzC8vnG9djC+vXattq754u5BHww13g8/kFWw7mcyZQxkMKpxxV2NTVVjvrfziwyM0bdTY4srkSCyxJ+si4jvK+Bb1xoZgQEMTqpKV2B7BzOzNTNiZ8eCLMfmEuGtBwasHOjUi57tcDgth5IaUbMxIY30YHxxMPwL9jaEAVBjjbKLa6mKUiwFPV2PTQEQDiPsSmAZvryrEhJwBRyxWIxPJIGFLZpGiQHAkhX4ajyAr9juvsUUJwJkgUH4+zwGf+dYoYYsIK4dpgMkJzKALBkDuHB8D0K3r309vry/W3lwJ8evLx5OKOPu43f3tlXYevLq8U6l3Np+227VAFM+nf4UHqM9/vhT65KxfPMwZ12N4dWd3SzW+OrO3tiY8bf7h2PjIfVueOYoMpqWEBqLjEAyEoAAGUFjGX8XAmEVkIUABLIsMr7znF8t68oDGfxZWw1gA6TAyIpNlRtZGKhCgDAYhe9sLhKVw4cFIbFZs8sAMCmZFNsV0zCW0jdoaPoeKqIN/4us734TFaDiqrDCtUFKnIqhVICC9gHZeWrH1tQWwjD+UcNXU2oAYUteDBNfgQRj8U1DVZECE5jvKwNAQBgBAhlAIBCAETIgrvwRQiZRXvH/g2UhSMnR3MTCNPduvDraQlmiefj+3d2ZSm7d/fhox/L2k9cPd6vq7OHLxzsA+nT2U5MqzfGnn1qHy+L1o+ZyT2X4/e7+2GTy5t7e2Ij+5cPdMUi3b4ankeFU2MXpPiYJgTENRgAZvgoGAL4yK0bwz7F2048z689fI8ZxlUQZmQCBJQMgIxkBiAwAORzNl/7ghiWAdAACBACe/LhcyPtTLCxrY5XMAh2JhFIeSsjK4orbKEBJGIm/ZK+ISVSA2lSyBJWCw8pENKbrIcZ2ZmHr6I1h6+cGY8nU1FUkZJAlG4bLKb5yf4CUaSP+exB1bKIOjZXhEIiqArV3I2qRQbgoM7KkG1kAxgFKF1wMhgQ3TdrIAoH+9FEIAcLymNiS5MnTVx/uY6y8//X9o93a1IP23dOplVtPXz7aSQ07T9482U50fvFTsVw+H/8tUsNk/vZuLNosq1cPtjcdylePt4eCV//f8Grb8Wp8TpasIdds7Iu4ZolaOw0qsoxwEYwRtsBymDACZFDqiuGVzCbdiRQC7GJkIBlVbFkAmJSESQQGAFsGMots2zIylrqnjrQAHKoSVypS29vom8i2MY4IOlpkZFBLAtGXLBVD1xMFe/xL9iZBbQfo+tObNGmnGuxUCaxkte66vqNOipBhEDAMDcJIBoyuTt2EMMh5ecNCICMQ6yHaMtZgdFPGYab0ELm+mMxUtenaflI2zbxMz2f9TpJj0ywKDLGjscqzse+yw1HXk3F5QIwg+ePhtLpxjFEuL2ZbAYRR4ixItiOqQk434Qic5cZqloYMZXn44eODGijqnXz3vB2bnD18/XRWVWdPXz/ZWhfvPH39bGp3z4uxjk5/Ckc287fP4veT9n/1r+9NNw1DeX13q2/R+s3j3TGobl7V51CUYXAhc6+NTMd6cF0vDlfDjrwpjZCOu622kG6y1jbWnciowwTXKDVk2QKZGCilH8e2BXLsepUkhsgS7h0KbChOcFUoixFKwAiUWdS3hSRMXxqDsCogYYnmqutbuBgDAVADunbMKAaGkmFDOlRIUawMcAeo0lh/fc3VsNxa0sHJdWpVKQxSO0DWzm7eQw/VRWAniQzODAMCkC0E1pX5i5F7822vNoaTdmtLTLhau7B367v/D+CQ/659visjsLfD1wALy08aAQJruluKsWTwd+cPgRHpoQR5Z5Nh41pKaR6++3rLOGK8M75+1BlvX3/5fJKMsydvHjdB3Xo8TGAaKVOHZyJqXH54XIa6XzbvH07Gxr1f3L02tEn/6snWELjG6/E5SInI0qjPNsbRIZcGZtMxpg63si0djlSrEg577Ck4a1YztBu3ImzZoyI2E8GompBZc1OK5tPOtYlczMLBeFq2O4OHs06z+WHSqGYoMztHDtMx102T2rRF/eVecQpLHluhdCCAAAkMJpSW5RRqSjbtalAZAZIURKoW1SDlVLgOQdeDdkrzl+wdnFx+fXRa+47++AbFSgVNLdidR5bzKTBb00Y6ZEYLGGsSCHPViO7v7OYyAAIZeXG8OOb/cP2/7d33syXXmub17/OuzNzm+PJGKpkrXdONG9PTQEDwv8PA0DRmhjbXSLpy5d3x22Tmeh+MpKpT4tJNQMeEQuQnQltZdeqnHc95l1/5p1z7lVBrRK3K0rh9/6Fv4ZT9/sNv3m/UjPv+4qNujL577+v3lzDMyTDIxjeFkpMnH7dcfrC7/eN77diS+urWwbaFzVcfzMfAbr7dfGRFjipRazAw3/az2b/h37Nv+Ifsf/njOJAB0VSY1UTl1osbT1QOz2+RL9Z35n1ZSAxqR+D1HcIEslwbK2ptcigK6CG1RP9g9tprq/XYrempT+fLiBxbOauaGonit0EPZd3cx7544XqOUX4VbXNj2ckYQFAaJ3aTFA9GCEDIAqKe+Rt+El7/m/9UarYVVUMd+7a59bzfm7VS5eb47Y29xPubr24vrDq/++iBVIwMGCxEcvn0w3ZsT9R+dn+WM1V9efPa2KY2Xz7YuVgo3TzafIwCFErjGuX0/N6/4SfmjB854Uee8Bh4wkOA1/AvT/cWp5varem7frVnpYFSsckIh8cRelCWBvOW+LG/8O9W1/YfBTC0H83dmIhRTUWp8tll10PXHB/+2vgPJz/EKYHdjxdU9b/fAtK1OykutKxN2T45x8g6/FQgMBw3f8NPxl/4y021wGAaOauQoEAtMmEyQ5Kxsyzfm1sIhHGQnM+azbw+8Xr37tjh/PLmYW1S2y/f3003znh29gu7kDU7Y1zibP0FPwf/fBg+10fb5wDdb0Im5WYIKccmqL78tge6crL/5+PF3/2D6xrdYn15d/e8QLv98s6eO8sl7ED5+WnXU8vNh+zIrm/POoUhE4r53qyTmZElMholWAjk76KXP6Ho8deH4xoABIwAsjDC6gEgbABh2Kx+sRApkAzgZfRd9HvPl7dqE65fHO5l69j88YPdMYpdnpx9ahccg+2SYVbt3/KzsPzsxnz18oPjAbh8dktR5FILshplLePzdYHa9MyC+o+c17hz1n9zb1uB2fbp67sqqVIl1ZePx67rKdeP+8U9EALeLiBEKyMJEFQQTpyWAMASliWG80t+Sk5+88cRQBAqu+2o1dYpcCADMmGMQEabP/x6+c6sl4eIcX18bzZ0heHzgxtq0OVXH+4MQa2z47NPoE2LLi2n6P1v+XmIW+NitYnFALSP9naoOIVq2ImHy3MBpWzjtiXeCn4svLwVq801Ad2sv/j6j6/62ud4/tXffp27Xd+x15yWBx5CpQgDCAyzFr1tidb9WMcRcrUarr4J1oDHG8f8pPx2B0DW3ke/+uRg52hvvndtfwayATA2gMHgGB5fecM2mND6oe6xjkbb38/vqDGrrx8sqjNTZ08e1DF7C8BY6jf/jp+J/3qxvddtn91ugS4/e1prFSIRmcnmcT8HdvrxYNeOf/UP1T1Ldy/Ont48OEv6jtpvVw1dz5Ax6+i7vtt9lLuqdSjde+1QNhfgslvG7kE4AxsAn/1WSpWkSnll5SwFXv+Wn5j7lyPQ3Hi/XrxaN7NQ7M3PTy9TNrIM4LerNQxpGbCtlCI5Ptp5xu02t59dv5vFrB5+PEu12a9faTasYyg7UiREDcYdfjZK7Owcv7yx9xpo+2+HO+EEyMTafHu+B3RxqdsC5z+QvX8uUz7+7OLprcOTpKcU6uA+mraDvqPvrj0aFu+vh2uY7nbpnl9g6c7eGI0VABhZVAzj1SVFYQhgLPzULBfncny8PD3Z1K5rd4bTl+X6Bw/P8kcLU4AAKiBbIMlsvs44qU331UDevJNhtp8vWPetg+Zg0bqhKekwbtJlo7/mZ0Pke5f91x+t19B1l0/O7+2E5KyBH7+se/R0O2d1/yBLVv1j947OPvisf3V/9nIAYNHT9V3fdz09B4vHw/KXi72VMupQWtdI0bSEEHIiZOttd9ABvnJPvUxt+an5q7sXlPcONxfr2B+H3D1VjE9u3BwvMRYyb1lgCwtAwv72jB/o1hjW+ovV5XB3tVwtuZirbtfXA8uUmm6yn/PzEd24e+vR+Yv3v9n0dDur8892Frtzqb8477fNLsBss2o+lM3sr/+h/p4CsXyw2397en0HgB767z7o7swfDzu/nA3s0gQuZifAakXICAmQDICtd1/pkyAEwU/Ovnx4Y3tyPu507mLF0HZ+vjqY8X8loJENGGyDIiRJoeDlmBq+2SLKweLa8fF+o/7ptgkb53D5KrB+z89HzAbu7Pjpixst9H3T+fz5l7/73e8+f3w+zBZ937Pwme4uK4zlHz4bnrVY15afr05WezdX2xEAxga6nXi1yt1fNal08VAV/LHOBzEvbDJ2sWVjEOCIKIz5dlOjEf5pRo8F7fvj8SkdaVUOVul2+/re7jACmB8xlkyYVKB7rcftBmgq681O/dom2pbLTe2O5ydlEeuhsqs6dDsSl2f8fPzX/+qC8ukXZy+G2y9WBdRBTVttQA/s5Ulefy8jeEfwIzYCMf/FUdm+esFiZzHvGlh0B0fdxbMLH/2qOBSF6l76/PU5B3utn2665Q4kdiJk0OJgOd/dOTraLcKAVcIAyoGfnIidUi9pODldna1OX683lTZfHc0ESO/uxYRM2WCQIGfvvf/xrtDenYb61L5dk3KN7YvTvdprp9k6Xq06RV9LUxjEz0m33cTs42UeH9/eUwWgtG3bBECyP57mwYeJNOS//YfrXggjlr94+Xq17UsXpZuT4dVqcOzcuFdVa7FdR+XXZ4V1TzLstwVScpTBWHSHd+Lk+Wt387I3rNMGAgkw5icnu9vjcZZ2XdWEamWsnWLLcg3GYDAIhBAkIGEZjDg+Se0sczF4m82ywrylcb9pDuWtOC7ZOWd4bCIrPyf/+l+c3M32l59fHPfXFxdbrurmulj78Fcguf93/EPZi7BlIcftG+dPhnEFNLbSxGK+ebm5v3n1uqk7H7jsDltF028N+eXuvQ4F2ICYP9gdHp2tYbMpO3vNRb2yn1Tmp2dbZnV0WLPSj3I0vfum5MXe6yyzdsxonYNa1gNYDiQBgFEk+binvcNT5LQ3PbEXPt6W7TKOe8YVS50eKOw0UfhZWazO9pn/6vOzi+2yLLKOfKeJGdvVWA4/RIIN/IPZy2JLgKAcHeT24UBsBmvexq3m61Xw5Ylcxg1ENu//YRzTwDhuhwdtyq1BuP3FbPPlJQDUs2F/95zEVUYgBT85Ks1m6xxZbmtPZwPg9V7U7pOGpEQ1kV8MACQS34lElOeDqC8fvPdyXA2vb7y02+slz+2qF0Pbn8F4uNprR8lgfl7+9X/xrCxr88nXF9tTtfOmDWNKyeGyr9q5e8MB6le//YezJ0cay8iymuaXwPb50N5oYvy6n+tXzzbbaw/+hiT72avRzh8S9uVHMw9DIIjDcv5lzw/W3BwvZUAA5JafnFlhU6M6V/1QGfaGJjyMqlssrDK4kezAArAM4czAQYYTyOPxowefr/Ls2srMG21WHvtt7naXi1qYHRWvSyejjp+Xf/2fHrdtNr/ovz4f+yGiEGhwPxKLvQclA8dw9jv+4exhsGQEhAGZ+Qdm5NFltsvl69nt8yH3Dmqj2LxEyffq+be/KHFqyZ7d1ZOet7bb5bqirEUgiZ+gEYdEFPdt6SBFJP7+SZ0DOcX3jAQKCBPJzZOV4OyrTxZnvnw1UA6spEYdyu6lZpvlNlvqODZhE/zM/Pf8h+MsmP1i+2ToN8MAAM3u/PrOLLOE6Yff8Y9kr19YwmAwRrLssRY+P9n9+OX24GJ97+AkPq5jUftkKOYNn58caafHsGguLrnC/V5JjCzwTzN86Vk0MUbTkKaWflRTqgrU59fXl4s59VT7HsHiO2YbrQ2I7pNzvz7Tanvn8qI+TWLPzDrHYrvYuRi2ZWhuN0MuM4jt+PMa5wLwN//8smujaX/p+nilGlbLrZ1QUoLs+/8V/rHsdZYxQDqw5UgJuFzdud+8v9Ydu9upowtRTzFvyZdHtONoWOpV5QpvdwOIYsAkP0Hj2DbtpjabHLe1LAJEzcjU+Oz1WKOlDmqpQgAYOxoZEODuutfnrqtr+5c5iK6YZoabo+ZM3Xrc3BetZJJOx/z8/M9/OVyGwtIt0shKbV3AfY2vzvhHs/cX1QC2bJzhNKpfrcaOxbWhV2mq5LRGNe23fcfAGxEt2EDsZM876tBuUQBCUPnJudR2WcYm+1papTzQiBLLtcFbnFsQ71Q9yUWJbLwpLZEWjQ6fVxF7TVo79JvbWmS12yaRgpGo2xU/Q38Ffzk6e7eqI20aEw0O/hb4x7OXtUV2ChAgCW1PRvVwHuCdTxssPXydRx+edbsbDQkAilL2+I66upbhx4LvRMNPzjg8+8XirGmHaknYgNxde2TMm7O8BlnA2+onwA+fdjulnOHZntt5jxd3MbGzajbP9todXOdV8tBQGxTJz9Nf8YP/HNX/Hv7yh7/6x7P3F4SwHWDkkNJIIQQekS+e3bfqHy6r17UsMqLRaGGKFkUgA2hbhbnKhkQYFPz0KC/6vbN1lDSYyFqjaL+uDBjLIJDRlfUfWYD649xsQNJRZDM/hxkGzxfb2bBSxizpR/Vn8363oajl5+6/exPG/6fZqwrZFOwQwqQCHazHzHQg++xuiKM+NWsenF0Gap0IWbPdRvJoEBgBBiBEfxkAGBCZ/OSExj9+cv3ZVq4u8jAmsHPj614GEG9YAn6IoAwu+9sUJm+8Z8W1lxk3m5RoDl+WYZOjO9BrL2brWVd+hgON/1ca3tGMSBYgWdiDGg3lo6H3ozP50Gf0w2zo9h8S+yrsnHrA3SAXCjvrbz9oLYCVJYFtoQg0hkw6kWE78JMzM5dfvHf4eqA6g9HIs3tPLgwgW4IUyMJhO2SBDBDv6XzI6OYPiPRib72zNAqYLdaRo3MVKGM+smjJoGFCwztGMEKAhSmj8fbZ4ex5uZT3Prq8HIfj22N5mMz3qyn0FjXM2JaYX95s3QiUnRDgxkbzZlMXFYhRyqS0J/zkfANx8e2d3bMtIgmbxYPnJym/vdJPCIOAEEjIACI+yDGjiYqD9pfGUq0KH3TPeiRSUaLOr89klFPpA4J3yE7kaoxBW9rI5trJH14+r975RdldkMd/OMuNtewUm011O2scpe3c05x2hUBYpYQAQZQoR3s7cwsusya2ET85DVirR3m0M2vbQM38xoOnx9UA6O2nwPjHbyMOopu3pBBCgTDCisXdToqIULSLW10x4yZmTGh4h+d9Yn5IR7zYPSR1/bmbUZ4pY3GZ/WJv0yuO8Jf97tC00dZaijfj5fG1rgqQmbeDacgGl7ZsulVbjFtcZSq7/OR0BmvzYr7Yi2HMpnH/1QbZwI9eKIjDTZMYrgw+4O3pIYkECxTdg/PzMWvTzHZnKgCpn926xj9B9thmo1RjMFLerRBfH8x1AZwMd3aPjrPe2/kyaZfqXzVLirqxhLLS+Jz9xgLQpq1WKRkZ0Y3bphAgQMgV8ZOz+0oWyst1s+hUtud9NbLAwoAl8x05bgvQm8ClbIENYKWVFrZMcNiudlFuZyUsqel+ltN7/1+zp6u3DQIhoDne7O2ep3zGx/P5UJ/OL2HZoZ2do8tsNjUz2nYspTtLGUCxiGKKsbwYanbXtwkKQCJG85PTRRUy4WEAQAIECIQFCBkE5fp+CiyQDRQ7AGwhWYQzUUSmImO7V7Lsdz1hS6N+rvN7/1+y9z/9C0AYkAELeO/i6eHuk75eenV6c+fSm0drxb1w9+uNkbrFap04sJEEvF29GAa6oY55udhfGUASKmr4yZnN1oBAvMncdzJEWoIkRLrdvbtrvmcw/UnvfohFrVu6xtvs5n30Xu63mUF0t8bSbDaNaIta9PPbS/BPkD1AYMBvy19efKy4T/1szNMbd043m629s0gpNMaw02lejzPCDDfr7z/GACFkoqvLnQ1ItAZFGPTTXFN7+Um/zSjVCmFViCS3asb1bNZdjM1uHdc6LPU4bxyYwJYAg188GjFwirnq9IUAVJzYAKiU94/4me0d/afJXjO+vb4bJbIj7o1917gEGodmtrGJO2GRJUJ042UzG0Chbvae8k1+5XYRy72tIbZ7IGQLBRY/OXfaBUCo9kNpqU0Gzqo2MzKOMCAsL7NFkoUAy1p/WwNhJBuBQVhmRDKMgY0tzMDjn9G58H/K7FWHHUgIkAHHy2+8c3C930BX4sZ54nbHmBDKy/N1wt7ollGxrHzHCcXb5d5pTTfj+ULCIKlgJT85Moay+nYzUppQ7F+LijzWILOxJYzsxoEAA4DhVcoAGMMPjxgkNJst6LOY7bYC0NdpnPunsmcJgfhOAIzPR52dvxgr5VqqaTdit7WU+FXVpo5pTmlQHs8kDMj9KMpm1Gu1mcVeg6MgBIH4yRndOZuzL/vFjc1AjfrqZO9GU8cq0qXWUgAc0rtXmAIjWO/eX/DmoVkeLMq6Fupitt1sDICnscafyB6hwGAZDDJNPRq3Yit57yC2rwPinlJEbi4ZwYga4HEhBAayF6ppQ6JNLtvRuCqbJvlp7t8rIr46iaNYrwerlEV71r/fkE69Oh2Zf9hYCGELGRljlEr4IYry1ehRuvm1XF8MGelt2+52FyNEeFrX+BPZk2sgG7uGEMSja/cOH65HrP175GPv9OPu3GBsj1RDIow1xwCCMUNO25YkGOe2nDR8dXORffCTo6zN+fpg2Du9FEGtWXaGzz/stvirU8Nq/LQBsAQWMoCwbIA/VfdieeP0dbupQJD90O3q1HaMP7fDQv8Ua2q4jplGgCQAdkftfPqr965f/7MPilhc++DPPvwkVGzRkwAgQSmWAGG7gp3G2EQbVAFqylCjjir85OQF+bib1RfrJqhVuJ51s6+HGD87kUBnvx/G4W3MjJDAKADxhvnB/IOFx3N3UZW1aerF+Wwu7J/dQbV/kuypuPK2z2fJe1GT5vD+B61r5dZRWdxtU4oCp5uKDRLWwlsJBLK7uWxQRImAdhyKIKizT+fOtfjpWTb90Iy5MX2idIaOm+Xz5tkqvHNjB11+s9kkYBDGBgC78A7xHWm3PNrWiFaVfgiVdrO+uYc09ff+VPYih40NSJJDBmYClNVd6wp2SraN+xGMJYDVtisWNs7LpjUYFBHOwfNmAECMGdp+zk9Pm9zn9VgYk8Bklc+vl/UFXn768Sd74mzdiLEXvPv2ogSsd6InEDt3NtsKWfbnte3GdJmN/e3W4pQJwbsGla+eGUBCRoYSUpSmlCrIlBB2Ju2+DWAhufdukQkhH1MAATI4t20OgAHQWC75yVFQx5M6jI75rAlJNdU/O9r2ipsxlrvBcBH4s98OgN/m7+2T3plosXZDkdn3l+e1kuuVY77cNvOQRiY0vCtc5q+uzS0sSAjLI00g2ZRqm0DVqtbts3UAgFWzazKEwKy3i3UvLCxbam+8qkDaYP0kL90M8o+1D3dRSh1beajWeHr9vLrdRzmPStP5m3N/8UmRARAG8R2ZuehpYbAyKdf8cvDo7EsbYtF71hXKcvXzuo3ln6zuleL792yBwBbIqikJUBTJhE0URWX2wUKWZHDmbBHCAGwe354LZJwAi+bCAAgiL3b56REcNFjNPDwOvRuC2uTzhAhBaXGv7St08m1YGMAYY8AQR5/+73756S9/efPuvQJtO65NI8dsXF9crkq33Jkvs2NgwYTgXf9DRnPYAYCdCORZSQyILI3HVbYAaqNq2YSdxujaclESDOCzZ+/tyuoCcG2PHvUyFJBYL/6anyCNI8br0eqHYTUqKVG2CSqhEIC+GQUXyXfMFe4eNKUsF03T3L1zrYWOszFNrW0zJmoXO10z1GhKMDAh+JGGOgaALQq+ur0AwCXO//BFMiRZ3d26fjCLbj6fz3ZpZxYIgPri+fWjBTY4dq+/PBeCQUo2F4f8BDnbe1KhXngzNC0VY2b9tpDIBuDkQoh+i3n3Rr4r/xPIFjiHSo6hkhRF18X5i7ZzG9pOc8tAw4/81V8EfStjWQnCxMXZe4QRIGk7jiBXR6Nufv56r9Y20/U6yBgA1der3YP1SC3NrL7egIxnwPn5zf+On6CNF2NKsosFs3YQpZltkcbVXqpW5G9HGcZHHyODhfU2esPzW7j3DLZl28M4NsVqh8Jmwabraiw2x7csk9P83p/KHkoyhQGDIJy7zbrMBJK1+aN+uezrCE1KtAdHT09iyWFbsAwSAisv113XyllPtxYY3XgP1ptbf8VPUTeO3wxlVGnVNorGJpthaJq25tkOqpW4dtxYI2UPWRiQsUIgVJ++tCsFEiX0m2WTmHBXtJyvN7n7Ag39mLMtExp+7H/452oz1QAEGTK03bYaRF+bvL7X9gSE5ZpNQ2wb3SRTAqMwgFFuNghjYavMb92mrpqb/y0/SaU9++Dby6ZCjF2lHx3NfNSt5Rf2pSOeVtrdI4NRMQIkG0PIYOEBTAWMoG72u2rL2Y6NLjbBSw4rQ3qY5pb/ZPb4n/85DoYmEA6MMB2bpkA+v7XcqxUPRJMOGjIOn3d7542kGYS7X5x4zFLUt2WDCRTpnB/taKy1+x/5ido2e023crheuCZQWnXv9YtudsHpZweXJ+YgLBBYAJBSIkYDMogrD3KNZV9d6iD161Dt2+uL1wcXtT+Z2lyg4U+E71+6NtTEbujdSpHQvbhWHm8+Co/Q18J6HlSEan1/z54LTHUwu++hhHLbRrYYYQu8HZr2J5s8qG3h3uZCrXqchAKGzUJ5d7XS+bnl+f2CuDK78vYZLMD6IYUA3ow7q7WExqZ0XttRX8y4JG5/xQTxJ/1LZZTRSGlaJek2w5YilUES1KAisAMcyOGsDRUkG2GCSlTCklT+O37C/uPQMvsvzxsyMRLtfHZ91sDxlyOWu1/PkWXCkiEJUJL1yxMQGHElkaK7c3D6emCACMgkStw+ezX/s/zihEnDn/RdffrPjBWEA6AoC0DQWA4CNVINgeWUBFYyS8mAbMmyQfDf/Bf/mp801wY1d+I8BQLH2N9sjHV4/2RIug87B1IKMCL85lwB39GVT7D653GwOa9RMx0WZNkfzmib1YMpezBNNP3gN/MyI4d8elqxiciyf4uulXMMV1pZCCR8dZOo7c9OhDA/qnuW9x7E48vBQTpU1R4uHw7qPu6Gv2EyXUrzvWXfzFCJ/n2fSplNsDhS06Eciim1Lw1Z+M7bzh0gAeYHwgAYc/HVg/een/U0RqnuqD7sw2Wa35vq3jt+vT8zyKwettdes3dZD3dntsghIQiBZCFbyEoHyLY+f43wm9wJ8z15fu3a5TplwbycnI7CB7+5qH/HZMreD/6TXWGwgszciGZuC1zl2ojqEENTjC0JEiFj6/HjFGD05gNABtBivlw2zs12s94C8t5vzvz3TKbs/eCfxRJwUkBOQgbLYy2EqDUi+ud3CqpIAhsJG9dvXxqw+DEBKErgmgkA3v9046m/N/X33ljmZtZgJGETpsqEa8UiFTG49BJkMSAjsMBqHmgz4owwAw2MIQDGioXrCIExWKhRO+0dnereFR9cj4Wc0pXJ4wxGCwm4WNbZtp83gKWqMIBIALsqLdkGYQHA9nUKbPDKC8mJ1b3XbfN/YTLVvR8cdK2xhEGMNQrpBEljo/zymnBIAoPHKAYyBLKhoWCQsCwjgNmeLVU36d92vwQbu9H0Kz9l7x3f/CbBgnB1HaNY2BbYzi939rI1IQuBZxgHwgACZBDYMoABcBplbsM3u82wo5FWuE5nJKfsXZXIhqFZXTbDWbNYBiqZCtPWhzf2ayPX7RwwCEBWGEhhsAyk5AAEFihMPR9XA/PNqdhrjUWZDmxM2buq61lY2/XppdoxddHtdl1GOCOGr+vxbKHEmeXqhlEjGwFKJCwJ2W6wBYD6p5vc1rKB7jlL0u1P8/3B/95NlxC+4dKOjM9fXzov+8wU220lcH7+N8cnz77IswuJBCTgTfrI8z/87bcbfH68rjUEzsev1pYxMJ72OSRyZVwfbxPA1X/JZLqE8Aef+MnptfVpr1FhjzT/54dQ/2hAymvLRnLnIRIhhABcP3+0Hi7Odp9+/erVi+fnXgiePn7R7CKBH59lRSLU5tAuIprcSrQP+f+9qe690fe382QgHU1m9Xa1cT/muHq4KAKP4GicZbsdAWMM9henCNZfnVp1GI6/rai/IF8Y2359mg4FmYZxdbkZpaap+jdMpuz9IPfe687O0u1igTXvqHVcv+q//fboo/u7RgGgsVaaghACTH+p2DtcdIeC3YMSw9f2qxTbMxD9c5IooulKbQ45f31Ro/RMprHGFef7y/7EqXnnGLO0l22uo664fzDe27lMAknYX8WvcCrAQFS7/UXb1+6E+GD+7Hl/1s8uLflxu0w/G8JkuiCl7j3qD2ZjBNM981Pdu6oV48YSDLVpqIuS261dcbgTEpIzv7k4+aOpVAssl0bDi2xmQNtyb6nxVd0iOR6tGS/JrJWmbYlm6aPObVY8jXOn7F1Vh3y+rWaz9cXp+SaH00opwctSUoETlHp5jl5+rUaBsXC7wE++MIJE7uThYisL3f/m+fFYq9PEsPWQxN6dfutKDNME35S9q7ZcbnMc+/VmVev6glk3r9XtAci2AsCXaXxZQRgZ4v3WPvl8SFMCdTC8chzO3M9uvnrc1xzHdO23l5uxlNP+1lhH2jb+cyZT9t5YBpFj1Fy7aQKaYW3FzWuZEpKw9fBSoHEAIwwwv13M6Zc2EupE9i4fzbx9sd8OY1ZT60hWa9ZfPBnaihX5kz42BcA01vj3ZxTLzGxabedt1lnrJopibpRpMNZwlmD6l/exABHJ3d3H51w+BpCLNfRiJY3rsjwHR2OhhTK6Os/zvXlamvYSTHXvin3n9Z3FvLt573qrZnF08wCcRTJDD2C57OzsLBeLvV0koQCE9z9ewPGAqa4oK+Pnp2JTb97r2tIQ7XyhKCXCC0qJmKb0p7r3DtntQZfNbOy6vnb5VI4u9iLMDGFk2k8RVsgAyNhSNve/rBW5Fo7d2HgUbLbt0WkNFE2zXWnBZWbMwqKOU92bsvfWnKB02TURtVlv++0wL4q9WaBU2khUFwTGAsAZzm+3t3ZmTQ1yfHbw/IxZtUrnIcfTO7VR2ONY3cp53AwNM2ZD1qnuTdl7a56otJwcPI6L7caBq/CwxIDBFkIGhCwBUOPVM5/tDhsahvrseVXZf8n844anL+v5HW48S7luGuHal3Yzj/P9ZtRP8+U2PzL19/59OemtiPZWu3110YOtusVdIEQPCJXGIMkJws5qQsqzlcuhwClu7g200cbtjkGxV8Y6jmPvrutaBg9jtLTtvGUy1b0fLDe10CbNL06eb8YspBvKsoQhF7urg2Y1KwYLBDgTpLp3fd3XGtfuDQMq7dGtzUK3Ht5dcuClgvvfbJ3ktgQ1Q7QHbdQylb3prNAVD7qbQjmUstr4ctOPot29Ga1TWNBcrPYXBoSR5SpVS6Zung+3DqhP5vs0kQGxenxvaaxs2H51YUByYo7uz1qsrbv/nv/fm+re9y7uyyKafntOwaV1uTHXLC0iHZGEZL5jchSIsByLjwLDzacHbSY05OLBwweLiglm7395icBg7b3XNVbYOUVvmmh64zdDF8IqlFbNzsHO7l7TLJxIyI4osw6BQEAScgpBlgCFm/Jst9gqIXWLb3ZmlILUHLk0ZHQ7i8P3WkkmzBMmU9373le3wVJq1m0zixXZKdMhG2w1gMEChCSDARoZHMq98vB+gURRZ/e++nieglD5MIftabucB8jW2Dqnrs7U33vr/u2ZAEypQxEKeURGVtpqAjAAsqjCOJEFlWJJoy5f325STSOSzTcP9iqkLAAjag0KWXKIv2Yytbnf8/UWLKewi8DVBAKQkWQBINkmBbZk4axjY0y6a14uGrVCaLb7zXIGYEmAG4hQZG3knNrcaX7vjQsnwNAHpQMgxFhTQhKA7Hde4Wcwkk08u4zEUVgePR8CZMju/a9WARSBFJGUphSlNW0enbL3LgHWLO3LEWRky0ZgCSTW6QQEAcijMSXi7uuVMq3InWuPaziNVBcffnnZICQ1pTTCILrZFLwpe+9KAaSl0797Og4D4dIVAUqQTaoTAkByyjRgCJdrL7dOVzfae//hxlkrbr148OVFg6B+/ds/XrqEsZRound0Gmtc9c9nskaVzeX6pC3pvRsdziREGgqhKpDAoDSWwViZ3p7uLaEpwPmz+zMisMbYfP3h3rBdv+6j7Zvr+60BzKb+WyZT9t5kb26cOn+B1mpy0Hz/uhCg1Ys+ZjcWY1drIwBLuBpJmViyxucHcxUVmdXj92cWBreXX3ezfpgtL1cuzdG1wAZWTHegTfN7b+xinJy+cjO2wxilcHZxd5bIX51U4NnNO6gAkAAqJiFslCfrbvf4xhKtHrb3Frcf3+2QQHV59Kp66C9q9cwv2tk8nPL0Gz9l74oLQ9X2pBXVTZRqND67H/DorOsT6qujBYFBFiIlCqakzx6uiKbdPBi/WVdeHx28fPHp9ZGQdTkenq89IHXO5WtuzlumHVTTWONdEuHnuLaHiyYHWhzjc1QvcvB8Tgzfpt1nBGHGLQCpUNRvVlL2l/noDxcp9a8fj/XxmAJVbs7WwyAR49An2Q/IEdNYY8reVa5c1NrH0e41jVrOukDrS8fN0u5/8PGOqSnq2G+dVhLYBBBnvWJnv5vfzVHl4Npyd474cpBEX/LrrUHUWjm7PJgxipga3anNveLIeHztLUfyNptmo0V7kT5Zlpu7jU6u7a2MTfAZv7Kzw2ACoMc7v6SPWIv9X9ZsPhezW1992jrDX48yANi5fn2XfqFNnbI31b231h5jNY7ZyPV029Qx+wubcZDmpSzPzq0iaL69vHihtC1cKwZapFJm8/XIrFxGOFGzuBtmu/ni2BaAmpJNWfVy1bSQOWXvqm3CaUUXr/s13TAYJRE+F3LOXq/kWUOcnTgfPo93XpV70HD+2418Utl7/8m2IDxqP8h8eCEEUtOVZg5cOCrNFL4pe1c4Gkbox+HlqdcX69Ry4cya6ZTqBrr3LT8Z0XiCMFYTCLvbx2d/eJ69tTP74Mk2Eo8Chn4UmNLFsMmuBM32xOPU25v6e++yMqGpTd3kBvrFej00GZnK4j9eSh/OzaNVGPW1IGQBwnzoY62/6RNvarn36D4mhKUeABo24HmruuDi/D0z3TM/1b2rOitURMzJtl0sVJACi9afn0vXjlLb5wl42GIAENgqH98M+fllILm7O4Ba0mp3JBTBVpRgr7Tttl8iNH3tU927ym4pyvHG/ORsrLP5qg9n7Fv1szPF9XsZ0DaQzCILBiNMGH149FWfKTs8zA06JIemRtsrgLYb57XZv1hndmPgaQ/VlL2rahM7FzHbzrrd1czdYjHMbddW/PFMcev9MfDs1waEQsgCC0E4924+QrDOLY0DVoe0T1//utDI0WVZxvbaMIw5v5eNxmnP/NTmXrXZahfNbt7NIZaHh+1l2siPtl+9Juc3V69HQfu/m7VRBD8ED49fPqxlMIvCxeNubhmfWvHeb5prJeo4js2w2bSXTyoQs+KYXrAx1b2rWmUz31ovvIUco08CxfDktdDq79CTww8wyA6Q0gGA/eUrnSyP5d3+OB9f5HAjxcVvo3t/1s9Lb3LbtyZPq4gbKU0HFabsvWO/zKoPn43UobeAKsl19uuL15adMFzIwiAjkKFGAYwvLuT5/bra5DE8oTjPQJ80Pnzl6iTVbAyzo2UpYpy2rk3Zu+Lsct7UuP6kuiYICbNkp9nZW6eE8TWBMBKWJZCs1Ae5qsny47a893gD7fXNpQPlDLW3+3OQ7SECzdtcz3eIzUsmU/l/48HMqNTNZkSi2MneRzeP3Bwd9h/cPbx1dOO6ZVCAjARCQirXb851/Rdza3k0cvDJzWtHixv3btw6SiLnKxuBCJq82G9Lt97y7cBkqnvfm5dE2dxYPj2vRAja/XshB1q+/+T+Ts6LhdEPyUtkBwiIa7fIlJl9XAsZy50qJUCbd85W29GKUHSm7gWXX+8zmbL3xjZlFXXN7MXKJtQcLksAged3v/qwqQp+SJ9lhQ0WhhiDFFgE1CgiC8qiGrMo2Q62S1fao/VI+tru9pTJlL0fWIgwMb+baXBTwmMIS17cf/KgkWXJAgdGIMAYOoNwSQslzXacU0vJEqmybJ6386Eezt20Szkz5n9gMmXvrSCVmQ2lYMBZCABl5M6MAMCAhSXzHSNBhpGE5S77Zwdo2C6jSoq+fX9A0YiwE1V56u1N59Su+udtg40Qwsh17BgKWYQtSwiwsN+2vqpujGzh2gDGOj5/H7R58iCyRWkZCZTpbMpJN7/4d0ymce4bdygisAS2rKYRAlkg3kTPIgMBIFAhHQTIAWAH53uNWTSPDlogRKaAlKIJmjJyPDKZ6t4P/pOmFMDhCJtKATIzhAyyhBJhJAwGB2QB+83YN0EakYI8O7nbImEyBKkAAF/+bsNkqns/uCsXjILt2fPXl4siLAyAZUAAsgTgoZH6IgJASCTpYsAaaoNqV17syApqzRRhyQDp4+kVutNY4419mjAE20dnY3W8Wlw/aFBJu8ipMEZGgAUqQCsESsCyQ0qjkF/cLqOK93h4rxlcR7KrpVAVmWXavTe1ue/6lx1h8snrPm0iKbsfLizX4fVmf5nPu+uzsAnLWD9EEKk/uWl6ZqxP2F06y/lLxuW1GaEar1/vdz6vEDFbzFpHWDDk/8hkqnvfm1tC9avTHgCXwvqzB4d2fHnCi8jkySdHyAY7AAzUAtons9X66/OB7j9UnP++wuun92/VKHnt8nhXGhyobvddmnQtJafKN2XvrY2zJBenvRAWksbNlx/uWz3hilTPrhkBMhgJALJRqjVfHUuMm52LP9TAqi9uKBXrdVknjBGhXHemG63pVoxprPGOG500frYp4FREiSgMF/uhy61DgG4tDWBqEciCQIAAnawR7M0+6yPLMnNxi6B+OwqCWqua5VyRKkjjdM/8lL23/pkK/PG0QZ51Ve6gjqrDYRwclet9L47uAxGuSCAEmSFZCG8OSh3hZv9cXv7i7lHzXsG1XibqZtSx7C32wkSWGKlT9qY982/9LxDbUyHKgxnNPDSk8Noqu+8fVnnxcYHNl3/4/d/+/VoW2BjJgKDtHnwUMJwkzS8PYue9Ni25HxFRyHDjVbSNe8Ya0xBv6u9dcRnto6Eguhf9EhXFxkTdtEOpf1zH4lO2bX51ZuDpJwACNyQCiMhaQKtzsXiUam+1qfDzPhuo25iz2e5eCxyZMR1Tm+reVcu9Wb1AYeo45/J8i5AYT1X0x7OCB0JphYJqABguZQQYjAyse7h48erlk98/gqwrM4zryzRpjUkmHktMQ42p7l0xq9QEGxjOzXamZjSsMuoGs/njR/suBTDmO82+ARkZQHLYWAI2T8ud8cXahXXb5Haj9u5Bj13I6V6CKXvvOL7POIQx5GioNQTChp1KZfv5b5Y0IAxYYAGAQEYpAJBnXdlsfHy7bCtNtyljv43izWFH9vNwx2bq703Ze+uf9SElCFwbtwWVhLGJqg+zPn/O8OhTBIaIFCTiO0ZAJDKC/Y9bvn1GrbNZdF0Ub1LNfBwD3MoKprPhU/aucm2XF1KAltuIdnE5mNSeYrU9KndX54xwZ5WYG+Ktt23uCJSoeq9JXX85Jp63HkrWhena7V7BTWMDmrI3jTXeGjJpQzKJGrxUiGR+wNgeOWOOgMWv/+zP/vw/OEoZpAQByADZCi938YWQDcRum+18f+9wphyavZEoUTKmce5U997x5S8av7fdgEs1aleDx2jYaesXw/7N9vy13US6ATACQIAwyGBjmLcnfrGcj99WmsbNsrnx/NaijjXaXQqEx3GmOtW9KXtXXNqa748VQVpbVwPdzfL6hMtXTT9K1zGALCNAMhYAyCoAefh4WP2+cVXutVkOT4fZqxtluVg1u23B1b2acShT9qY294oRxe39BoSz1oQ0iybnC2lYVfnoKAVgELzzZIwFZjY7CmU/krsfpGLOZTc8ebpuzzf95bdfrcetZ6EZk6nuvXXUFZjd3tYYKVEFhPbutO4+/WLrVOx9ipEA8z35SvyU7cLdkvfqxViJ/Q9l1N54suai3a5y83p12QzN3m7riGnX8rSX4Io/U0NEaVY9bRBhzN59zxXN4bW2u/ngluQMEJgA9CaAAm8bxdHN2y1xcP3A3P+gGKHgolaG9ThsioP5UVuUth4zmToeP/gXMxq7XjzsS4VKlJ277QwzpqzGiQRGMgKZjDfZswyAAUs+PXlfWWyo589X1pgsGGe7d5oImZ5p3/JU9966qwak2dF+cRPN/O7N/W5mANtICIIAQSIJRCIA5BSAkASe988PgwSi26HbaefLrtm5cb0tBNJQHjGZ+ns/cIQS1DY7Oap3U7piKw1CIDsgw2AJY4EkQwbmDQu4HV99bIdxzO+oVjnTOw0Z9KVM67lT9q4qTQ4dCBGFJqAYZQVZGFmiFoQsARIOAEKExyJkYUD2Lf/xQQAmZm68vjxSwYogoEzZm7J3RUIDskAiAAMOKkZgOZUN4ABkLMbCD4pgHOdGGMhb8c2HAE6k+KK7PaSscI1pXmvK3jtELWEsALAFAkFYgiSQGlU3WGDACMDCSJbVgLDA5LXtNw+UtuTg4BATBlViWtaY5pavcg7YCCMB2DYSLm0jI5AIIowwAkSAbBll1TpLY4ywQfXO4hsHCoHf30uksGkKTAu6U/au2Is2AaO6Pn754uX5enCm5TqmDaZiD1a4N2AMGBxhwLiTE7DTOCm+NXvoCBt5PO09Ghgr8jTWmNrcK1JVhJWvX6baWtvQwV4IypiKSDDaZoMplsAAApDBIUsSaRDClvLO04fvU61xs7qMxbY0EKKGp1/5KXtvXVrCsfqmYtehDk2c5rI0kSqZYhxmto2GJgwgMG/J8uqMo47tq6VrxKKR6u3nf7yl4XSDeNbOWYYDp3OaVp2y99adWlBcfjMfLvvFxg2MLFazGC2TnHxTdz6ZC2Wb/QwALGSUksE++XaVPPvN5g8DgNqP9yzf+ezJznbbd5KHFPMiRQ4xtbnTusZbcaNF/aO43A5tqZmppm72xyIXRni0pt6YVzeCEoBAGvvOZePGQP3sEsHNp+cKQhrn+8DZGYPHvmsj2/lcRIgo47SuMY013jp7TLjvX/eDPYyqQ79arV423jgU8eRCylNKaxvMd8Q356UuumpAASjHEMaoaTNzfDy61pBb2N2fdx4Tj/Z07eiUvSuu2+PrdSlFNWKkZCzLqj59Ikz/ygBWlAKF78jdx4+OI60A4mi/BYWgHNy6ffODQ9suRSAN/VBm7lUYkurpBr6pv3fFrZPD7I9rUdu2s9NKlmbelJe3S1PJr0dhwOPXfR27DxYZKUG2v/iCwzEsrHv3vn6GPMLy12JMO7xOHGqom3K3UIzqMOumdzdPde+q55vUy7FAN3svso3o2Aw9LRfV315EkRB8++z16eXxQ2SFMG4+enIaAFjaFaY3m8+/fLSqjvDrmo4bd5dNKetmHqiUapH/A5Op7r1xU6vLbLP6epMa6CK2W80fNnn/+IS4/npQl04JuyaBQRbtJ5/fO6xvT2ykoH8J5eZ7eJ02m7PtxvPx+PxOGYrLWMswDXOnunfVY9UMHKxT22G43EaKoS/3/LRycCNFyBUsFAIDGNpfPFnJHgAbqwWhyBcva16sBleP29SmN6c5bobqMadrqKbsvePMM5HU2vTn0RWG3kHN8FdrZg8GoxaPIFRshIWA7D6WRSO4NKW5t9/sHCyhvjQXa9dR7VjPztbD3iGvT8aNmTayTG3ujwQSqnnWVTeNGkRkxrNzaU/VMEoBxgJsGTC4/WE76AAl2k+y0fDHC/r1TrQdzo23ZYEpl9tdl2LZf/HXTKZfwTccDdBENz/SmKllxwj7fYrL3z80+dUfcn8+m7WLW5KiCQwAWUmMmMkhN7NQdz/AzDoyS7i7tjdvg/nHt/eXEtM9VFPd+5GY57hpZreG3d2ng0q3YableZVZgaztcOf+rbBLwNMmZrM2wbAucyylZmBkAWmaTjsXNcqyuyjEe8+aKEGMY4c1ZW+qe2/t7ku7RBPD6Yuz09lebF9dRNm9d3D/YDnb2ZuDy8GcWdPMioids7OHn58IBPPOIFtrK+tnf/dirMO3STTMo9k5vKOu2fpVaVMqjBmevvap7l11AVp2Z8n6vI3EfQlqs8N8Z99ZOf4G3/wwMQKH9/fJ4Xmzg6EYYYRBL0/8ZUtWuWuyma/Hy3Z/2JxvdNB3quvSq5jp4tEpe1fs3If2Zt87vW2zOigxxqwNK4rrDtncAwQIy5kxu7+uBYQFCBKzKNW9IJf3q5rb32Z5fXar7LDsSnp7znxH1rRvedrHcsWfN/OM0o2DoUrSohl3Dg6aQgCUU+/dRBIWSEZOtQiMBAKVE+3drSNA2f2oRVHKhermYuPxfHv24sUlPmrB+T8zmereD/4t/wVq5jeHNZIFjN39mQphmRK/zkYysgBwRI4AIASAvPfn7vT+7fr8sru5CKTUfn259qDNWNuaxe2txiqVyZS9qxQw497J+Whbpexeb+jkTZ0VoLQGpWHsEg/jo4PdRQASq3kAyHMZz7VrV6+7AuiQF2sa12iIbu9Og85ns6nJnbL3IzKzksRYY6+LcDNTXVVtFyFjYQk5LueBvrxYfbCbuvolChuEoWbzZP7BYKTDxck6xk4xjxuLRjXm00BjugvoR/5LI6xxHPuc03dNV7zt1UlhY4qRRWwurgltL2c7tpQgvmNkGcBZNdAlVlCHsbFSji6EKRrrdBXQlL13spcOmcBpHCG82ixmQMpjUBxkyIQtS7ZACbLw1QDCmCo1hQnH+PWDcMptGKPwtkzZm8a5V32oKkmAQoXoh5HFLGyQUFAChCQJ2UiAEAh05fgQJCUtALAOTVOiBQyUiJyu35vWNa46jyYAYMyofVZ3izj9CkkeQmBLfEdECABvX54ZBEgIGbAtFKgEQhFUZwUkBNJ/ymTK3hsflCoA7BLjmNsyC/Kr8ySdjdPgarAMFgiwvb14lQahy9OARMKjrUIpkkIyUlWRkATTXoKpzX1Xd8cgIylWq6ZpC8jX74bTgCUNW0JYsmUhEIrFbosAUQIxOFQdClQAIdUBBEgGQq7lIZMpez9YvY9kpOH00fH6okaEXFqcEZKi4CHdhiUhIYwMMXYRAI5OIGpjjyoQOAG2x68u2kKtbRojNMZ0Pnea37tCxrB9uBpdrNXL2Z2FLI95eXbQjqflRlsAS1ggjBBmiWUsjWfrw3nGzEQ9350HhG2fn16si81iRquwIT2tbEz9vR/z6o8XNTCBtw+/HkXNb37/+A+//f2jbz7PtitgY4ORDCAMwOXv//7v//j7QZj006///pkMJbh4tW3mM9fRuthkIkkxzbFMde+KuUldftNDOqMqGw+nh1StHZmEN1YRDuSUhAHAiET180ukzbY11qtX+Phu2pFnr2ozDq3a3m3b56wIpq2jU917RwfafmMgSsGOdHl1ZiIwJdJNJWF89M0aYVvSm/QJFQKcdtJ/a1Gzbl5fXLxu2Iyl37jM22hLjfHS1X/JZMreG5Hk46xW0zaASuA8HcPA4a/fv3bvF846jp99/fD3vcFgvmcgru83CDB8sQnA2dyI5/IYbaqk9mauZTwtCyZT9t5xErpcpaNIESVCJcj1CiEd7Nz+5YNlp8LrC2lzIiN8JXmg27+5JisM35yHLTLaixONY3e42JkFMxGN23WWaSFzyt6P+Zikw2koQh7H8XjIEU6fPH++IXDzukI9AQFgroglRDGnz6wijIaXFzXN2m2gZhwVqVtZXfOvmEzZe0t1nagmEmmrDoht2nD26Osvf7fBGjYSWg8yGPM920gVbOfjZLEPUVSL0v3pyaavMR4/fN4rbDyNNabs/VjtaT04ii8vzlYVCI9jtDjTbD4fYDMIafM8MbK5OslCBWf88YJ4bwlkdkmJId3Duma9PHPtTUaJaawxZe8qZUR14HHrIIkmKE3y4f7y+s0lsXoS+dQqBZ+MBvMd8fZBeX7suHEAuJr1xcUq1Wi7Wq96llnHsTqxBibT/N5bdrFCYtTCpt3f9FVty+KXLtp8tvbKp2cYw3rsAAEYI8BWAb8+Nt2NcTQ2VaZkFg+ojHWno7Vs7JbJVPfecmnLYr5Y7MzborbrhtUIpTilOnS7aBieV1HTqs8MMuArtS8h1lvo//B3L2H7dS2zaLsoRc1yf9mVna5r5g2SppHulL13PM3musrOojtshZb7omYdFaFAbIEcAAG+MAZjAhsMcmACk8O2Qp68jJ15NIv50cF8f7nouq7pSquUpenIxpS9q+60N7fEbGdv1kbTzDZD26BF4cvfnVRensGOt/jg/p0DeZt8z0YIsBJxsNc17WIWoOU17c5m88X+4V67WQ9xcywUpYOp7k39vXdcU2m241GLj2s4tn0dacphOX7h87m2Gbod3bDzcZPj16uZwcJgZL1tdpfXBhN8c8zs1222O+ENnu+djnVZpEGMpaVOcyxT9q4aTXPr6cVs/Xorciy1uuRhayK9Esr9RfzaMxPdr6oCBICwhbAVmLZrwXF07K6rag5XF2P9Zr7YWzf783bIGHIhw3Tf8rR39IrtAxTj5fnFavzfVQ81tXOrqM1qiHLwaaE0xOWpxlIAUBgEAQjKOTu3QBidc30fQBeZ2/P1WN36m+ODy+xmoPEpk6nj8dZ/kcrhxekmyUQF++DDaNKq/cv+xs5MBsTweA2L94sBWUau2UhQR0oBy3JPK0u1vjruXRPRVM9me4ezxqP66T6Wqe5d9QDQoma1IKTu2j21BqI5ONppjIRwOTo63K8XO2EBwLh1zUagUgIEAlqEgLnXlc412my6vWttScW4/mjaMz9l74r3MVmW+23pmtlscePuXjQgwCBEFUJyre1BcSGEjc/6Z3UvhBFIFZCQEDWD5b6jaWfLtt25u1eKQBDTAd1prPHWLzAmm1jEzHTaXhy1pABQMSgjjJzRORdJgNKKWV5rAywQqDYIAlvVsrR4b6zVKhFRJMJM7ziYsveOS4RF1c68XGx21DUeJVkJ8tjiduOllbT0m5nBIpB3VxfjjiwsgzsDWGS6AApRmyJJIdWi6b3hU/Z+5OknBmGY5d6uRI6BZIOgBTRLZOpp7pawEEg1o+3agoyQkQGQM4tlwIUSYRWABmNiWs+d+ntXPQDbIAcOEUSAQTgpSFEsUVfjfCaBZdXTWXi5BEtg3hAKiRDffVIgJCx5nN6nNmXvqn/RYGEFgxLkDBJjAocCDCHULHbbAJBVn+7NHABGlsT3rFFCOEDrbw5yszABAFJ9wmRaz/3B7TTC4MRpSemKjQQEGwSATWnCAqHx2eE8RQgE2Abb6SQlRIQkvTgVtXcAgO1prDFl74pnCgByuFg9f/jo0YttVEkQYYJYHZMAwtg25P8RvQUBGIPTErYUhKIgbIz73V+v+/lmPRqwp50E01jjXfPEcmU4GbebZIjd2dFMKdnS5XEs1+e7kAFgJFOGZzdmDtuSwGrG195tWG8ouC0tCOVwdrkOG7F/vRPydF5jqnvv+vXGANvjTT9SumXb8PpssEgNv//7Rw8/f/HtMQYbDCaGb24sCExggy5/97e///1n+dW/+93/fjvGb//m709tyM3TV+ebi57sc3O+TjD9OGVvqntXDGc3jLbHbXEZECVL9P1SkF+cSc51/yyOhNJWhNV/fW9ewwgBkJ9fIlabSwcGb54fMsjPNukChGJbX11fCGKK3pS9q8pODa+edtssahKFhp1m27Xo4blQW5P38vFuBIBQffbevAYgWzayCCv75TpBlgPK+HQtyciWZrPdupmJZrqGasreVaUrmU/d19JItjp7u/Q2QmdWObr1fH1t1/1TJDfQq3lvXsX3jByHZbulmT04PO+3K7HznuH80hCjXBgP91aiL9106+iUvXdlT1wohuGwFWtpLKWeDKWZbbYqnx7kx2DdvJG1aiYCkcKAEQL5PR4+woprR/4Mmo9aGF6MqES3HWZjzHN2WfZrbaYplmms8Y5vGteLHLLzfKyNGAf7/PLyNB9X2vU33z49Tzz+8W//7ne///1AZqYAQAIBsgKMcvz709C9bkythpo4tGi3oQ3l+jLHAXk6KjTVvSvqLPr1mkq/yVj3TefNUNp6cbT94Wq0a59oPOmB1defWj86Fm4MI2D05UXJchSmHg+FmiJKHb0+ILostZacjoZPde+KB6PrNnOgv2jHy2HdqzpwTQCEOHmIrVC8zZ3BABgQM1CormXqFxsxbl26Qi051Jzt2dsakSlP2Zuyd0VuhrQGperxRWnKUMkxIymg/WvX58rXiYSII74nkLENIASlWMtifPbH0bXP7cBsJ1eWd7ocLpsY7OntuVP23hHFajwQWpRmZzmLpp23JULg3U8//OS2GLZRbJsiwGQCCGEJoTUE6MPl3qJo/cSKKNnX2ps6XGgc9YeLImDq703Zu6KUpjlY7s/K/Ma9ZdDMD7thdI1AzLfUWeBalov5YrE7t4AawXcsG0M1CpeT/OCTHVi7zJqmtPRjk8Vq2kXntgHo/hWTaaxxJXxeLF7lYq9w8Jpc7K4XOaqLFuoMFfB29xe2VACLEBaAAZSoAGIcdjs3IDTbbLPDzVA8v9PI5c+yJ2Davzdl7wqHo3nZbgc2M8KleVqbpLmt22fD5dmShyOxqwKkA94Z58rCdiTW8MVw+77Xl6hFR+u2RoFh0yyabN3kOERMrc2UvXe8vmWaWTf2L7MOI9o2jNKi0e7OyebzcFXuziygAFhg9CZ6EMbID8/45pnHKt2Q5zsb56wlLnM+aFzvaBiXMS1sTNl7xxHKsnNStRnHTEQSURYRun0xZkJ2H1nIwsICBCmQARACuynpNSIPdqxy9ChYNSUZTkePwzX1N1pH9kym7L0xhIj57Nz9aAyRzrK7K7F/72U/uuz8YkaAwCjM9/xD9Oz1jfNxeX88H6tpFh+iYL57Ru0bZdP2q9qccW0WOOZMpvMab8x2OqR2sx4sEksuO+9FkbR77agu3r9TQgIACQkQQhKWAOri2s0bcXjtyM3uhzeKY6zd7KIfax2SgVGwe6uRZKb7WKb7WN7av32nCoYnF4OVZBPNrWUpIBkkjRQEFgAyIDDIfEdDg7FMKm1poMv69LSXajazDd3BnY6QtsP/wmTK3vd0+/q1xDBcnI0asmt35k00NiHZIMkgAAv5RwEELMAYcNohREK9eF2Fy+jmxrINYswc/h2TKXvf0617OwYrx35sadNmFq6Bi8BIFle9iSL8qPNn2QYsjOxaa4yGeRcgLvuZ/y2Tqb/3PeWNRiBUGkmr0jatDEGGeJMyAVeehBEWgAVCb39IAiYaolnlYde1YYhh7Nqc+nvTOPetA2FkkMaG13c0lpBshw2ykLnCAEY231ENvRNLZBSQEF6KJpHDZVnqlsmUvR/MLqxEqm7cNX4gIkCywQIBAowAE+Z7Jn7UhBgJm5JCGOF5Wx0a1MgFTRuXp+xdsYGQQYYcAsgIMAIDpIvAAiPZb3OGkfmOBRYgMAVQ4hgfvr+oVpFSdVpQm7L3I9ulwIS4bGdW8dhhAGOMhYUseKcMvmXAGQjD23+CU5uTGwvLBfDYlKnuTdl7RwEgvFmtNKpbznJoLSAAkIwRlgAsfsRYUrVMgI34ngbfHi9LzjKQmyCn/XtT9q64Ng+oGh5takJZnXQ7eypgjs8gZHYOGwFggXhLNgAxnG2PZhnj84tysF8sAI/j+enI5jjKtWVpkfC0Z37K3lW304btw16ZbmsMq8pByHz71AAQB7+EH70+Un77efntdu3XvyqPn6/h2fL9Q4Pcr14PW6tj9OvVUSOwPHX5puxdIYHHb9WNy+0wZga5vdxp5Y0DwMpNbQHACGFhAGEs6ucrpPXw6mvC+OLzP58bD6+2JuvubKPZwi+uL7JF04GNac/8VUb2RdYa7W6TjbWI/vxyNIedIgRW2xjbbwKHAWSDjIQgN8+JnC2I4Wugnm5IlYzxsuwsdw9frDM1bd+bsveOL9kMucr1lm4+V23ablY4XSW3/uw3v/mzD2ZI9wJCIQAbjDEGMI5rB0tQtyg6+vWnO9CP8vo8nKMih7HuligHx4TqFL4pe1e8Vxyl70GxXc3bsVt0tP3qdTWLveX8emcv95Ph9OR0NRgwgBCAQOLeb24A8eGDTz/puvsCGF+MW3el6VLzHSmanWsDxJS9qb93xcM/dzs+26pt2WS2lcHN5UaZdsp6fSHdCsbfrkCLX82NeMtgJAFSuUM6Lq1SvNpUza6P9Rnl6E5SItuhn8XU35vq3hX/QqJfq1ATRenketm3bZOAxfNkdt3qt4DXLxFvSQBCzIREGnxmusiTsfaXZ6tXjbLbVluhUmGaW56yd8XvWrOpTfb9yN6hN6tN7WbyMKTB/UrsthghRJLCNpLAYMk2MrYE/P6cuE/d9Crjqy1No5MnW7IyZjKdFZqyd9V/1G9z1mY2Hvuzpyd9GXM3+5obS+bRSPO+pVKEoCAQYMMPz4R6sG3rq1NxY5k24FLr+cV2zIEcsxf2dC/B1N+7Ymhc23aM2Shrm7Mm1EerKHJ6cyLvzAxNpEBzGZBByAbAQ7/bAmB9/iq8/2GixWiScRhHZvMGhrHBMM0tT9m74n/8j0MsxrAWTfPI7eiYDwmjyHg+qHyEoOyD1O5bABKQSAaiq6sRJPvLV2LvEyPtbPuy35zGXrfZtKVxiWqcU3dvanOv+M+UsJuL5d58EfNOpb1OiihQfIF3Fgb04Z/9+W/+7NcNb1jCAGZRZgLH01fy3iclgTZyXM1LU7az3dluxLwViumu7yl7V33hCDV7Y9eKL19riFlzPtRod6R4sRKHgEBd05Uf4oYxAkCInNtYj7+1y+F4OUCZxWyvbWacn29jL91E9brgYdpLMLW5b310Pi80y34buakjyvo0VVqaUJ6Y9poFwghhScZvIigMCgs4fQLk48eKW/coi+ZaRtONDDHEXEN/dnEgt9Oe+Sl7b5VWpq1xOmQ/uk91WUrxfpE2l/j27E3KJAsMQmBkLAAE1tkg8AC8vEtTzi6I2Ty2caPMhs1m5duNUMdkyt4PLAm16+xzsExW2XV/WURttbybEpZAmB84CUsyAGi+3O5dvxyNAHbDOjq7WJ6xo8W80bdnlHJzIRPTtz5l74pQP7TN7qavhKhRMrv9wxJ48RtaJeqjAQEYGbBkBABG5Pw3bthJK9KUDtE++Po4vR2tBZfOxdEYoPPp1c3T2fC3/mIcu9rM3L887ZFrCbpre+oiHWAkNm1rZAQGMAIjC8AyIINlsu8KRvb263WSGZ0Gz+7tPL/XOR8e/q9Mprr3Pbm0pUB7++h440K08y5Kg7FsLJjLCAEGQIAtLMASli2DgfUMy0Oj2UfPz6sVhXZxqykPZHw0zS5M2XurRClFicrs+spLkOsMi8CS0+ItywJkkBCAZDC2EBDzQBCgcvu6s1fr0kbYgmim96lN83tvJb2xbKLbm6k03WyJDYRxYnNFBlJuQAIwYCFEBQDNwdAIlaZpur1l183aQoRExNTTmfp7b/2rvpkbGxMVi0KCFQCpsBVw9dpRuzZ8z0K4UixfPTNOqmTFyBQhS3awme6hmureW5IAJKeJIKSQQgYovogIMAawMVa0gAGDyUomGMDJd1yxAiktbAPYgv+MyXQP1ffumRZkCegtwMgGISgFAgEGBAL85gNkCIEA7BCypL4EqTCQCofAqNb/kcmUve+9V6PBSA7GU2Qym6sXWyAA3BeBJUBYb/KqEOI7EjgRNICNHN66U0ohYqzPmEzZ+977jsgAGF89WZ+dbJU1BGAZRICw1AjehsxIvGEECSZIKkoSO4fV6aYNUdIByurp/r2pv/eGRgTY20cvL84u1udPn75ejyBw9F9+9sWjUbZRNT8Qlq78gdBwfJ4W26eXIlwt6rg+fvns4vLbR69f9U2x7XEa4U3ze1dkuEbWWD0b1ciMcH5661qRPXx1MYJevH9NooZk3jLGMgDjV6uhj3t3vlhvavPxIXbUcejb3cuhtbTbr9yNbtVtpz3zU/beGkFQzp5ZpVXvxm6Gs25Xji9PJWD9x/bAb4OGZQRAWIB1/ipRngyvjMYX+6DM8bIt/bGbzDGO6kgZSwmPTKbs/aA7m5fU64dN08W2zkzRXO1pWWi4FM2uzuv41X8oAQIDAkD2xXNwOdwv82YAVSKBimXX13vNcGYNYzBmNiNdOKezQlP2rqhFqH+eQ3StBtVsGuUYr+4150ncv1W/PNF2s0QIc9Xw+Qbg+eHH7WE/rIgb21yPUCr2tzvzTXOwrum4sRiKmyppit401nhHE/iSJkroYCei7ebzhfvNxsi7t2vsQG5lsLnCZJUk+fhR+ejXN4D5J7/ahQAzLPf7vnTLMDv74XR0ozXdQzVl76pi7OfZlnltQpTYXHbrYRyOvRMaTxmPzWI3BQDmB8aGdi/EGnsEqZCos8WqPHl4mnWkbcJ1RA6NoOlbn7L3ltPebKPWbd32rSz87ILQNmc7Wn329393Kd3uDCBfCZ8EsHMIdKBqEnLEYyi4PF2tz1+uNm44e3hZMRkVa5pjmbL3VimprzY93lyuY3VxuSLHyLH2VXvImyHcXauBwULiB07Q+WO7uWvp7Q8SyO1lVW7Px3411u0ww7X3mMrpnNqUvbcGW8tWadfV45Oxbldjk6ko9goIIcEo8R2DbAAF1IpaCWaiK44GWoUckEjb9erSu3swrl5VGZq/ZDJl73u5xbePuihdNx8TKxt1XdNEbM81v3n7/kHpv7r4dhACXV3ibTrF/o2F+mfArjQXpVFzA8HBcjFru1CIvLEV0o4Smb9iMs2xfK/dNknTdvstipVGVRjC7vh21K07Vv+79ens9lBksBAgQI6E+c0vnSub00QoR9uAFuEuD0/ajoxtFKKU2Aae9i1P2XvLm50mte9l63o4DHS57E5rZtEW5tXIeMxZX4qQMQLAqoPz5UtjKVlbW/BIXhxhaXZxrW0PtlVtLNQIUQvo90ym7P1gmDeU3bU8io2g7zp2NmPZL/ONX+40+rqXZhqhyG+jh4hmwOD5Bwos2wAIU8p15gvKwXGv3UJkBJuIOg1zp+xd0XXhmF0M5JbtmCbPgGz34955Pb5cDhe4PWgLBb/zXg23Rx0i9ME8RUECCUZnUej+kN3mvDSXsZlbmcP5tWnj2pS9d/QllE3ZnpXtkBqzHTPVluud5jtnuV4jmveXCgBkBGAseOBEIQykUalgQoGaftOsqc3BahljJbvh1WHryN/8lsmUve81g0nt99v1kJJFnxb7OxAffLPpk9K+f90CAAuMsyBkKTBGcqrolokmynUEZXZc29NWL+Co749ztx4shKf9e9M5tSv+1dB2qdw+PBsVJFLNcuNutLbq+Gylu3tNLeIqy8JcNQwxtzye1aMijIdHQ6V4LN2wSma3D7tQXQ/z6cDGVPd+YIHQ7L1vVoMlyyyPbkZLkJ49QBIN7xKyAIQBGbpZIph1Z5IyRXPvUZ9FfQ75f0avtZFjit6UvTeaakDMPjw+q0iKbrcrBSEBP/wHGNCVuGJhACPbAPIyAhtMe//0grYZtF3O77QNIqVp7+jU5r71l33XIGPqeliMir7uNJEUQL5yNMMG1QbAAsAIOwAMFrLLpRcJMk6o4ziu8nYbyhC12Wz+jslU976XRjZGUWiLIqLJKgwgjDJkACEKgEWGbAQILCMLDDlLW0K4USqa3CmNnBEkjmklc8reWxIAsuqmGYvHYCgBJn74wdWd8oCxhAGDsGQZYRAULCM5BGr7fr8bR0XgCDn+s3/DZJrm/M77CgFI7rrAyI4IAwIJSVhvoyekHx7IsGWusviBgeKSLoGlUO9prDHVvSsEAC7UglzVGIEkjAVGAgHImCvCYIxABoCoKCGcNZRFVUSAJDO95GCqe1c8GF0AS+M35wlsXi4K8pX5ExF11QGygCoBgN5ETlhYGJEEApkA2wkoQCRZp3sJpuy9cX8ojTVS1uf99vz49cXg0hKWMBESFlYHAkBIfM8SCCQQEBImrBCyoo52Pa9qsAihYbqPZWpz3xoIG8fl33WqtdFFNLXuqWCjixdZbi0AhDMA1WwNWLg4kdG4HnZbO7bHm3JjDhIq1rhdbR3DGB23GwnQ9A7Tad/yFY0wtclvqmcdVSZXT5+mM1V//3dPnz/5uyf2lT3LCgNIxHkfmP53f/v3f/h8hC//5qunj/7uy2rAePvkvLs4H4c+fPpFBVtMB3Sn7F3hapnx683scC+aokYmz0+qqb8/cUj12z+kbSMDKACD8YnAfHG8NpeDP3s6AuOzzxOQV8+vH77YBNcaH7y/fLi1PX3rU/beoSZH4puLvuvcOZoSjCrHW8bHK6GDGT65kMFp8z0B+H5JuyYC56Njib05Ov1WttfP9s6/Wpf++JKmae/VR1vBdDZ8yt6POM5XUPLomhq7azvV4WndnMLik19+ulQ+MZKiCADzPQtFHBzuCV2+hHLvV58sxOsN7h+rnrLTlvYij45f8978Va+sm+m8xjTOfev92hS+DGezu2h6XBZNa439zvxl5d6N2vYX+FpsXl9cbKMkSABgj+vVaq2DGxxTZmf2zQ/c7RxnNns+P2e7vDVrhpHm+kFLu1R2SdYXTKZx7vdcO222S63pVFEnz7ceap7WFDMkTK3D7wZg59eNAQGAPzsDmo+vbXGzTbp7Kebd6I3rae/lDT0bja6VbbbFy347Y9rGMrW5V2QQzytl1p/VbBppPN+Wtpn30djPR/ISPB5nKLTtQ5L4Tu0NjC8HCY0wbxQ0c9MzboZcf/OyNy6Xz4cwglEap3sJprr3VjNm3XQeu/6sNOOmtmF77KPE7tbnn882lzKjMYYK4ju2AFDt56CACMCdjFfb6PqLzYKxaJsH4a1TlanuTdm76t/8M5ku7Dq8nA3r7JaZo1qR9zbnnIGAsiNZQIo3JEBul70gQBaEILRSyTFzlsNAs4tzPN2bjY7pLqCpzb1iFxXXnaOmzBfby6TvY3d//2gXmgd7AoVQM5Nl0xYZQEJCgKlOk4jBGEYwbUOEtR2GoaeT5f2ZRud05+1U9664kHT06oC9Z2X/yTYkFstm7E6iY/7xk97L+pJSWG4TFh0WIAOURW+rvdUIqYX1+WHCaJWYB0TTZJ+wtwAWxWupbudMprr3RkgH2jbNPb+aLzIHNS3V2RYx+/CTT9/bmIj2k1//6td/9svGEsgA8NFvPvn0l78+TIEPG/KViWEtlnSLUrXca7IsWoSapmHbqHTTu5unundVjaY9W7rsvmhLcdvWYZytPVO8et7uxqvz4KCoA2EEgGwETQvGgOts95iTL+40f1yruUm7TC2u+djbESkbET57DzzNqk7Ze2uXoSnXXruye9wzK2K9oss8bMZHax1j5fI9YWQQIGOEAfM9WffOx/HVqWt4v3N0zHWyf3BeibE2clNXXStyam2m7L11YWfsPvn2YOzXFRlnbQbtLdt1FYbsPm0AQGBh3hAWELhpZtdemBFy5yMcbfbz66fl5o67hS/HeXnR32489p8zmc5IvvXP5uSr11tGjGw5YOfuPn52OmzcLN/fRVi8DeDV87rG/RfDtfec31z2o9vlh3PG1Ol5ZnG7U3PcDErK4r3C+tkjJlP2rmSvaezTh1vepEq7d/cj5RhPtDfzu9eNyoAMBgE47SKw18+a2x3YWcbXr/q5cTUix+bg/aJ42k3Hc6fsveNfdFT3Dy8HwIJ2785ShLMIOQkQGFkgc5WvPplgDAdO6ovTgUhXYc1377aU/tFDJtM+lituXKsB5cCRQcR85/rdZUGBJCwkBCALfkwgkIQkBEOTYaDsZrpSs0a3c+96IXSyN50Umureu/5ibMKG3FLH6LqmGCmRZIwDgVNIBhBYYIQzACMA//CYzgY7h+N1tZZHXSOr9OfT5XvTOPdH/po/n7WGWApbuErGlsAyCGPQ24Fujp2wMdg2kmwBKRAEQtEsMlHIQNTzr5lMde/Hlp+UCAcySJjqIkSGUhECbCGSnhbsVTMbFXJAJkYySkCyjIszUpEBWILfHx2/ZjJl708MdocafSMVAhvXcR6qDbUgyWNpneoRq+01MA42s6KMAlljlFXSMUSYohQpZUiiymhzUc+OmUzZ+1P+ZTKMLwcy5FrIIJQIV0JWwVZNN0okJFVAkjB2jSSQEhAgE2lCJhjZ76//DZMpe/xp/2nB/debRK7+oaWVTBQzKDOa1hljBUACjxBIatXbYErKzjKqVBvN0pbz4H733zOZsvePmGd479CbfjxcNT6fvxdRZJ1fbjfd/bnM5tFQR892rqlv+tNKf7nz8YJB1ZF+dhlltp/nO4syPvTO+5XU4/px/GsmU/b+UbsP2PsrrvivMAgsjCxnzez+W36wf8b/rf/Ssv9bJpPJZDKZTCaTyWQymUwmk8lkMpn8f/O/AYK+C90qK2KhAAAAAElFTkSuQmCC;movable=0;resizable=0;rotatable=0;deletable=0;editable=0;locked=1;connectable=0;" parent="1" vertex="1">
          <mxGeometry x="233" width="635" height="593" as="geometry" />
        </mxCell>
        <mxCell id="gPERJX3LR2ZfcX0YphVG-1" value="" style="shape=image;aspect=fixed;image=data:image/png,iVBORw0KGgoAAAANSUhEUgAAAZ8AAABSCAMAAAC8PSl4AAAAwFBMVEX269/////9///0/P75+vrz+fr79evx9/n19fbz9fjz8/Py8fHq9PXv7+/j8fLu7Ozr6+vp6enk6fLm5+ry5NPm5ubj5Ofn497j4+Pw3b/d3d3Y29/Z2dnw06zW1tbX1sfS0tLPzs7yx43MzMzEycrHx8fzvXLExMS9vL24uLjxrVSzs7PypD2urq70ni2qqqnxnCvxmSTwlh/xkxPxkROfn57fjCGWlpXNgB6IiIi6cxyeYRhvZWRnWlh7ShZiNRLN7TxpAAAZ/klEQVR42u2dDXfiOHuGiSOKkFYV3hfvCNW4Nl5jG2Pc0DhMMm9n//+/qj5s5E9Mmkk3Paf3ZueIOKCb57JkWXoQM/Yl5LiBw76GnND9Klb8GMzIlxBmHiZfQzhgwgolf4No5yGPrBn6EoKOC9HXEAycr2KFh383H4y0IPtCfNgXsYLfzwd+/A/7+r/O57Ocv58Pte+Vg0dcY2zKH+Ez7eBaomhCH+NDHPte0c/lA3noB4Ef1NJFf0gBpwSN6uN8iPGh5Y8q8Omn8pFB0Q6mvAS+804+D+9rP37I+H1iYcQ/kQ9mEb/Xihd59PP4QBb6dzphbhTYH+WDb/Lx0d3yIv6ZfGJ69xOcyKefyMe/++8hDULbdPMfaT8f54O8mN8/nHDe3X7ozeM9QF+Aj5DtC0D3Csv7n/lVi8Wv5UPciKG2gM0pMA8Xi0bl86aTZSMAAMAJPlPCTuiSTlghY9C87rJR/28tK8tR7oaPPHA/oN4rAACGnSx+s2aHWvv9djZf4uop1Ibgg3ygE7AOsbS8lLGuAi8f6Xa/Pwxpv9vMFzWIpChCAj/EB8HQ7/DhRVkWLtJaLDe7USd43otjn8972gRqC7h5WQRw2Mls9nw+Pz+fxX9Pp+NhN9OnC02E+wiP8RHoCOxbrY8BCDUfn6OWoiTgUaa9LGe7w/H0JKqXP0LqH+1FWNlvlupcsZMsjovYhiN8IJD1oUEJlwhUfDzSDmoSe26a6p4Jb6WTs6pceJGmhJQZ5WSBlPysSDw42r9B4WU0KJBol30+kCdpnOYekpqv90ddvQ7LaTY7P1VSv9o9yqiAOA2DRARymA90giiKPDpohkdhGLp4iA8sAwRJkgOJ53GnfDwNSdo7brGwAlnB+MrLfTDEB0PiRWEUOsMXYz+KI98GA3yAV64QckoPIIwe0bHlREToKkntuFvKl/DTNMkyd4wP5mEYDl+6IHKFk5AN8gFZLLj6BZR4tkcZFFP5UfExej5uZ/I5RcgZjIoRPjzO87zIAjqEJy3EwdQncIhPkeVZWViiTLfH5yE0Ji7HzVKeXSXKKCiiQT6QBpmsLmaoLzsUx4o8cuAQn9csz7NXiR1v9tqJ4dM+a56ftguEQB4xz4mKET4kSIWRLHFhHw/xZVCKhOMBPlZRRHGcXiDC8/XxWVY9zkfQ20kvaVomVpAP87GTPBPKM7/f2HlaHeND/VuYpmmWyma53Iq3fVvP+/VCtp/01aFZv/3EVPrJdXWJ07NCIn0oj8lQ/5YqMYgWIihPg3yMjjOMQJZmieWXI3zcTFeXOqgnL6tcMtjnA6JCKhFFvDcVGz7dX2EZ5qzwqe+irnwPIeKJ2nR9tGc2LKpjsQP7fIAWFlYO58FWc2qU1WlLxSva3HfgAB/IkspK0TttsZNp5Snv88GVFVFAO4On078ZJzssY1KG0POH+ZAkqxT1h0lx7dLXfDoiUnJssD0O83l5OTUitJV8fD8IA3dwfLCKs1wr5b2q4iLPs1z+AR/g40ehkCtcbk7Gyn+8vFzLsmgaEF4i6vu+eM4AnxUCfl6pCEjXiVe7zMI+H2SHSo5oPgfj5PzychZBOZ1VsYmMIuR4PmeMDfLBTiZrUv/0/sDNlA3hMlpB1OPjcM7U6873T+dGIF5qPi8/fjbP4J3s38rycrkUYIgPDROttHf/CUmYJlrZAB+Yq5fNAMK7Zh/y8+fLyRQNn8N6AZl6ymsw1L8BP6ut+L0RuFsfSoI+H8D1y7pgsTk2gvLz51vVfr7//PH9yWiGQHpRMRluP06S1kHpGgHe1WW4gv3+LZVGLgVEc3OmSCZvFZ/T218iKobPHknxrEy5mXI2fMDDfTLjg4awm5cJg4qPCcpff71pPmdVNHzUyJaGRRHZA+0HWndaMXwasqOyCCmaCz4mKCISZ8FHF3+cDZ8Nhg73BKJwgA+HdwYF4IH+7fq62PA5vf386+f3U83nrw4f6BeXzOcOMno3Hwti1uUTlJfU4w5qt58aiima9oNWSVnGLqfof87HArjLBzoiJJHL23zO4kx9ejJ8GhegteCTlLk7Mr9zb1AAoSzqPv/6uo32I/j8eNHtR3a13zv9WybaXHnJ4TifaSFsd/jA4lW+bAoQ3jb4fBe9vul1z80B3BKyi7ISgA+0H4uiDh/gXpQV2b81e5U31amcdLHRfE5U90NlmX+IjwVI//5Hv67u30xQ3l4a47fmLdFGjQ+kOPoQH+Z2X4Exxn3PEaW14DOlZ3lfSDzfE1Zs+BE+jtPhgyhn3PM5RctZ8+7n/KL4qGLT4AHXMXGn+7dbthDvzx8EYeDLgfFCdyrGieHTaMkHyTQupJKPtR9eE8bm6TAoMzWqMGOVnsyZMkfQyQspd7z9TIfGYqzLxwk5zMrYhvJObHp8vcUIhDomE3wmRFwedvn4Ni9kD7dUd2IT96dHeU0GZeqHflqCAT5w7CTt8/H68ztWkic5UF7OE3jOO7wU7l/9MPQusfWB9tPnA9zCxpdIzu8s6gZkgnLqOjlQdZ8fp0lWfpRPf/wWg/CS5lAEZfd0vslHTMjtlnpOiAAU5vAOPpaaFIQQWNN8ithxeZgDfTP2fL6JZz9byHdfcARJ3r/+RIJP3wpSVu7hw6AHCzUtsT5oJ4bPuYNnvZQxSQhA/gSfnpNpPlmCbM8toYgJ3T89d/k8n696fjpskeQDeZanWcrRJB8LYmo7jDmOTZpurCE+yM0yea+isC+3BzGbNCw5Kbn/tkR6dJ2mWeTAST4AEduRVmyKgNXhE3XvT+M88pNMT2eu98dzw8rpqeXktF/PZUy8LPGjNJzmY5w4FLdMWgN8oJ+lYZio+Z35bCecGC9y/vp41eEgnKigYOBmReaBqfGBBYjDhIQZKbtxcJAP9JI88zFSfB7Xu8PhOKzDfjufX+fRisSGU+NrgGxm5GBwmw9cpUVZVL9c4O2+4eTQcUIfkVJYlGVCJvkAtGo6IdAavf6Y101tVZwj4aQRlcO/zLZXbegSU6oNQCCb6AQfC8mTxIgxCqw2n9GlQkIpXtDNdljrxZLWVoAQQrf5WHBlnDDpxIbWEB8jQBwEtRFKlsv1mBO8qIMCEKMATfEBlDFtoXaDrNt8AFjp849oJ5vFtlZizf7NyPWEGiGd4GMRacMERYjZ4CYfI+65rueauv0/TVk5ET8Oamm8f7Ogw4wJXWLIusHHyPY9IddY4X/6TSfKiouR1uT9KbClCdayQ6wun/GYSCdeXXkYP8y8lqb5wCaerpgBNMHH9doKIq8r34F38oFNMkyXFaBpPtDxvY6iwOtpmo/B0xdpjw/GxHtOYmu2roUwXmKhe/kg1mw5dZlR63pc8BmNsK5piddDkqvs6vg0n35QjCd4mw82ToSRJV1X+veNcfINL1EvKOP9G6CsGxHVmNB0+zFO6HJdaRNZs9NR63SU6QdzhKb4tIPClKEGKkZM+/HcwNGinQwXPVg5nI7DUukH6F4+tEdGF1fA8HFd13akCOppudjuj02dTMk4uYcPYsqAjogRs6HhE2m7tuvBASfrfdOHvP8xejodNo9TfMC1dzOnimk9+hJk+ESV2VV3fIAfNwczkO3pdNzhRZdoj4+5+HS7N9PDaT6hMGOro4JPd9hB98emE23LBEWu46KJ/q3bkHVwTHxok4+OlOfDToI9XtDd8dQKg+DTvhXbPuIpPupNQ7s+VSghK+2p+iHN9rNSqvhAN81TDhSe7UG891EJa3vaBTTCZ+UwHY8VoVSXTAMy7YfTlb1a2Vg7oVGeRxQiJCcQRHVj8wfy0GG9vK/9EFa3F0LJqjlGsOu/4ILPSoryuv0AZCOgWg/eGSdm/qB7rzzBp7ZSnSJekmUxNyM4xmzrysfLZFJLWGcHejIFJuXS13ocj1lUXt7DB9Sthsdpmnl1iJikhq58eJIFoRRFUqsoT5I8skVQ6E476c8fmKkMfEf7sR7AqqYRZ2kW29JB3f8T035WgQxJkMQAKQV5kYeyhvmuOX0wMj+6X1Y3BZTg8euPRZmj+YTl62uh+o5rHwdrPq5fviplUM/vhBSt1PzbYmJ+VE8FzrGxMsbHQtW5YbvF6+U1bPEhVs2HZa9aDOr5HU4pl9Ouy23XieTTnx/FECiN8tF9ihKRTgqiglHxsa2aT2hXTlKAqrytOElDOSd5GJ4fPZ2a+QdrYSVMpUI4yMf0tJrP5ZK7rVsPdOXjlf+lVGorZUAQiSWfmZkeVdWbcmd9wU5SKQ5H+RBHy3bzy+USsvb98pVP+k9thSs+XoGAhQoPLKmcHjXV6/ajit31hVDKu8EH1X0rlU5y2jDiOMDw0U7+GYMq/w08WH5h1he0ZPX1+tz39vocBmWZ5Xkpo4q7fK6nipLiI9qP05rSaPD5p1TFB/lZEqWpB9vrc6L6l3bRJFhB/prLRLVodP7aWtXVelX7YUZ2k4+2otoPdJLU89KEwcX60HYi+dRFE5QZsvJLKXXj+kNYpZVqP5Q1VPPhgo828lrxCZPAC5JE8Gk4OZv1udN3sdZ9aq1vgyIAAHgmP6TPh9orJepleZEwoh/a+p8xPsDLy4yDzvr2D7nU3i6a9VNeYgCsPATjfKqqKUsESs+mq6tsCis+YZOPFM/LMucYzTcNJ2Kl/4fMP9DF5gLqGoE8sVe2X95oP8SuqsVxIYIiH9rKnSxot8Tt8kE4EtRTIvg0ln++q/Vtk3/Q5gODLPbCW/0bAlalarjdELDH+GDCfYbRvfkHuzmCdpIFXpxwOMYHEOOkZwXB4fajM6xshNDj1gTl9L3KD9HFH2dzAaIIRJlHWHxrfQ7C8aCgQT5ajp60mY/kh4hcnh/t/AMEw1KllIzygQ5rCIFWU6ZjfBzZL2d2h4+ovs6veqtSrUx+CLLT8lIYPP32Y7OmrBXr9m/WAB8SXIRCUuWHGD5vVf/2JuLzZMitESSpvKjYU/2b6eXv6N+UZKxj2X5a+VWiJdfjg3MrJXurc+ZcPpK/Y8YHzGHqX8nHaQiP8IFp5ECexp38kLOQKTbzE+kSEcal6Dgf4jQk+ZhbIEbHrj88cwkOc26uP0qq+oH8gyNVFy2P3bz/QYKDuRMkRD6o3ZjxQdTmA4I05GEWmfxE42Qwv5fqnJLycit/R4ahVs1H/c9uj98cx04K+UCctVM6b+cIsotSAEb5YO2BVXxoHSIhM74Ou+O3Ukau9MES35Hfe9pjBJJSKr/Fx7mGQfNpTn5ZY+O3PLQA4CUcy+/tWFEL3IxLsRvzb6THx9x2VG6ZvP/JpYoIaz5yCHTJgRlLjsh0b4Qr2eP3p7AKQIsPq4w9XPnkl0xZsTWf11Lo1QNIJpBO8lljBN1QKPJv8DFTkqxuP1dAxDLtJ8ulykzxsfJLURblRdjCg/c/nVtlqirVGuvf9LkifRg+ZraWmvkdL2GMyx+KpLgvxZDO1T/fxnPaLo2VG+tzll23H9bp35gDzPxBFDlMiBMktfJ8IW8litjcoI7khzztVJVEaZiPWXHp9W/6F7Ax/8ZUUAI9/IJenAiFCMlT5eb8gVj47swFjrcfa3X1wjQfXdRWzPyoLbVy7Gp6VApi6eXbXlQ3Pv32rD+fZTS+foocLVa1H3aNCmnOj7rUlsJI6ToZIGrZHYWTPh+TM0OHHLT5mHWoqlOzJR/mVFpZhs/KlqKuD1GX+1Y4OXfyQ4yeDrv1I57m0+psmRkfaHPEMnw496R81ntV/DjbiQSRYcn0kC3SeKb5WLaotsfHdLSKj8tcX1kh3QCjJdrKBJGrTrJsHh22eGnqNaWB+WuLtPmYhgwb6z/E02KoI1HPpuVE5ofsjXYb+Ijg9PpC7aU3fjMr3JqPcO5Kef2VUIge4Xq3Nzrsm062s8c5hNN8rpMZ5vpTuWJq4d+szyHbU1Z6fCCcP862TSs3nODx+VFzBar5GDzEavBBVUz6U3kQPuKmk4PID/mj1u//+vvvfzDG7Ek+JhGCaS8ItM4Uw4ePXMhUss0fv4sqma5c7s/3R8OKcuKQO9e3kelqH+h1Hp2017dHrFAm9I+mldC9WmG/65gwcuf6NnQME1I7cShorZ+OBcVRQRFW6uq9yJr9WSvSCvk0Hy2wuo4PIKsXo9B9+SE8iiOpa+1xEv7ZsRL7Npzko4UH7n/IXfkhkGkjxkoYx3XRRMWeWv/pAhJQaH36UnBX/gEOulaSBM6+GTn/UEuxd/Ix4xVGqoJjw1b+m8fQiOTbENWZul3faTrRLwvRnXwsZOu4MORoPja+mX9tVLc3U3noNpxIl0Joko8BJMXMKNLgmco/cJh2co2EHz3Mdldt1xjdEO7nj1rIaYlavfzEW8Lr7W5YG9y1MpmfWJ2t5kS5zQe3H802I06235DUJB8ji9QmtCFsdfN7b2q22WJTvTVrDiUPW2N+sv2YE1dnkJpMScOHoXEtN4enMcn0g7vyQ4wsqNa2lRNzaKp/01rvT2P3pzr9YJpPP6tWryVjYKxM81nMdkdR5fD9j8qFoFVYCJnio2VZABIIiJrQnsqPT1OfAFhFeHeSNZo54upHqEpV0U4gyCmY5qOdIGzJZxgnI+0H8iLm9SUabwURXXG9vi0KRoftXP8dhHiCj7GCCCHKyeTnS/zQAZWR+fqgOWgnho8htEdaSTLBx0iC0T4m+CA/KYrUsxGamuDRmRBztZ9DeSl9MsnHODFWxtsPtOO8yGOXIqGN5jH++YWjnsl48MOHaT7GinYyzScv85BJ8nKudmJ/CuFFtmY5l56SCT5dTfNBhCflJQEILbeTE6Tn/UyGxU4uGUNaH//8j5HtZ+WFA7yQq/4T+SGHb1h4j4X1lXHwiz7/gyhzw7zMZHFv8Bg+XS8UqbO25PiX8+FRlmWpyis6jOMxWRmP8v2TlFhwID/kQ3xWfpKnWewIK1vhZCo/ZIf1p5tD8oHPB4+M3ygXeIpYXpCPY/khxtD5tJHnueV54NfzibMk4hjoPqWZldEvmv0pGA9FHH8tH8iyNA4YgKL5NPNDXl4UH11s54cgCML4QQYF/1I+IMqyxHNIe/3npKrXfF6+v721109h4GI3DeCH+EDW4+PG3E980lk/fXt7e2kUT539KRi5vPrgI/3bQ3/8tgpiJ45V/sGxuWr541TNj36XRdOAZghyxrzARR/jgwc+n5WG3Oeos3769kOkP4ztfwDy2E5fi4chPtCCZr4IdGWQAtJvPw95KXPxYIvPeXz/g80C8gtFcp1msP2Y3/adNI/1+QDnIrfgYrC7/8F31b8JUjImhs8GgzRB0WsBhscHAI46aR2jvMsHPwRZWua+KB3b+Qcvp5rPzx8dPkkSpJecDvJBflgpcB3WksP8sBbnbo8PyF/Dh7AAmo/ZyqSGcq6Lho+TJVF+CXGfD0WAR2ElX9TdFg9rBcztXX8gf70QWPqgzeen2T/kZys/ZC34xHZ0Kcjw/ju0UVuter2FB8Yl6/FBVvqaO2EJx/anUK262b/p8VuRFung/mJ2nFVKQ97V9VgeCEA9PuklYmHYyX87/RBWTLGV/6bG12leDu4vBr00qxR7vKPgeizhvM+HXUrOMg7b+1OI6nX7OamisThD0Mlfy6yMR/bfudaWurwj3ziRLkPUFogvqe1nOn/HnCo/vp+G8w/k+IDFRVlEHA3xoYHZuQt2zYZ5fZADs/+OEXA5InJm53jP/hRoiYiXlmUWDO5vCXmS12cD6Vph14AFQ/vvEAGNMrM/xdj6nBkfEDcpLnk4zIek16DA/gxs7TKkZv8qI5tzm7KBW8JBPoeFyg8pfDK2fy+rrSRkbH++LI9sOMSH5hmVb2B5mN6f4lTlh6R6pN9vP8iOqnfeT8BC5BowZvi0VCroi+0d+SE7LNt+EdoID/PBYaaV+qgrEtYuvcH93xAIcwup8fVtPmbV3wnSosxcOMiHBFlumk9bOCxMUPp8ZGJyRpSX0/T+iVRYIW6clWXiDLWfawOSefc9ce0y89EQH+yWl0tA1E371P4UenjNk6LMQ2eYD6L1/olDMwyVy8ge5EMSlVdnPjQwzuf5MKP6OTYL0miYD6JekhdZxPHAjDBVe23GDA3ywas8W2FVmh2eb+OpPumCqcOjdCB/VBllcVbkib8aXmPKiyJ1CRrZX+ySONpJpwV1+TyfNtIJWTmeCPTg+FrtGJMVRRbYJhZGLMzyItXH+nwQLy6efMaSHm7sP6r2Q9g+1tVC7Dhj+ysTh/OxdVbC6nSowesPq5d1H0UuxPPY/r0qU8UM4ylbje1/bTPOh9dZ9TFG4DAfRKpYogU+SCed+R3j5LCpjchLxdj+15DK2ihEQ1qpY8L2YP+GuI+Ulut9b/9ek5NxOuw3dGnoQzjGBw2vzzaP9fl054DpZndQqRhG/1mnRRz3W9F6jCAa4HOvE8NnRHgtt+I2aTKtRJXDbr1ovuL4/v43nJhj+Pb6At3uj436n2bN9bkN1vvH44/v72/4jAkv53jTWZ8zTtbzxfT3L9ynaT5osVhvx6ys0fwXfv9Cv3/DrfJi+a0VlH+ZPV41n5tT9hP5GC0X88dai98ejeaKzufzMdJOtH5vWVkg/L/IB7ec/Pa79d7vL4HwA3zGBZn37u8veccTgOBzP8tP/P4SiFj0nu9qeC+fgN4vwgL+id/P5JB3WLmbD37n98tgyAKunKzoXeLRJ35/lhf571AYsk/j44T+exS55LO+/8cO3hmUX/n9c7jTY7n8HXIZ/BQ+2vu75K4+7/vn7PcFhX9i+0H4fULv5vP5TvAH+Hx6UDCeuP7g3uPPV5/PRM0fdPVxPp/vw7SfLyHD5+PCH4na/Xww+mTp6w9Ef7v+//u3BwWRbD/2lxDlAbW/hlYB/yJWHC8CM5XL/feLc+erKORqN6G27o7RrwymK/hA9CUEIfoigg75KjHBzsN/A3w9QJqR3nA7AAAAAElFTkSuQmCC;" parent="1" vertex="1">
          <mxGeometry x="830" y="389" width="415" height="82" as="geometry" />
        </mxCell>
        <mxCell id="gPERJX3LR2ZfcX0YphVG-6" style="edgeStyle=orthogonalEdgeStyle;rounded=0;orthogonalLoop=1;jettySize=auto;html=1;strokeWidth=5;endArrow=none;startFill=0;fillColor=#d5e8d4;strokeColor=#82b366;exitX=0.5;exitY=1;exitDx=0;exitDy=0;exitPerimeter=0;" parent="1" source="gPERJX3LR2ZfcX0YphVG-2" edge="1">
          <mxGeometry relative="1" as="geometry">
            <mxPoint x="210" y="411" as="sourcePoint" />
            <mxPoint x="510" y="320" as="targetPoint" />
            <Array as="points">
              <mxPoint x="380" y="417" />
              <mxPoint x="380" y="320" />
            </Array>
          </mxGeometry>
        </mxCell>
        <mxCell id="gPERJX3LR2ZfcX0YphVG-2" value="" style="pointerEvents=1;verticalLabelPosition=bottom;shadow=0;dashed=0;align=center;html=1;verticalAlign=top;shape=mxgraph.electrical.resistors.potentiometer_1;strokeWidth=5;direction=north;" parent="1" vertex="1">
          <mxGeometry x="130" y="367" width="40" height="100" as="geometry" />
        </mxCell>
        <mxCell id="gPERJX3LR2ZfcX0YphVG-3" value="" style="pointerEvents=1;verticalLabelPosition=bottom;shadow=0;dashed=0;align=center;html=1;verticalAlign=top;shape=mxgraph.electrical.resistors.potentiometer_1;strokeWidth=5;direction=north;" parent="1" vertex="1">
          <mxGeometry x="130" y="487" width="40" height="100" as="geometry" />
        </mxCell>
        <mxCell id="gPERJX3LR2ZfcX0YphVG-22" style="edgeStyle=orthogonalEdgeStyle;rounded=0;orthogonalLoop=1;jettySize=auto;html=1;exitX=0;exitY=0.25;exitDx=0;exitDy=0;exitPerimeter=0;endArrow=none;startFill=0;strokeWidth=5;jumpStyle=sharp;" parent="1" source="gPERJX3LR2ZfcX0YphVG-4" edge="1">
          <mxGeometry relative="1" as="geometry">
            <mxPoint x="330" y="310" as="targetPoint" />
            <Array as="points">
              <mxPoint x="140" y="830" />
              <mxPoint x="331" y="830" />
              <mxPoint x="331" y="310" />
            </Array>
          </mxGeometry>
        </mxCell>
        <mxCell id="gPERJX3LR2ZfcX0YphVG-26" style="edgeStyle=orthogonalEdgeStyle;rounded=0;orthogonalLoop=1;jettySize=auto;html=1;exitX=1;exitY=0.25;exitDx=0;exitDy=0;exitPerimeter=0;fillColor=#f8cecc;strokeColor=#b85450;endArrow=none;startFill=0;strokeWidth=5;jumpStyle=sharp;" parent="1" source="gPERJX3LR2ZfcX0YphVG-4" edge="1">
          <mxGeometry relative="1" as="geometry">
            <mxPoint x="300" y="310" as="targetPoint" />
            <Array as="points">
              <mxPoint x="140" y="720" />
              <mxPoint x="300" y="720" />
            </Array>
          </mxGeometry>
        </mxCell>
        <mxCell id="gPERJX3LR2ZfcX0YphVG-4" value="" style="pointerEvents=1;verticalLabelPosition=bottom;shadow=0;dashed=0;align=center;html=1;verticalAlign=top;shape=mxgraph.electrical.resistors.potentiometer_1;strokeWidth=5;direction=north;" parent="1" vertex="1">
          <mxGeometry x="130" y="727" width="40" height="100" as="geometry" />
        </mxCell>
        <mxCell id="gPERJX3LR2ZfcX0YphVG-5" value="" style="pointerEvents=1;verticalLabelPosition=bottom;shadow=0;dashed=0;align=center;html=1;verticalAlign=top;shape=mxgraph.electrical.resistors.potentiometer_1;strokeWidth=5;direction=north;" parent="1" vertex="1">
          <mxGeometry x="130" y="607" width="40" height="100" as="geometry" />
        </mxCell>
        <mxCell id="gPERJX3LR2ZfcX0YphVG-7" value="Animation Potentiometer" style="text;html=1;align=center;verticalAlign=middle;whiteSpace=wrap;rounded=0;fontSize=18;fontStyle=1;" parent="1" vertex="1">
          <mxGeometry y="384.63" width="130" height="64.75" as="geometry" />
        </mxCell>
        <mxCell id="gPERJX3LR2ZfcX0YphVG-8" style="edgeStyle=orthogonalEdgeStyle;rounded=0;orthogonalLoop=1;jettySize=auto;html=1;strokeWidth=5;endArrow=none;startFill=0;fillColor=#d5e8d4;strokeColor=#82b366;exitX=0.5;exitY=1;exitDx=0;exitDy=0;exitPerimeter=0;jumpStyle=sharp;" parent="1" source="gPERJX3LR2ZfcX0YphVG-3" edge="1">
          <mxGeometry relative="1" as="geometry">
            <mxPoint x="400" y="525" as="sourcePoint" />
            <mxPoint x="510" y="350" as="targetPoint" />
            <Array as="points">
              <mxPoint x="410" y="537" />
              <mxPoint x="410" y="350" />
            </Array>
          </mxGeometry>
        </mxCell>
        <mxCell id="gPERJX3LR2ZfcX0YphVG-9" value="Brightness Potentiometer" style="text;html=1;align=center;verticalAlign=middle;whiteSpace=wrap;rounded=0;fontSize=18;fontStyle=1;" parent="1" vertex="1">
          <mxGeometry y="504.63" width="130" height="64.75" as="geometry" />
        </mxCell>
        <mxCell id="gPERJX3LR2ZfcX0YphVG-10" style="edgeStyle=orthogonalEdgeStyle;rounded=0;orthogonalLoop=1;jettySize=auto;html=1;strokeWidth=5;endArrow=none;startFill=0;fillColor=#d5e8d4;strokeColor=#82b366;exitX=0.5;exitY=1;exitDx=0;exitDy=0;exitPerimeter=0;jumpStyle=sharp;" parent="1" source="gPERJX3LR2ZfcX0YphVG-5" edge="1">
          <mxGeometry relative="1" as="geometry">
            <mxPoint x="430" y="730" as="sourcePoint" />
            <mxPoint x="510" y="380" as="targetPoint" />
            <Array as="points">
              <mxPoint x="440" y="657" />
              <mxPoint x="440" y="380" />
            </Array>
          </mxGeometry>
        </mxCell>
        <mxCell id="gPERJX3LR2ZfcX0YphVG-11" value="Color Potentiometer" style="text;html=1;align=center;verticalAlign=middle;whiteSpace=wrap;rounded=0;fontSize=18;fontStyle=1;" parent="1" vertex="1">
          <mxGeometry y="624.63" width="130" height="64.75" as="geometry" />
        </mxCell>
        <mxCell id="gPERJX3LR2ZfcX0YphVG-12" style="edgeStyle=orthogonalEdgeStyle;rounded=0;orthogonalLoop=1;jettySize=auto;html=1;strokeWidth=5;endArrow=none;startFill=0;fillColor=#d5e8d4;strokeColor=#82b366;exitX=0.5;exitY=1;exitDx=0;exitDy=0;exitPerimeter=0;jumpStyle=sharp;" parent="1" source="gPERJX3LR2ZfcX0YphVG-4" edge="1">
          <mxGeometry relative="1" as="geometry">
            <mxPoint x="200" y="730" as="sourcePoint" />
            <mxPoint x="510" y="400" as="targetPoint" />
            <Array as="points">
              <mxPoint x="470" y="777" />
              <mxPoint x="470" y="400" />
            </Array>
          </mxGeometry>
        </mxCell>
        <mxCell id="gPERJX3LR2ZfcX0YphVG-13" value="Delay Potentiometer" style="text;html=1;align=center;verticalAlign=middle;whiteSpace=wrap;rounded=0;fontSize=18;fontStyle=1;" parent="1" vertex="1">
          <mxGeometry y="744.63" width="130" height="64.75" as="geometry" />
        </mxCell>
        <mxCell id="gPERJX3LR2ZfcX0YphVG-14" style="edgeStyle=orthogonalEdgeStyle;rounded=0;orthogonalLoop=1;jettySize=auto;html=1;strokeWidth=5;endArrow=none;startFill=0;fillColor=#d5e8d4;strokeColor=#82b366;entryX=0;entryY=0.5;entryDx=0;entryDy=0;jumpStyle=sharp;" parent="1" target="gPERJX3LR2ZfcX0YphVG-1" edge="1">
          <mxGeometry relative="1" as="geometry">
            <mxPoint x="590" y="430" as="sourcePoint" />
            <mxPoint x="868" y="420" as="targetPoint" />
            <Array as="points">
              <mxPoint x="790" y="430" />
              <mxPoint x="790" y="430" />
            </Array>
          </mxGeometry>
        </mxCell>
        <mxCell id="gPERJX3LR2ZfcX0YphVG-15" style="edgeStyle=orthogonalEdgeStyle;rounded=0;orthogonalLoop=1;jettySize=auto;html=1;strokeWidth=5;endArrow=none;startFill=0;entryX=0;entryY=0.25;entryDx=0;entryDy=0;" parent="1" target="gPERJX3LR2ZfcX0YphVG-1" edge="1">
          <mxGeometry relative="1" as="geometry">
            <mxPoint x="590" y="320" as="sourcePoint" />
            <mxPoint x="988" y="420" as="targetPoint" />
            <Array as="points">
              <mxPoint x="700" y="320" />
              <mxPoint x="700" y="410" />
            </Array>
          </mxGeometry>
        </mxCell>
        <mxCell id="gPERJX3LR2ZfcX0YphVG-16" value="" style="verticalLabelPosition=bottom;shadow=0;dashed=0;align=center;fillColor=strokeColor;html=1;verticalAlign=top;strokeWidth=1;shape=mxgraph.electrical.miscellaneous.monocell_battery;" parent="1" vertex="1">
          <mxGeometry x="380" y="180" width="100" height="60" as="geometry" />
        </mxCell>
        <mxCell id="gPERJX3LR2ZfcX0YphVG-21" style="edgeStyle=orthogonalEdgeStyle;rounded=0;orthogonalLoop=1;jettySize=auto;html=1;exitX=0;exitY=0.5;exitDx=0;exitDy=0;endArrow=none;startFill=0;strokeWidth=5;jumpStyle=sharp;" parent="1" source="gPERJX3LR2ZfcX0YphVG-19" edge="1">
          <mxGeometry relative="1" as="geometry">
            <mxPoint x="590" y="320" as="targetPoint" />
            <Array as="points">
              <mxPoint x="650" y="510" />
              <mxPoint x="650" y="320" />
            </Array>
          </mxGeometry>
        </mxCell>
        <mxCell id="gPERJX3LR2ZfcX0YphVG-19" value="" style="pointerEvents=1;verticalLabelPosition=bottom;shadow=0;dashed=0;align=center;html=1;verticalAlign=top;shape=mxgraph.electrical.miscellaneous.batteryStack;" parent="1" vertex="1">
          <mxGeometry x="680" y="480" width="100" height="60" as="geometry" />
        </mxCell>
        <mxCell id="gPERJX3LR2ZfcX0YphVG-20" style="edgeStyle=orthogonalEdgeStyle;rounded=0;orthogonalLoop=1;jettySize=auto;html=1;strokeWidth=5;endArrow=none;startFill=0;entryX=0;entryY=0.75;entryDx=0;entryDy=0;exitX=1;exitY=0.5;exitDx=0;exitDy=0;fillColor=#f8cecc;strokeColor=#b85450;" parent="1" source="gPERJX3LR2ZfcX0YphVG-19" target="gPERJX3LR2ZfcX0YphVG-1" edge="1">
          <mxGeometry relative="1" as="geometry">
            <mxPoint x="910" y="800" as="sourcePoint" />
            <mxPoint x="1188" y="890" as="targetPoint" />
            <Array as="points">
              <mxPoint x="810" y="510" />
              <mxPoint x="810" y="451" />
            </Array>
          </mxGeometry>
        </mxCell>
        <mxCell id="gPERJX3LR2ZfcX0YphVG-23" style="edgeStyle=orthogonalEdgeStyle;rounded=0;orthogonalLoop=1;jettySize=auto;html=1;exitX=0;exitY=0.25;exitDx=0;exitDy=0;exitPerimeter=0;endArrow=none;startFill=0;strokeWidth=5;jumpStyle=sharp;" parent="1" source="gPERJX3LR2ZfcX0YphVG-5" edge="1">
          <mxGeometry relative="1" as="geometry">
            <mxPoint x="330" y="710" as="targetPoint" />
            <mxPoint x="580" y="1377" as="sourcePoint" />
            <Array as="points">
              <mxPoint x="140" y="710" />
            </Array>
          </mxGeometry>
        </mxCell>
        <mxCell id="gPERJX3LR2ZfcX0YphVG-24" style="edgeStyle=orthogonalEdgeStyle;rounded=0;orthogonalLoop=1;jettySize=auto;html=1;endArrow=none;startFill=0;strokeWidth=5;jumpStyle=sharp;exitX=0.003;exitY=0.208;exitDx=0;exitDy=0;exitPerimeter=0;" parent="1" source="gPERJX3LR2ZfcX0YphVG-3" edge="1">
          <mxGeometry relative="1" as="geometry">
            <mxPoint x="330" y="590" as="targetPoint" />
            <mxPoint x="140" y="587" as="sourcePoint" />
            <Array as="points">
              <mxPoint x="140" y="587" />
              <mxPoint x="140" y="590" />
            </Array>
          </mxGeometry>
        </mxCell>
        <mxCell id="gPERJX3LR2ZfcX0YphVG-25" style="edgeStyle=orthogonalEdgeStyle;rounded=0;orthogonalLoop=1;jettySize=auto;html=1;endArrow=none;startFill=0;strokeWidth=5;jumpStyle=sharp;exitX=0;exitY=0.25;exitDx=0;exitDy=0;exitPerimeter=0;" parent="1" source="gPERJX3LR2ZfcX0YphVG-2" edge="1">
          <mxGeometry relative="1" as="geometry">
            <mxPoint x="330" y="480" as="targetPoint" />
            <mxPoint x="220" y="580" as="sourcePoint" />
            <Array as="points">
              <mxPoint x="140" y="470" />
              <mxPoint x="330" y="470" />
            </Array>
          </mxGeometry>
        </mxCell>
        <mxCell id="gPERJX3LR2ZfcX0YphVG-27" style="edgeStyle=orthogonalEdgeStyle;rounded=0;orthogonalLoop=1;jettySize=auto;html=1;exitX=1;exitY=0.25;exitDx=0;exitDy=0;exitPerimeter=0;fillColor=#f8cecc;strokeColor=#b85450;endArrow=none;startFill=0;strokeWidth=5;" parent="1" source="gPERJX3LR2ZfcX0YphVG-5" edge="1">
          <mxGeometry relative="1" as="geometry">
            <mxPoint x="300" y="600" as="targetPoint" />
            <mxPoint x="300" y="1207" as="sourcePoint" />
            <Array as="points">
              <mxPoint x="140" y="600" />
            </Array>
          </mxGeometry>
        </mxCell>
        <mxCell id="gPERJX3LR2ZfcX0YphVG-28" style="edgeStyle=orthogonalEdgeStyle;rounded=0;orthogonalLoop=1;jettySize=auto;html=1;fillColor=#f8cecc;strokeColor=#b85450;endArrow=none;startFill=0;strokeWidth=5;" parent="1" edge="1">
          <mxGeometry relative="1" as="geometry">
            <mxPoint x="300" y="480" as="targetPoint" />
            <mxPoint x="140" y="487" as="sourcePoint" />
            <Array as="points">
              <mxPoint x="140" y="487" />
              <mxPoint x="140" y="480" />
            </Array>
          </mxGeometry>
        </mxCell>
        <mxCell id="gPERJX3LR2ZfcX0YphVG-29" style="edgeStyle=orthogonalEdgeStyle;rounded=0;orthogonalLoop=1;jettySize=auto;html=1;exitX=1;exitY=0.25;exitDx=0;exitDy=0;exitPerimeter=0;fillColor=#f8cecc;strokeColor=#b85450;endArrow=none;startFill=0;strokeWidth=5;" parent="1" edge="1">
          <mxGeometry relative="1" as="geometry">
            <mxPoint x="300" y="360" as="targetPoint" />
            <mxPoint x="140" y="367" as="sourcePoint" />
            <Array as="points">
              <mxPoint x="140" y="360" />
            </Array>
          </mxGeometry>
        </mxCell>
      </root>
    </mxGraphModel>
  </diagram>
</mxfile>
